NotoSerifTamilSlanted-SemiBoldItalic.ufo
<glyph name="exclam" format="2">
  <advance width="395"/>
  <unicode hex="0021"/>
  <outline>
    <contour>
      <point x="149" y="228" type="line"/>
      <point x="215" y="228" type="line"/>
      <point x="384" y="714" type="line"/>
      <point x="210" y="714" type="line"/>
    </contour>
    <contour>
      <point x="158" y="-8" type="curve" smooth="yes"/>
      <point x="200" y="-8"/>
      <point x="245" y="15"/>
      <point x="245" y="82" type="curve" smooth="yes"/>
      <point x="245" y="131"/>
      <point x="210" y="154"/>
      <point x="164" y="154" type="curve" smooth="yes"/>
      <point x="111" y="154"/>
      <point x="77" y="118"/>
      <point x="77" y="64" type="curve" smooth="yes"/>
      <point x="77" y="15"/>
      <point x="110" y="-8"/>
    </contour>
  </outline>
</glyph>
<glyph name="numbersign" format="2">
  <advance width="559"/>
  <unicode hex="0023"/>
  <outline>
    <contour>
      <point x="69" y="0" type="line"/>
      <point x="140" y="0" type="line"/>
      <point x="199" y="200" type="line"/>
      <point x="303" y="200" type="line"/>
      <point x="245" y="0" type="line"/>
      <point x="316" y="0" type="line"/>
      <point x="374" y="200" type="line"/>
      <point x="499" y="200" type="line"/>
      <point x="506" y="269" type="line"/>
      <point x="395" y="269" type="line"/>
      <point x="448" y="450" type="line"/>
      <point x="557" y="450" type="line"/>
      <point x="565" y="520" type="line"/>
      <point x="469" y="520" type="line"/>
      <point x="526" y="714" type="line"/>
      <point x="455" y="714" type="line"/>
      <point x="398" y="520" type="line"/>
      <point x="294" y="520" type="line"/>
      <point x="350" y="714" type="line"/>
      <point x="278" y="714" type="line"/>
      <point x="223" y="520" type="line"/>
      <point x="94" y="520" type="line"/>
      <point x="86" y="450" type="line"/>
      <point x="202" y="450" type="line"/>
      <point x="148" y="269" type="line"/>
      <point x="35" y="269" type="line"/>
      <point x="28" y="200" type="line"/>
      <point x="128" y="200" type="line"/>
    </contour>
    <contour>
      <point x="219" y="269" type="line"/>
      <point x="273" y="450" type="line"/>
      <point x="378" y="450" type="line"/>
      <point x="324" y="269" type="line"/>
    </contour>
  </outline>
</glyph>
<glyph name="percent" format="2">
  <advance width="896"/>
  <unicode hex="0025"/>
  <outline>
    <contour>
      <point x="179" y="0" type="line"/>
      <point x="257" y="0" type="line"/>
      <point x="750" y="714" type="line"/>
      <point x="675" y="714" type="line"/>
    </contour>
    <contour>
      <point x="213" y="280" type="curve"/>
      <point x="376" y="280"/>
      <point x="447" y="460"/>
      <point x="447" y="575" type="curve" smooth="yes"/>
      <point x="447" y="660"/>
      <point x="403" y="724"/>
      <point x="302" y="724" type="curve" smooth="yes"/>
      <point x="142" y="724"/>
      <point x="72" y="551"/>
      <point x="72" y="426" type="curve"/>
      <point x="72" y="331"/>
      <point x="127" y="280"/>
    </contour>
    <contour>
      <point x="224" y="331" type="curve" smooth="yes"/>
      <point x="192" y="331"/>
      <point x="180" y="365"/>
      <point x="180" y="418" type="curve" smooth="yes"/>
      <point x="180" y="497"/>
      <point x="221" y="672"/>
      <point x="299" y="672" type="curve" smooth="yes"/>
      <point x="332" y="672"/>
      <point x="343" y="639"/>
      <point x="343" y="586" type="curve" smooth="yes"/>
      <point x="343" y="506"/>
      <point x="302" y="331"/>
    </contour>
    <contour>
      <point x="628" y="-10" type="curve"/>
      <point x="791" y="-10"/>
      <point x="862" y="170"/>
      <point x="862" y="285" type="curve" smooth="yes"/>
      <point x="862" y="370"/>
      <point x="818" y="434"/>
      <point x="717" y="434" type="curve" smooth="yes"/>
      <point x="557" y="434"/>
      <point x="487" y="261"/>
      <point x="487" y="136" type="curve"/>
      <point x="487" y="41"/>
      <point x="542" y="-10"/>
    </contour>
    <contour>
      <point x="639" y="41" type="curve" smooth="yes"/>
      <point x="607" y="41"/>
      <point x="595" y="75"/>
      <point x="595" y="128" type="curve" smooth="yes"/>
      <point x="595" y="207"/>
      <point x="636" y="382"/>
      <point x="714" y="382" type="curve" smooth="yes"/>
      <point x="747" y="382"/>
      <point x="758" y="349"/>
      <point x="758" y="296" type="curve" smooth="yes"/>
      <point x="758" y="216"/>
      <point x="717" y="41"/>
    </contour>
  </outline>
</glyph>
<glyph name="quotesingle" format="2">
  <advance width="290"/>
  <unicode hex="0027"/>
  <outline>
    <contour>
      <point x="152" y="439" type="line"/>
      <point x="218" y="439" type="line"/>
      <point x="322" y="714" type="line"/>
      <point x="166" y="714" type="line"/>
    </contour>
  </outline>
</glyph>
<glyph name="parenleft" format="2">
  <advance width="400"/>
  <unicode hex="0028"/>
  <outline>
    <contour>
      <point x="270" y="-139" type="curve"/>
      <point x="283" y="-75" type="line"/>
      <point x="218" y="-28"/>
      <point x="196" y="57"/>
      <point x="196" y="139" type="curve" smooth="yes"/>
      <point x="196" y="276"/>
      <point x="245" y="596"/>
      <point x="451" y="709" type="curve"/>
      <point x="461" y="772" type="line"/>
      <point x="178" y="706"/>
      <point x="42" y="434"/>
      <point x="42" y="186" type="curve" smooth="yes"/>
      <point x="42" y="42"/>
      <point x="109" y="-83"/>
    </contour>
  </outline>
</glyph>
<glyph name="parenright" format="2">
  <advance width="400"/>
  <unicode hex="0029"/>
  <outline>
    <contour>
      <point x="-44" y="-138" type="line"/>
      <point x="239" y="-72"/>
      <point x="375" y="200"/>
      <point x="375" y="448" type="curve" smooth="yes"/>
      <point x="375" y="592"/>
      <point x="308" y="717"/>
      <point x="147" y="773" type="curve"/>
      <point x="134" y="709" type="line"/>
      <point x="199" y="662"/>
      <point x="221" y="577"/>
      <point x="221" y="495" type="curve" smooth="yes"/>
      <point x="221" y="358"/>
      <point x="172" y="38"/>
      <point x="-34" y="-75" type="curve"/>
    </contour>
  </outline>
</glyph>
<glyph name="comma" format="2">
  <advance width="304"/>
  <unicode hex="002C"/>
  <outline>
    <contour>
      <point x="-16" y="-151" type="line"/>
      <point x="130" y="-123"/>
      <point x="204" y="-40"/>
      <point x="204" y="62" type="curve" smooth="yes"/>
      <point x="204" y="120"/>
      <point x="165" y="153"/>
      <point x="117" y="153" type="curve" smooth="yes"/>
      <point x="77" y="153"/>
      <point x="42" y="127"/>
      <point x="42" y="84" type="curve" smooth="yes"/>
      <point x="42" y="26"/>
      <point x="98" y="27"/>
      <point x="98" y="-15" type="curve" smooth="yes"/>
      <point x="98" y="-54"/>
      <point x="63" y="-82"/>
      <point x="-5" y="-98" type="curve"/>
    </contour>
  </outline>
</glyph>
<glyph name="hyphen" format="2">
  <advance width="310"/>
  <unicode hex="002D"/>
  <outline>
    <contour>
      <point x="10" y="220" type="line"/>
      <point x="270" y="220" type="line"/>
      <point x="293" y="325" type="line"/>
      <point x="33" y="325" type="line"/>
    </contour>
  </outline>
</glyph>
<glyph name="slash" format="2">
  <advance width="288"/>
  <unicode hex="002F"/>
  <outline>
    <contour>
      <point x="-103" y="-121" type="line"/>
      <point x="-25" y="-121" type="line"/>
      <point x="401" y="760" type="line"/>
      <point x="323" y="760" type="line"/>
    </contour>
  </outline>
</glyph>
<glyph name="zero" format="2">
  <advance width="559"/>
  <unicode hex="0030"/>
  <outline>
    <contour>
      <point x="245" y="-11" type="curve" smooth="yes"/>
      <point x="467" y="-11"/>
      <point x="564" y="294"/>
      <point x="564" y="496" type="curve" smooth="yes"/>
      <point x="564" y="655"/>
      <point x="474" y="725"/>
      <point x="360" y="725" type="curve" smooth="yes"/>
      <point x="138" y="725"/>
      <point x="37" y="438"/>
      <point x="37" y="231" type="curve" smooth="yes"/>
      <point x="37" y="73"/>
      <point x="121" y="-11"/>
    </contour>
    <contour>
      <point x="251" y="57" type="curve" smooth="yes"/>
      <point x="204" y="57"/>
      <point x="174" y="99"/>
      <point x="174" y="188" type="curve" smooth="yes"/>
      <point x="174" y="358"/>
      <point x="242" y="658"/>
      <point x="355" y="658" type="curve" smooth="yes"/>
      <point x="404" y="658"/>
      <point x="432" y="616"/>
      <point x="432" y="529" type="curve" smooth="yes"/>
      <point x="432" y="361"/>
      <point x="368" y="57"/>
    </contour>
  </outline>
</glyph>
<glyph name="one" format="2">
  <advance width="559"/>
  <unicode hex="0031"/>
  <outline>
    <contour>
      <point x="40" y="0" type="line"/>
      <point x="453" y="0" type="line"/>
      <point x="464" y="53" type="line"/>
      <point x="415" y="53" type="line" smooth="yes"/>
      <point x="372" y="53"/>
      <point x="340" y="57"/>
      <point x="340" y="86" type="curve" smooth="yes"/>
      <point x="340" y="94"/>
      <point x="344" y="113"/>
      <point x="346" y="121" type="curve"/>
      <point x="473" y="718" type="line"/>
      <point x="361" y="718" type="line"/>
      <point x="280" y="666" type="line" smooth="yes"/>
      <point x="204" y="617"/>
      <point x="156" y="601"/>
      <point x="110" y="589" type="curve"/>
      <point x="110" y="542"/>
      <point x="130" y="515"/>
      <point x="158" y="515" type="curve" smooth="yes"/>
      <point x="201" y="515"/>
      <point x="240" y="554"/>
      <point x="303" y="619" type="curve"/>
      <point x="307" y="619" type="line"/>
      <point x="295" y="573"/>
      <point x="284" y="528"/>
      <point x="274" y="482" type="curve" smooth="yes"/>
      <point x="197" y="118" type="line" smooth="yes"/>
      <point x="187" y="70"/>
      <point x="157" y="53"/>
      <point x="110" y="53" type="curve" smooth="yes"/>
      <point x="51" y="53" type="line"/>
    </contour>
  </outline>
</glyph>
<glyph name="three" format="2">
  <advance width="559"/>
  <unicode hex="0033"/>
  <outline>
    <contour>
      <point x="210" y="-10" type="curve" smooth="yes"/>
      <point x="345" y="-10"/>
      <point x="509" y="48"/>
      <point x="509" y="225" type="curve" smooth="yes"/>
      <point x="509" y="311"/>
      <point x="451" y="362"/>
      <point x="359" y="372" type="curve"/>
      <point x="493" y="396"/>
      <point x="560" y="488"/>
      <point x="560" y="581" type="curve" smooth="yes"/>
      <point x="560" y="672"/>
      <point x="478" y="724"/>
      <point x="355" y="724" type="curve" smooth="yes"/>
      <point x="219" y="724"/>
      <point x="110" y="660"/>
      <point x="110" y="578" type="curve" smooth="yes"/>
      <point x="110" y="529"/>
      <point x="159" y="514"/>
      <point x="223" y="514" type="curve"/>
      <point x="237" y="593"/>
      <point x="264" y="663"/>
      <point x="337" y="663" type="curve" smooth="yes"/>
      <point x="385" y="663"/>
      <point x="406" y="627"/>
      <point x="406" y="577" type="curve" smooth="yes"/>
      <point x="406" y="471"/>
      <point x="323" y="400"/>
      <point x="211" y="400" type="curve" smooth="yes"/>
      <point x="179" y="400" type="line"/>
      <point x="169" y="338" type="line"/>
      <point x="212" y="338" type="line"/>
      <point x="301" y="338"/>
      <point x="353" y="294"/>
      <point x="353" y="218" type="curve" smooth="yes"/>
      <point x="353" y="114"/>
      <point x="290" y="61"/>
      <point x="223" y="61" type="curve" smooth="yes"/>
      <point x="145" y="61"/>
      <point x="109" y="118"/>
      <point x="109" y="196" type="curve"/>
      <point x="40" y="196"/>
      <point x="-1" y="163"/>
      <point x="-1" y="111" type="curve" smooth="yes"/>
      <point x="-1" y="55"/>
      <point x="54" y="-10"/>
    </contour>
  </outline>
</glyph>
<glyph name="four" format="2">
  <advance width="559"/>
  <unicode hex="0034"/>
  <outline>
    <contour>
      <point x="129" y="0" type="line"/>
      <point x="480" y="0" type="line"/>
      <point x="491" y="53" type="line"/>
      <point x="473" y="53" type="line" smooth="yes"/>
      <point x="433" y="53"/>
      <point x="407" y="59"/>
      <point x="407" y="93" type="curve" smooth="yes"/>
      <point x="407" y="99"/>
      <point x="409" y="116"/>
      <point x="411" y="124" type="curve" smooth="yes"/>
      <point x="537" y="714" type="line"/>
      <point x="397" y="714" type="line"/>
      <point x="14" y="248" type="line"/>
      <point x="0" y="186" type="line"/>
      <point x="528" y="186" type="line"/>
      <point x="542" y="252" type="line"/>
      <point x="54" y="252" type="line"/>
      <point x="70" y="225" type="line"/>
      <point x="269" y="469" type="line" smooth="yes"/>
      <point x="298" y="504"/>
      <point x="348" y="574"/>
      <point x="377" y="619" type="curve"/>
      <point x="358" y="557"/>
      <point x="340" y="480"/>
      <point x="329" y="427" type="curve" smooth="yes"/>
      <point x="265" y="125" type="line" smooth="yes"/>
      <point x="251" y="57"/>
      <point x="207" y="53"/>
      <point x="168" y="53" type="curve" smooth="yes"/>
      <point x="139" y="53" type="line"/>
    </contour>
  </outline>
</glyph>
<glyph name="five" format="2">
  <advance width="559"/>
  <unicode hex="0035"/>
  <outline>
    <contour>
      <point x="199" y="-10" type="curve" smooth="yes"/>
      <point x="390" y="-10"/>
      <point x="505" y="101"/>
      <point x="505" y="247" type="curve" smooth="yes"/>
      <point x="505" y="368"/>
      <point x="416" y="434"/>
      <point x="278" y="434" type="curve" smooth="yes"/>
      <point x="229" y="434"/>
      <point x="198" y="425"/>
      <point x="174" y="418" type="curve"/>
      <point x="231" y="605" type="line"/>
      <point x="434" y="605" type="line" smooth="yes"/>
      <point x="472" y="605"/>
      <point x="483" y="595"/>
      <point x="483" y="580" type="curve" smooth="yes"/>
      <point x="483" y="572"/>
      <point x="481" y="549"/>
      <point x="480" y="532" type="curve"/>
      <point x="541" y="532" type="line"/>
      <point x="570" y="714" type="line"/>
      <point x="192" y="714" type="line"/>
      <point x="90" y="367" type="line"/>
      <point x="132" y="346" type="line"/>
      <point x="158" y="357"/>
      <point x="187" y="368"/>
      <point x="235" y="368" type="curve" smooth="yes"/>
      <point x="304" y="368"/>
      <point x="356" y="326"/>
      <point x="356" y="240" type="curve" smooth="yes"/>
      <point x="356" y="120"/>
      <point x="299" y="60"/>
      <point x="212" y="60" type="curve" smooth="yes"/>
      <point x="124" y="60"/>
      <point x="104" y="130"/>
      <point x="103" y="187" type="curve"/>
      <point x="39" y="187"/>
      <point x="10" y="151"/>
      <point x="10" y="107" type="curve" smooth="yes"/>
      <point x="10" y="43"/>
      <point x="60" y="-10"/>
    </contour>
  </outline>
</glyph>
<glyph name="six" format="2">
  <advance width="559"/>
  <unicode hex="0036"/>
  <outline>
    <contour>
      <point x="259" y="-10" type="curve" smooth="yes"/>
      <point x="441" y="-10"/>
      <point x="528" y="121"/>
      <point x="528" y="261" type="curve" smooth="yes"/>
      <point x="528" y="357"/>
      <point x="475" y="438"/>
      <point x="359" y="438" type="curve" smooth="yes"/>
      <point x="291" y="438"/>
      <point x="243" y="411"/>
      <point x="213" y="388" type="curve"/>
      <point x="254" y="574"/>
      <point x="319" y="665"/>
      <point x="405" y="665" type="curve" smooth="yes"/>
      <point x="458" y="665"/>
      <point x="464" y="601"/>
      <point x="464" y="536" type="curve"/>
      <point x="543" y="536"/>
      <point x="589" y="568"/>
      <point x="589" y="621" type="curve" smooth="yes"/>
      <point x="589" y="676"/>
      <point x="532" y="724"/>
      <point x="423" y="724" type="curve" smooth="yes"/>
      <point x="192" y="724"/>
      <point x="51" y="481"/>
      <point x="51" y="232" type="curve" smooth="yes"/>
      <point x="51" y="70"/>
      <point x="144" y="-10"/>
    </contour>
    <contour>
      <point x="273" y="55" type="curve" smooth="yes"/>
      <point x="221" y="55"/>
      <point x="188" y="99"/>
      <point x="188" y="200" type="curve" smooth="yes"/>
      <point x="188" y="236"/>
      <point x="192" y="276"/>
      <point x="200" y="325" type="curve"/>
      <point x="227" y="350"/>
      <point x="270" y="377"/>
      <point x="313" y="377" type="curve" smooth="yes"/>
      <point x="362" y="377"/>
      <point x="387" y="333"/>
      <point x="387" y="253" type="curve" smooth="yes"/>
      <point x="387" y="141"/>
      <point x="341" y="55"/>
    </contour>
  </outline>
</glyph>
<glyph name="seven" format="2">
  <advance width="559"/>
  <unicode hex="0037"/>
  <outline>
    <contour>
      <point x="104" y="0" type="line"/>
      <point x="189" y="0" type="line"/>
      <point x="605" y="655" type="line"/>
      <point x="616" y="714" type="line"/>
      <point x="139" y="714" type="line"/>
      <point x="98" y="504" type="line"/>
      <point x="159" y="504" type="line"/>
      <point x="173" y="554" type="line" smooth="yes"/>
      <point x="182" y="587"/>
      <point x="206" y="605"/>
      <point x="242" y="605" type="curve" smooth="yes"/>
      <point x="499" y="605" type="line"/>
    </contour>
  </outline>
</glyph>
<glyph name="colon" format="2">
  <advance width="358"/>
  <unicode hex="003A"/>
  <outline>
    <contour>
      <point x="213" y="379" type="curve" smooth="yes"/>
      <point x="255" y="379"/>
      <point x="300" y="402"/>
      <point x="300" y="469" type="curve" smooth="yes"/>
      <point x="300" y="518"/>
      <point x="265" y="541"/>
      <point x="219" y="541" type="curve" smooth="yes"/>
      <point x="166" y="541"/>
      <point x="132" y="505"/>
      <point x="132" y="451" type="curve" smooth="yes"/>
      <point x="132" y="402"/>
      <point x="165" y="379"/>
    </contour>
    <contour>
      <point x="125" y="-8" type="curve" smooth="yes"/>
      <point x="167" y="-8"/>
      <point x="212" y="15"/>
      <point x="212" y="82" type="curve" smooth="yes"/>
      <point x="212" y="131"/>
      <point x="177" y="154"/>
      <point x="131" y="154" type="curve" smooth="yes"/>
      <point x="78" y="154"/>
      <point x="44" y="118"/>
      <point x="44" y="64" type="curve" smooth="yes"/>
      <point x="44" y="15"/>
      <point x="77" y="-8"/>
    </contour>
  </outline>
</glyph>
<glyph name="semicolon" format="2">
  <advance width="358"/>
  <unicode hex="003B"/>
  <outline>
    <contour>
      <point x="-11" y="-151" type="line"/>
      <point x="135" y="-123"/>
      <point x="209" y="-40"/>
      <point x="209" y="62" type="curve" smooth="yes"/>
      <point x="209" y="120"/>
      <point x="170" y="153"/>
      <point x="122" y="153" type="curve" smooth="yes"/>
      <point x="82" y="153"/>
      <point x="47" y="127"/>
      <point x="47" y="84" type="curve" smooth="yes"/>
      <point x="47" y="26"/>
      <point x="103" y="27"/>
      <point x="103" y="-15" type="curve" smooth="yes"/>
      <point x="103" y="-54"/>
      <point x="68" y="-82"/>
      <point x="0" y="-98" type="curve"/>
    </contour>
    <contour>
      <point x="213" y="379" type="curve" smooth="yes"/>
      <point x="255" y="379"/>
      <point x="300" y="402"/>
      <point x="300" y="469" type="curve" smooth="yes"/>
      <point x="300" y="518"/>
      <point x="265" y="541"/>
      <point x="219" y="541" type="curve" smooth="yes"/>
      <point x="166" y="541"/>
      <point x="132" y="505"/>
      <point x="132" y="451" type="curve" smooth="yes"/>
      <point x="132" y="402"/>
      <point x="165" y="379"/>
    </contour>
  </outline>
</glyph>
<glyph name="less" format="2">
  <advance width="559"/>
  <unicode hex="003C"/>
  <outline>
    <contour>
      <point x="494" y="104" type="line"/>
      <point x="494" y="183" type="line"/>
      <point x="172" y="357" type="line"/>
      <point x="494" y="533" type="line"/>
      <point x="494" y="612" type="line"/>
      <point x="65" y="378" type="line"/>
      <point x="65" y="337" type="line"/>
    </contour>
  </outline>
</glyph>
<glyph name="equal" format="2">
  <advance width="559"/>
  <unicode hex="003D"/>
  <outline>
    <contour>
      <point x="63" y="419" type="line"/>
      <point x="496" y="419" type="line"/>
      <point x="496" y="489" type="line"/>
      <point x="63" y="489" type="line"/>
    </contour>
    <contour>
      <point x="63" y="225" type="line"/>
      <point x="496" y="225" type="line"/>
      <point x="496" y="295" type="line"/>
      <point x="63" y="295" type="line"/>
    </contour>
  </outline>
</glyph>
<glyph name="question" format="2">
  <advance width="535"/>
  <unicode hex="003F"/>
  <outline>
    <contour>
      <point x="199" y="228" type="line"/>
      <point x="265" y="228" type="line"/>
      <point x="299" y="317" type="line"/>
      <point x="441" y="368"/>
      <point x="548" y="442"/>
      <point x="548" y="558" type="curve" smooth="yes"/>
      <point x="548" y="673"/>
      <point x="465" y="724"/>
      <point x="332" y="724" type="curve" smooth="yes"/>
      <point x="190" y="724"/>
      <point x="101" y="666"/>
      <point x="101" y="594" type="curve" smooth="yes"/>
      <point x="101" y="543"/>
      <point x="142" y="517"/>
      <point x="224" y="517" type="curve"/>
      <point x="233" y="593"/>
      <point x="257" y="663"/>
      <point x="320" y="663" type="curve" smooth="yes"/>
      <point x="361" y="663"/>
      <point x="392" y="626"/>
      <point x="392" y="560" type="curve" smooth="yes"/>
      <point x="392" y="451"/>
      <point x="315" y="395"/>
      <point x="197" y="352" type="curve"/>
    </contour>
    <contour>
      <point x="207" y="-8" type="curve" smooth="yes"/>
      <point x="249" y="-8"/>
      <point x="294" y="15"/>
      <point x="294" y="82" type="curve" smooth="yes"/>
      <point x="294" y="131"/>
      <point x="259" y="154"/>
      <point x="213" y="154" type="curve" smooth="yes"/>
      <point x="160" y="154"/>
      <point x="126" y="118"/>
      <point x="126" y="64" type="curve" smooth="yes"/>
      <point x="126" y="15"/>
      <point x="159" y="-8"/>
    </contour>
  </outline>
</glyph>
<glyph name="bracketright" format="2">
  <advance width="414"/>
  <unicode hex="005D"/>
  <outline>
    <contour>
      <point x="-53" y="-128" type="line"/>
      <point x="223" y="-128" type="line"/>
      <point x="412" y="760" type="line"/>
      <point x="135" y="760" type="line"/>
      <point x="124" y="707" type="line"/>
      <point x="167" y="707" type="line" smooth="yes"/>
      <point x="205" y="707"/>
      <point x="236" y="701"/>
      <point x="236" y="660" type="curve" smooth="yes"/>
      <point x="236" y="653"/>
      <point x="235" y="645"/>
      <point x="233" y="635" type="curve" smooth="yes"/>
      <point x="98" y="-3" type="line" smooth="yes"/>
      <point x="85" y="-66"/>
      <point x="45" y="-75"/>
      <point x="1" y="-75" type="curve" smooth="yes"/>
      <point x="-42" y="-75" type="line"/>
    </contour>
  </outline>
</glyph>
<glyph name="asciicircum" format="2">
  <advance width="559"/>
  <unicode hex="005E"/>
  <outline>
    <contour>
      <point x="46" y="262" type="line"/>
      <point x="124" y="262" type="line"/>
      <point x="278" y="605" type="line"/>
      <point x="434" y="262" type="line"/>
      <point x="512" y="262" type="line"/>
      <point x="300" y="714" type="line"/>
      <point x="257" y="714" type="line"/>
    </contour>
  </outline>
</glyph>
<glyph name="underscore" format="2">
  <advance width="459"/>
  <unicode hex="005F"/>
  <outline>
    <contour>
      <point x="-91" y="-142" type="line"/>
      <point x="377" y="-142" type="line"/>
      <point x="390" y="-83" type="line"/>
      <point x="-78" y="-83" type="line"/>
    </contour>
  </outline>
</glyph>
<glyph name="braceleft" format="2">
  <advance width="442"/>
  <unicode hex="007B"/>
  <outline>
    <contour>
      <point x="238" y="-125" type="curve" smooth="yes"/>
      <point x="333" y="-125" type="line"/>
      <point x="345" y="-72" type="line"/>
      <point x="306" y="-72" type="line" smooth="yes"/>
      <point x="265" y="-72"/>
      <point x="250" y="-53"/>
      <point x="250" y="-19" type="curve" smooth="yes"/>
      <point x="250" y="-6"/>
      <point x="251" y="9"/>
      <point x="255" y="26" type="curve" smooth="yes"/>
      <point x="292" y="197" type="line" smooth="yes"/>
      <point x="294" y="207"/>
      <point x="295" y="216"/>
      <point x="295" y="225" type="curve" smooth="yes"/>
      <point x="295" y="269"/>
      <point x="267" y="299"/>
      <point x="207" y="315" type="curve"/>
      <point x="209" y="323" type="line"/>
      <point x="290" y="341"/>
      <point x="330" y="380"/>
      <point x="343" y="440" type="curve" smooth="yes"/>
      <point x="380" y="610" type="line" smooth="yes"/>
      <point x="394" y="673"/>
      <point x="414" y="707"/>
      <point x="471" y="707" type="curve" smooth="yes"/>
      <point x="510" y="707" type="line"/>
      <point x="521" y="760" type="line"/>
      <point x="426" y="760" type="line" smooth="yes"/>
      <point x="298" y="760"/>
      <point x="245" y="714"/>
      <point x="224" y="614" type="curve" smooth="yes"/>
      <point x="188" y="442" type="line" smooth="yes"/>
      <point x="172" y="367"/>
      <point x="118" y="351"/>
      <point x="52" y="349" type="curve"/>
      <point x="39" y="288" type="line"/>
      <point x="95" y="286"/>
      <point x="138" y="274"/>
      <point x="138" y="221" type="curve" smooth="yes"/>
      <point x="138" y="213"/>
      <point x="137" y="204"/>
      <point x="135" y="194" type="curve" smooth="yes"/>
      <point x="105" y="54" type="line" smooth="yes"/>
      <point x="96" y="10"/>
      <point x="95" y="-4"/>
      <point x="95" y="-16" type="curve" smooth="yes"/>
      <point x="95" y="-84"/>
      <point x="143" y="-125"/>
    </contour>
  </outline>
</glyph>
<glyph name="bar" format="2">
  <advance width="559"/>
  <unicode hex="007C"/>
  <outline>
    <contour>
      <point x="243" y="-240" type="line"/>
      <point x="315" y="-240" type="line"/>
      <point x="315" y="760" type="line"/>
      <point x="243" y="760" type="line"/>
    </contour>
  </outline>
</glyph>
<glyph name="braceright" format="2">
  <advance width="442"/>
  <unicode hex="007D"/>
  <outline>
    <contour>
      <point x="-54" y="-124" type="line"/>
      <point x="41" y="-124" type="line" smooth="yes"/>
      <point x="169" y="-124"/>
      <point x="222" y="-78"/>
      <point x="243" y="22" type="curve" smooth="yes"/>
      <point x="279" y="194" type="line" smooth="yes"/>
      <point x="295" y="269"/>
      <point x="349" y="285"/>
      <point x="415" y="287" type="curve"/>
      <point x="428" y="348" type="line"/>
      <point x="372" y="350"/>
      <point x="329" y="362"/>
      <point x="329" y="415" type="curve" smooth="yes"/>
      <point x="329" y="423"/>
      <point x="330" y="432"/>
      <point x="332" y="442" type="curve" smooth="yes"/>
      <point x="362" y="582" type="line" smooth="yes"/>
      <point x="371" y="626"/>
      <point x="372" y="640"/>
      <point x="372" y="652" type="curve" smooth="yes"/>
      <point x="372" y="720"/>
      <point x="324" y="761"/>
      <point x="229" y="761" type="curve" smooth="yes"/>
      <point x="134" y="761" type="line"/>
      <point x="122" y="708" type="line"/>
      <point x="161" y="708" type="line" smooth="yes"/>
      <point x="202" y="708"/>
      <point x="217" y="689"/>
      <point x="217" y="655" type="curve" smooth="yes"/>
      <point x="217" y="642"/>
      <point x="216" y="627"/>
      <point x="212" y="610" type="curve" smooth="yes"/>
      <point x="175" y="439" type="line" smooth="yes"/>
      <point x="173" y="429"/>
      <point x="172" y="420"/>
      <point x="172" y="411" type="curve" smooth="yes"/>
      <point x="172" y="367"/>
      <point x="200" y="337"/>
      <point x="260" y="321" type="curve"/>
      <point x="258" y="313" type="line"/>
      <point x="177" y="295"/>
      <point x="137" y="256"/>
      <point x="124" y="196" type="curve" smooth="yes"/>
      <point x="87" y="26" type="line" smooth="yes"/>
      <point x="73" y="-37"/>
      <point x="53" y="-71"/>
      <point x="-4" y="-71" type="curve" smooth="yes"/>
      <point x="-43" y="-71" type="line"/>
    </contour>
  </outline>
</glyph>
<glyph name="twosuperior" format="2">
  <advance width="400"/>
  <unicode hex="00B2"/>
  <outline>
    <contour>
      <point x="59" y="386" type="line"/>
      <point x="380" y="386" type="line"/>
      <point x="408" y="526" type="line"/>
      <point x="369" y="526" type="line"/>
      <point x="361" y="505" type="line" smooth="yes"/>
      <point x="353" y="483"/>
      <point x="339" y="464"/>
      <point x="308" y="464" type="curve" smooth="yes"/>
      <point x="161" y="464" type="line"/>
      <point x="286" y="554" type="line" smooth="yes"/>
      <point x="399" y="635"/>
      <point x="434" y="678"/>
      <point x="434" y="734" type="curve" smooth="yes"/>
      <point x="434" y="788"/>
      <point x="381" y="824"/>
      <point x="298" y="824" type="curve" smooth="yes"/>
      <point x="201" y="824"/>
      <point x="142" y="785"/>
      <point x="142" y="731" type="curve" smooth="yes"/>
      <point x="142" y="701"/>
      <point x="171" y="680"/>
      <point x="218" y="680" type="curve"/>
      <point x="224" y="732"/>
      <point x="248" y="779"/>
      <point x="285" y="779" type="curve" smooth="yes"/>
      <point x="316" y="779"/>
      <point x="327" y="754"/>
      <point x="327" y="728" type="curve" smooth="yes"/>
      <point x="327" y="672"/>
      <point x="302" y="625"/>
      <point x="221" y="566" type="curve" smooth="yes"/>
      <point x="73" y="458" type="line"/>
    </contour>
  </outline>
</glyph>
<glyph name="threesuperior" format="2">
  <advance width="400"/>
  <unicode hex="00B3"/>
  <outline>
    <contour>
      <point x="214" y="380" type="curve" smooth="yes"/>
      <point x="329" y="380"/>
      <point x="414" y="428"/>
      <point x="414" y="518" type="curve" smooth="yes"/>
      <point x="414" y="573"/>
      <point x="374" y="603"/>
      <point x="313" y="610" type="curve"/>
      <point x="314" y="615" type="line"/>
      <point x="387" y="630"/>
      <point x="440" y="663"/>
      <point x="440" y="733" type="curve" smooth="yes"/>
      <point x="440" y="783"/>
      <point x="396" y="824"/>
      <point x="301" y="824" type="curve" smooth="yes"/>
      <point x="203" y="824"/>
      <point x="144" y="785"/>
      <point x="144" y="738" type="curve" smooth="yes"/>
      <point x="144" y="706"/>
      <point x="176" y="692"/>
      <point x="225" y="692" type="curve"/>
      <point x="232" y="738"/>
      <point x="252" y="779"/>
      <point x="295" y="779" type="curve" smooth="yes"/>
      <point x="321" y="779"/>
      <point x="333" y="760"/>
      <point x="333" y="734" type="curve" smooth="yes"/>
      <point x="333" y="668"/>
      <point x="284" y="630"/>
      <point x="228" y="630" type="curve" smooth="yes"/>
      <point x="194" y="630" type="line"/>
      <point x="186" y="583" type="line"/>
      <point x="219" y="583" type="line" smooth="yes"/>
      <point x="282" y="583"/>
      <point x="310" y="551"/>
      <point x="310" y="514" type="curve" smooth="yes"/>
      <point x="310" y="455"/>
      <point x="271" y="432"/>
      <point x="223" y="432" type="curve" smooth="yes"/>
      <point x="163" y="432"/>
      <point x="141" y="480"/>
      <point x="141" y="518" type="curve"/>
      <point x="99" y="518"/>
      <point x="67" y="497"/>
      <point x="67" y="461" type="curve" smooth="yes"/>
      <point x="67" y="411"/>
      <point x="117" y="380"/>
    </contour>
  </outline>
</glyph>
<glyph name="multiply" format="2">
  <advance width="559"/>
  <unicode hex="00D7"/>
  <outline>
    <contour>
      <point x="132" y="160" type="line"/>
      <point x="279" y="308" type="line"/>
      <point x="427" y="160" type="line"/>
      <point x="477" y="210" type="line"/>
      <point x="329" y="358" type="line"/>
      <point x="477" y="506" type="line"/>
      <point x="426" y="557" type="line"/>
      <point x="279" y="409" type="line"/>
      <point x="132" y="556" type="line"/>
      <point x="81" y="506" type="line"/>
      <point x="228" y="359" type="line"/>
      <point x="81" y="211" type="line"/>
    </contour>
  </outline>
</glyph>
<glyph name="udatta-deva" format="2">
  <unicode hex="0951"/>
  <anchor x="61" y="563" name="_vedic"/>
  <outline>
    <contour>
      <point x="100" y="930" type="line"/>
      <point x="178" y="930" type="line"/>
      <point x="222" y="1135" type="line"/>
      <point x="143" y="1135" type="line"/>
    </contour>
  </outline>
</glyph>
<glyph name="anudatta-deva" format="2">
  <unicode hex="0952"/>
  <anchor x="-59" y="0" name="_bottom"/>
  <outline>
    <contour>
      <point x="-370" y="-597" type="line"/>
      <point x="-1" y="-597" type="line"/>
      <point x="18" y="-506" type="line"/>
      <point x="-351" y="-506" type="line"/>
    </contour>
  </outline>
</glyph>
<glyph name="anusvara-tamil" format="2">
  <unicode hex="0B82"/>
  <note>
uni0B82
</note>
  <anchor x="61" y="563" name="_top"/>
  <outline>
    <contour>
      <point x="103" y="620" type="curve" smooth="yes"/>
      <point x="182" y="620"/>
      <point x="246" y="681"/>
      <point x="246" y="763" type="curve" smooth="yes"/>
      <point x="246" y="845"/>
      <point x="182" y="906"/>
      <point x="103" y="906" type="curve" smooth="yes"/>
      <point x="24" y="906"/>
      <point x="-40" y="845"/>
      <point x="-40" y="763" type="curve" smooth="yes"/>
      <point x="-40" y="681"/>
      <point x="24" y="620"/>
    </contour>
    <contour>
      <point x="103" y="697" type="curve" smooth="yes"/>
      <point x="69" y="697"/>
      <point x="40" y="726"/>
      <point x="40" y="763" type="curve" smooth="yes"/>
      <point x="40" y="799"/>
      <point x="69" y="828"/>
      <point x="103" y="828" type="curve" smooth="yes"/>
      <point x="137" y="828"/>
      <point x="166" y="799"/>
      <point x="166" y="763" type="curve" smooth="yes"/>
      <point x="166" y="726"/>
      <point x="137" y="697"/>
    </contour>
  </outline>
</glyph>
<glyph name="visarga-tamil" format="2">
  <advance width="922"/>
  <unicode hex="0B83"/>
  <note>
uni0B83
</note>
  <outline>
    <contour>
      <point x="181" y="-5" type="curve" smooth="yes"/>
      <point x="307" y="-5"/>
      <point x="396" y="82"/>
      <point x="396" y="211" type="curve" smooth="yes"/>
      <point x="396" y="316"/>
      <point x="331" y="373"/>
      <point x="227" y="373" type="curve" smooth="yes"/>
      <point x="111" y="373"/>
      <point x="26" y="283"/>
      <point x="26" y="155" type="curve" smooth="yes"/>
      <point x="26" y="69"/>
      <point x="74" y="-5"/>
    </contour>
    <contour>
      <point x="167" y="52" type="curve" smooth="yes"/>
      <point x="114" y="52"/>
      <point x="92" y="98"/>
      <point x="92" y="157" type="curve" smooth="yes"/>
      <point x="92" y="244"/>
      <point x="139" y="316"/>
      <point x="207" y="316" type="curve" smooth="yes"/>
      <point x="257" y="316"/>
      <point x="283" y="286"/>
      <point x="283" y="220" type="curve" smooth="yes"/>
      <point x="283" y="121"/>
      <point x="240" y="52"/>
    </contour>
    <contour>
      <point x="645" y="-5" type="curve" smooth="yes"/>
      <point x="771" y="-5"/>
      <point x="860" y="82"/>
      <point x="860" y="211" type="curve" smooth="yes"/>
      <point x="860" y="316"/>
      <point x="795" y="373"/>
      <point x="691" y="373" type="curve" smooth="yes"/>
      <point x="575" y="373"/>
      <point x="490" y="283"/>
      <point x="490" y="155" type="curve" smooth="yes"/>
      <point x="490" y="69"/>
      <point x="538" y="-5"/>
    </contour>
    <contour>
      <point x="631" y="52" type="curve" smooth="yes"/>
      <point x="578" y="52"/>
      <point x="556" y="98"/>
      <point x="556" y="157" type="curve" smooth="yes"/>
      <point x="556" y="244"/>
      <point x="603" y="316"/>
      <point x="671" y="316" type="curve" smooth="yes"/>
      <point x="721" y="316"/>
      <point x="747" y="286"/>
      <point x="747" y="220" type="curve" smooth="yes"/>
      <point x="747" y="121"/>
      <point x="704" y="52"/>
    </contour>
    <contour>
      <point x="498" y="438" type="curve" smooth="yes"/>
      <point x="624" y="438"/>
      <point x="713" y="525"/>
      <point x="713" y="654" type="curve" smooth="yes"/>
      <point x="713" y="759"/>
      <point x="648" y="816"/>
      <point x="544" y="816" type="curve" smooth="yes"/>
      <point x="428" y="816"/>
      <point x="343" y="726"/>
      <point x="343" y="598" type="curve" smooth="yes"/>
      <point x="343" y="512"/>
      <point x="391" y="438"/>
    </contour>
    <contour>
      <point x="484" y="495" type="curve" smooth="yes"/>
      <point x="431" y="495"/>
      <point x="409" y="541"/>
      <point x="409" y="600" type="curve" smooth="yes"/>
      <point x="409" y="687"/>
      <point x="456" y="759"/>
      <point x="524" y="759" type="curve" smooth="yes"/>
      <point x="574" y="759"/>
      <point x="600" y="729"/>
      <point x="600" y="663" type="curve" smooth="yes"/>
      <point x="600" y="564"/>
      <point x="557" y="495"/>
    </contour>
  </outline>
</glyph>
<glyph name="aa-tamil" format="2">
  <advance width="1570"/>
  <unicode hex="0B86"/>
  <note>
uni0B86
</note>
  <anchor x="721" y="0" name="bottom"/>
  <anchor x="369" y="-151" name="nukta"/>
  <anchor x="837" y="563" name="top"/>
  <anchor x="838" y="563" name="vedic"/>
  <outline>
    <contour>
      <point x="927" y="-460" type="curve" smooth="yes"/>
      <point x="1219" y="-460"/>
      <point x="1470" y="-306"/>
      <point x="1470" y="-63" type="curve" smooth="yes"/>
      <point x="1470" y="36"/>
      <point x="1414" y="84"/>
      <point x="1338" y="84" type="curve" smooth="yes"/>
      <point x="1255" y="84"/>
      <point x="1186" y="26"/>
      <point x="1147" y="-101" type="curve"/>
      <point x="1175" y="-108" type="line"/>
      <point x="1188" y="-47"/>
      <point x="1229" y="-25"/>
      <point x="1261" y="-25" type="curve" smooth="yes"/>
      <point x="1298" y="-25"/>
      <point x="1322" y="-48"/>
      <point x="1322" y="-93" type="curve" smooth="yes"/>
      <point x="1322" y="-255"/>
      <point x="1140" y="-399"/>
      <point x="927" y="-399" type="curve" smooth="yes"/>
      <point x="823" y="-399"/>
      <point x="751" y="-365"/>
      <point x="751" y="-293" type="curve" smooth="yes"/>
      <point x="751" y="-235"/>
      <point x="807" y="-202"/>
      <point x="882" y="-189" type="curve"/>
      <point x="874" y="-129" type="line"/>
      <point x="765" y="-149"/>
      <point x="688" y="-208"/>
      <point x="688" y="-302" type="curve" smooth="yes"/>
      <point x="688" y="-401"/>
      <point x="783" y="-460"/>
    </contour>
    <component base="a-tamil"/>
  </outline>
</glyph>
<glyph name="i-tamil" format="2">
  <advance width="1054"/>
  <unicode hex="0B87"/>
  <note>
uni0B87
</note>
  <anchor x="451" y="0" name="bottom"/>
  <anchor x="389" y="-280" name="nukta"/>
  <anchor x="591" y="863" name="top"/>
  <anchor x="576" y="563" name="vedic"/>
  <outline>
    <contour>
      <point x="124" y="-325" type="curve" smooth="yes"/>
      <point x="483" y="-325"/>
      <point x="820" y="-28"/>
      <point x="820" y="307" type="curve" smooth="yes"/>
      <point x="820" y="491"/>
      <point x="694" y="568"/>
      <point x="533" y="568" type="curve" smooth="yes"/>
      <point x="388" y="568"/>
      <point x="267" y="491"/>
      <point x="267" y="362" type="curve" smooth="yes"/>
      <point x="267" y="292"/>
      <point x="320" y="229"/>
      <point x="410" y="229" type="curve" smooth="yes"/>
      <point x="512" y="229"/>
      <point x="588" y="284"/>
      <point x="588" y="380" type="curve" smooth="yes"/>
      <point x="588" y="450"/>
      <point x="535" y="512"/>
      <point x="441" y="527" type="curve"/>
      <point x="400" y="521" type="line"/>
      <point x="442" y="496"/>
      <point x="476" y="456"/>
      <point x="476" y="403" type="curve" smooth="yes"/>
      <point x="476" y="351"/>
      <point x="448" y="313"/>
      <point x="394" y="313" type="curve" smooth="yes"/>
      <point x="357" y="313"/>
      <point x="333" y="337"/>
      <point x="333" y="374" type="curve" smooth="yes"/>
      <point x="333" y="455"/>
      <point x="414" y="507"/>
      <point x="515" y="507" type="curve" smooth="yes"/>
      <point x="617" y="507"/>
      <point x="663" y="432"/>
      <point x="663" y="314" type="curve" smooth="yes"/>
      <point x="663" y="21"/>
      <point x="430" y="-263"/>
      <point x="137" y="-263" type="curve" smooth="yes"/>
      <point x="66" y="-263"/>
      <point x="16" y="-235"/>
      <point x="16" y="-169" type="curve" smooth="yes"/>
      <point x="16" y="-22"/>
      <point x="251" y="46"/>
      <point x="440" y="46" type="curve" smooth="yes"/>
      <point x="621" y="46"/>
      <point x="816" y="-17"/>
      <point x="816" y="-145" type="curve" smooth="yes"/>
      <point x="816" y="-232"/>
      <point x="750" y="-263"/>
      <point x="654" y="-263" type="curve" smooth="yes"/>
      <point x="397" y="-263"/>
      <point x="138" y="21"/>
      <point x="138" y="296" type="curve" smooth="yes"/>
      <point x="138" y="552"/>
      <point x="306" y="741"/>
      <point x="576" y="741" type="curve" smooth="yes"/>
      <point x="797" y="741"/>
      <point x="943" y="618"/>
      <point x="943" y="404" type="curve" smooth="yes"/>
      <point x="943" y="366"/>
      <point x="938" y="325"/>
      <point x="929" y="282" type="curve" smooth="yes"/>
      <point x="890" y="104" type="line"/>
      <point x="959" y="104" type="line"/>
      <point x="1000" y="292" type="line" smooth="yes"/>
      <point x="1012" y="348"/>
      <point x="1018" y="401"/>
      <point x="1018" y="450" type="curve" smooth="yes"/>
      <point x="1018" y="706"/>
      <point x="858" y="863"/>
      <point x="591" y="863" type="curve" smooth="yes"/>
      <point x="268" y="863"/>
      <point x="76" y="637"/>
      <point x="76" y="315" type="curve" smooth="yes"/>
      <point x="76" y="-17"/>
      <point x="346" y="-324"/>
      <point x="669" y="-324" type="curve" smooth="yes"/>
      <point x="790" y="-324"/>
      <point x="884" y="-267"/>
      <point x="884" y="-141" type="curve" smooth="yes"/>
      <point x="884" y="26"/>
      <point x="671" y="107"/>
      <point x="450" y="107" type="curve" smooth="yes"/>
      <point x="208" y="107"/>
      <point x="-55" y="19"/>
      <point x="-55" y="-184" type="curve" smooth="yes"/>
      <point x="-55" y="-274"/>
      <point x="17" y="-325"/>
    </contour>
  </outline>
</glyph>
<glyph name="uu-tamil" format="2">
  <advance width="1756"/>
  <unicode hex="0B8A"/>
  <note>
uni0B8A
</note>
  <anchor x="849" y="0" name="bottom"/>
  <anchor x="849" y="0" name="nukta"/>
  <anchor x="971" y="563" name="top"/>
  <anchor x="971" y="563" name="vedic"/>
  <outline>
    <contour>
      <point x="86" y="0" type="curve" smooth="yes"/>
      <point x="1639" y="0" type="line"/>
      <point x="1652" y="61" type="line"/>
      <point x="97" y="61" type="line" smooth="yes"/>
      <point x="80" y="61"/>
      <point x="62" y="71"/>
      <point x="62" y="92" type="curve" smooth="yes"/>
      <point x="62" y="113"/>
      <point x="79" y="129"/>
      <point x="104" y="129" type="curve" smooth="yes"/>
      <point x="376" y="129" type="line" smooth="yes"/>
      <point x="566" y="129"/>
      <point x="717" y="199"/>
      <point x="717" y="366" type="curve" smooth="yes"/>
      <point x="717" y="499"/>
      <point x="592" y="568"/>
      <point x="428" y="568" type="curve" smooth="yes"/>
      <point x="253" y="568"/>
      <point x="139" y="479"/>
      <point x="139" y="367" type="curve" smooth="yes"/>
      <point x="139" y="298"/>
      <point x="190" y="236"/>
      <point x="285" y="236" type="curve" smooth="yes"/>
      <point x="406" y="236"/>
      <point x="463" y="306"/>
      <point x="463" y="381" type="curve" smooth="yes"/>
      <point x="463" y="443"/>
      <point x="415" y="504"/>
      <point x="340" y="517" type="curve"/>
      <point x="289" y="512" type="line"/>
      <point x="331" y="489"/>
      <point x="359" y="450"/>
      <point x="359" y="402" type="curve" smooth="yes"/>
      <point x="359" y="346"/>
      <point x="323" y="312"/>
      <point x="276" y="312" type="curve" smooth="yes"/>
      <point x="238" y="312"/>
      <point x="214" y="345"/>
      <point x="214" y="381" type="curve" smooth="yes"/>
      <point x="214" y="432"/>
      <point x="256" y="506"/>
      <point x="410" y="506" type="curve" smooth="yes"/>
      <point x="499" y="506"/>
      <point x="561" y="462"/>
      <point x="561" y="374" type="curve" smooth="yes"/>
      <point x="561" y="259"/>
      <point x="484" y="188"/>
      <point x="361" y="188" type="curve" smooth="yes"/>
      <point x="118" y="188" type="line" smooth="yes"/>
      <point x="43" y="188"/>
      <point x="-3" y="148"/>
      <point x="-3" y="87" type="curve" smooth="yes"/>
      <point x="-3" y="38"/>
      <point x="30" y="0"/>
    </contour>
    <contour>
      <point x="974" y="124" type="curve" smooth="yes"/>
      <point x="1080" y="124"/>
      <point x="1150" y="179"/>
      <point x="1150" y="271" type="curve" smooth="yes"/>
      <point x="1150" y="348"/>
      <point x="1092" y="391"/>
      <point x="1018" y="391" type="curve" smooth="yes"/>
      <point x="917" y="391"/>
      <point x="858" y="323"/>
      <point x="828" y="222" type="curve"/>
      <point x="861" y="205" type="line"/>
      <point x="885" y="270"/>
      <point x="916" y="330"/>
      <point x="977" y="330" type="curve" smooth="yes"/>
      <point x="1014" y="330"/>
      <point x="1040" y="307"/>
      <point x="1040" y="265" type="curve" smooth="yes"/>
      <point x="1040" y="216"/>
      <point x="1004" y="187"/>
      <point x="951" y="187" type="curve" smooth="yes"/>
      <point x="893" y="187"/>
      <point x="848" y="233"/>
      <point x="848" y="305" type="curve" smooth="yes"/>
      <point x="848" y="428"/>
      <point x="927" y="507"/>
      <point x="1051" y="507" type="curve" smooth="yes"/>
      <point x="1159" y="507"/>
      <point x="1240" y="442"/>
      <point x="1218" y="322" type="curve"/>
      <point x="1285" y="322" type="line"/>
      <point x="1310" y="478"/>
      <point x="1208" y="568"/>
      <point x="1059" y="568" type="curve" smooth="yes"/>
      <point x="900" y="568"/>
      <point x="781" y="463"/>
      <point x="781" y="306" type="curve" smooth="yes"/>
      <point x="781" y="202"/>
      <point x="859" y="124"/>
    </contour>
    <contour>
      <point x="1176" y="125" type="line"/>
      <point x="1307" y="125" type="line"/>
      <point x="1388" y="502" type="line"/>
      <point x="1529" y="502" type="line"/>
      <point x="1449" y="125" type="line"/>
      <point x="1581" y="125" type="line"/>
      <point x="1661" y="502" type="line"/>
      <point x="1746" y="502" type="line"/>
      <point x="1759" y="563" type="line"/>
      <point x="1302" y="563" type="line"/>
      <point x="1260" y="366" type="line"/>
      <point x="1227" y="366" type="line"/>
    </contour>
  </outline>
</glyph>
<glyph name="e-tamil" format="2">
  <advance width="970"/>
  <unicode hex="0B8E"/>
  <note>
uni0B8E
</note>
  <anchor x="463" y="0" name="bottom"/>
  <anchor x="464" y="0" name="nukta"/>
  <anchor x="584" y="563" name="top"/>
  <anchor x="585" y="563" name="vedic"/>
  <outline>
    <contour>
      <point x="273" y="-5" type="curve" smooth="yes"/>
      <point x="384" y="-5"/>
      <point x="479" y="60"/>
      <point x="479" y="182" type="curve" smooth="yes"/>
      <point x="479" y="271"/>
      <point x="412" y="323"/>
      <point x="328" y="323" type="curve" smooth="yes"/>
      <point x="224" y="323"/>
      <point x="148" y="253"/>
      <point x="105" y="106" type="curve"/>
      <point x="143" y="87" type="line"/>
      <point x="169" y="194"/>
      <point x="223" y="244"/>
      <point x="276" y="244" type="curve" smooth="yes"/>
      <point x="330" y="244"/>
      <point x="349" y="203"/>
      <point x="349" y="166" type="curve" smooth="yes"/>
      <point x="349" y="114"/>
      <point x="321" y="61"/>
      <point x="247" y="61" type="curve" smooth="yes"/>
      <point x="168" y="61"/>
      <point x="117" y="142"/>
      <point x="117" y="227" type="curve" smooth="yes"/>
      <point x="117" y="402"/>
      <point x="237" y="502"/>
      <point x="443" y="502" type="curve" smooth="yes"/>
      <point x="695" y="502" type="line"/>
      <point x="588" y="0" type="line"/>
      <point x="746" y="0" type="line"/>
      <point x="852" y="502" type="line"/>
      <point x="1001" y="502" type="line"/>
      <point x="1014" y="563" type="line"/>
      <point x="447" y="563" type="line" smooth="yes"/>
      <point x="206" y="563"/>
      <point x="55" y="432"/>
      <point x="55" y="223" type="curve" smooth="yes"/>
      <point x="55" y="103"/>
      <point x="132" y="-5"/>
    </contour>
  </outline>
</glyph>
<glyph name="ai-tamil" format="2">
  <advance width="1083"/>
  <unicode hex="0B90"/>
  <note>
uni0B90
</note>
  <anchor x="484" y="0" name="bottom"/>
  <anchor x="415" y="-324" name="nukta"/>
  <anchor x="619" y="563" name="top"/>
  <anchor x="620" y="563" name="vedic"/>
  <outline>
    <contour>
      <point x="212" y="-324" type="curve" smooth="yes"/>
      <point x="325" y="-324"/>
      <point x="433" y="-283"/>
      <point x="473" y="-158" type="curve"/>
      <point x="468" y="-226"/>
      <point x="520" y="-324"/>
      <point x="690" y="-324" type="curve" smooth="yes"/>
      <point x="843" y="-324"/>
      <point x="953" y="-231"/>
      <point x="953" y="-83" type="curve" smooth="yes"/>
      <point x="953" y="-28"/>
      <point x="942" y="12"/>
      <point x="921" y="60" type="curve"/>
      <point x="865" y="33" type="line"/>
      <point x="881" y="-6"/>
      <point x="890" y="-38"/>
      <point x="890" y="-78" type="curve" smooth="yes"/>
      <point x="890" y="-195"/>
      <point x="801" y="-263"/>
      <point x="688" y="-263" type="curve" smooth="yes"/>
      <point x="588" y="-263"/>
      <point x="554" y="-180"/>
      <point x="575" y="-72" type="curve" smooth="yes"/>
      <point x="583" y="-30" type="line"/>
      <point x="422" y="-30" type="line"/>
      <point x="408" y="-97" type="line" smooth="yes"/>
      <point x="382" y="-222"/>
      <point x="314" y="-263"/>
      <point x="240" y="-263" type="curve" smooth="yes"/>
      <point x="173" y="-263"/>
      <point x="133" y="-221"/>
      <point x="133" y="-147" type="curve" smooth="yes"/>
      <point x="133" y="33"/>
      <point x="317" y="55"/>
      <point x="553" y="79" type="curve" smooth="yes"/>
      <point x="842" y="108"/>
      <point x="1051" y="166"/>
      <point x="1051" y="391" type="curve" smooth="yes"/>
      <point x="1051" y="509"/>
      <point x="962" y="569"/>
      <point x="834" y="569" type="curve" smooth="yes"/>
      <point x="721" y="569"/>
      <point x="643" y="520"/>
      <point x="599" y="428" type="curve"/>
      <point x="575" y="520"/>
      <point x="487" y="569"/>
      <point x="359" y="569" type="curve" smooth="yes"/>
      <point x="207" y="569"/>
      <point x="74" y="481"/>
      <point x="74" y="327" type="curve" smooth="yes"/>
      <point x="74" y="229"/>
      <point x="141" y="159"/>
      <point x="243" y="159" type="curve" smooth="yes"/>
      <point x="332" y="159"/>
      <point x="420" y="203"/>
      <point x="420" y="298" type="curve" smooth="yes"/>
      <point x="420" y="369"/>
      <point x="369" y="410"/>
      <point x="295" y="410" type="curve" smooth="yes"/>
      <point x="217" y="410"/>
      <point x="145" y="370"/>
      <point x="107" y="240" type="curve"/>
      <point x="143" y="223" type="line"/>
      <point x="166" y="311"/>
      <point x="212" y="351"/>
      <point x="256" y="351" type="curve" smooth="yes"/>
      <point x="296" y="351"/>
      <point x="316" y="327"/>
      <point x="316" y="293" type="curve" smooth="yes"/>
      <point x="316" y="245"/>
      <point x="279" y="221"/>
      <point x="232" y="221" type="curve" smooth="yes"/>
      <point x="180" y="221"/>
      <point x="137" y="263"/>
      <point x="137" y="333" type="curve" smooth="yes"/>
      <point x="137" y="446"/>
      <point x="232" y="507"/>
      <point x="349" y="507" type="curve" smooth="yes"/>
      <point x="460" y="507"/>
      <point x="521" y="448"/>
      <point x="500" y="352" type="curve" smooth="yes"/>
      <point x="471" y="217" type="line"/>
      <point x="632" y="217" type="line"/>
      <point x="668" y="384" type="line" smooth="yes"/>
      <point x="686" y="468"/>
      <point x="731" y="507"/>
      <point x="794" y="507" type="curve" smooth="yes"/>
      <point x="853" y="507"/>
      <point x="892" y="473"/>
      <point x="892" y="404" type="curve" smooth="yes"/>
      <point x="892" y="194"/>
      <point x="749" y="157"/>
      <point x="445" y="124" type="curve" smooth="yes"/>
      <point x="195" y="97"/>
      <point x="-26" y="57"/>
      <point x="-26" y="-136" type="curve" smooth="yes"/>
      <point x="-26" y="-248"/>
      <point x="73" y="-324"/>
    </contour>
  </outline>
</glyph>
<glyph name="o-tamil" format="2">
  <advance width="1069"/>
  <unicode hex="0B92"/>
  <note>
uni0B92
</note>
  <anchor x="484" y="0" name="bottom"/>
  <anchor x="411" y="-335" name="nukta"/>
  <anchor x="567" y="563" name="top"/>
  <anchor x="567" y="563" name="vedic"/>
  <outline>
    <contour>
      <point x="262" y="-380" type="curve" smooth="yes"/>
      <point x="520" y="-380"/>
      <point x="572" y="-162"/>
      <point x="754" y="-162" type="curve" smooth="yes"/>
      <point x="817" y="-162" type="line"/>
      <point x="831" y="-96" type="line"/>
      <point x="739" y="-96" type="line" smooth="yes"/>
      <point x="622" y="-96"/>
      <point x="556" y="-20"/>
      <point x="556" y="68" type="curve" smooth="yes"/>
      <point x="556" y="122"/>
      <point x="581" y="181"/>
      <point x="635" y="229" type="curve"/>
      <point x="640" y="226" type="line"/>
      <point x="617" y="187"/>
      <point x="606" y="149"/>
      <point x="606" y="116" type="curve" smooth="yes"/>
      <point x="606" y="45"/>
      <point x="657" y="-5"/>
      <point x="756" y="-5" type="curve" smooth="yes"/>
      <point x="902" y="-5"/>
      <point x="1008" y="94"/>
      <point x="1008" y="245" type="curve" smooth="yes"/>
      <point x="1008" y="451"/>
      <point x="801" y="568"/>
      <point x="545" y="568" type="curve" smooth="yes"/>
      <point x="262" y="568"/>
      <point x="50" y="416"/>
      <point x="50" y="213" type="curve" smooth="yes"/>
      <point x="50" y="93"/>
      <point x="117" y="-5"/>
      <point x="258" y="-5" type="curve" smooth="yes"/>
      <point x="369" y="-5"/>
      <point x="466" y="60"/>
      <point x="466" y="182" type="curve" smooth="yes"/>
      <point x="466" y="271"/>
      <point x="401" y="323"/>
      <point x="317" y="323" type="curve" smooth="yes"/>
      <point x="213" y="323"/>
      <point x="134" y="253"/>
      <point x="91" y="106" type="curve"/>
      <point x="129" y="87" type="line"/>
      <point x="155" y="194"/>
      <point x="212" y="244"/>
      <point x="265" y="244" type="curve" smooth="yes"/>
      <point x="319" y="244"/>
      <point x="336" y="203"/>
      <point x="336" y="166" type="curve" smooth="yes"/>
      <point x="336" y="114"/>
      <point x="306" y="61"/>
      <point x="232" y="61" type="curve" smooth="yes"/>
      <point x="153" y="61"/>
      <point x="112" y="132"/>
      <point x="112" y="217" type="curve" smooth="yes"/>
      <point x="112" y="387"/>
      <point x="304" y="507"/>
      <point x="532" y="507" type="curve" smooth="yes"/>
      <point x="731" y="507"/>
      <point x="863" y="406"/>
      <point x="863" y="260" type="curve" smooth="yes"/>
      <point x="863" y="148"/>
      <point x="815" y="61"/>
      <point x="727" y="61" type="curve" smooth="yes"/>
      <point x="685" y="61"/>
      <point x="666" y="90"/>
      <point x="666" y="130" type="curve" smooth="yes"/>
      <point x="666" y="174"/>
      <point x="688" y="231"/>
      <point x="726" y="276" type="curve"/>
      <point x="675" y="322" type="line"/>
      <point x="571" y="260"/>
      <point x="506" y="151"/>
      <point x="506" y="52" type="curve" smooth="yes"/>
      <point x="506" y="-13"/>
      <point x="533" y="-73"/>
      <point x="594" y="-115" type="curve"/>
      <point x="593" y="-120" type="line"/>
      <point x="452" y="-137"/>
      <point x="372" y="-312"/>
      <point x="229" y="-312" type="curve" smooth="yes"/>
      <point x="170" y="-312"/>
      <point x="143" y="-275"/>
      <point x="143" y="-234" type="curve" smooth="yes"/>
      <point x="143" y="-185"/>
      <point x="171" y="-158"/>
      <point x="226" y="-125" type="curve"/>
      <point x="200" y="-81" type="line"/>
      <point x="131" y="-123"/>
      <point x="88" y="-167"/>
      <point x="88" y="-240" type="curve" smooth="yes"/>
      <point x="88" y="-313"/>
      <point x="149" y="-380"/>
    </contour>
  </outline>
</glyph>
<glyph name="oo-tamil" format="2">
  <advance width="1069"/>
  <unicode hex="0B93"/>
  <note>
uni0B93
</note>
  <anchor x="465" y="0" name="bottom"/>
  <anchor x="387" y="-359" name="nukta"/>
  <anchor x="567" y="563" name="top"/>
  <anchor x="567" y="563" name="vedic"/>
  <outline>
    <contour>
      <point x="216" y="-410" type="curve" smooth="yes"/>
      <point x="482" y="-410"/>
      <point x="572" y="-162"/>
      <point x="754" y="-162" type="curve" smooth="yes"/>
      <point x="803" y="-162" type="line"/>
      <point x="817" y="-96" type="line"/>
      <point x="739" y="-96" type="line" smooth="yes"/>
      <point x="622" y="-96"/>
      <point x="556" y="-20"/>
      <point x="556" y="68" type="curve" smooth="yes"/>
      <point x="556" y="122"/>
      <point x="581" y="181"/>
      <point x="635" y="229" type="curve"/>
      <point x="640" y="226" type="line"/>
      <point x="617" y="187"/>
      <point x="606" y="149"/>
      <point x="606" y="116" type="curve" smooth="yes"/>
      <point x="606" y="45"/>
      <point x="657" y="-5"/>
      <point x="756" y="-5" type="curve" smooth="yes"/>
      <point x="902" y="-5"/>
      <point x="1008" y="94"/>
      <point x="1008" y="245" type="curve" smooth="yes"/>
      <point x="1008" y="451"/>
      <point x="801" y="568"/>
      <point x="545" y="568" type="curve" smooth="yes"/>
      <point x="262" y="568"/>
      <point x="50" y="416"/>
      <point x="50" y="213" type="curve" smooth="yes"/>
      <point x="50" y="93"/>
      <point x="117" y="-5"/>
      <point x="258" y="-5" type="curve" smooth="yes"/>
      <point x="369" y="-5"/>
      <point x="466" y="60"/>
      <point x="466" y="182" type="curve" smooth="yes"/>
      <point x="466" y="271"/>
      <point x="401" y="323"/>
      <point x="317" y="323" type="curve" smooth="yes"/>
      <point x="213" y="323"/>
      <point x="134" y="253"/>
      <point x="91" y="106" type="curve"/>
      <point x="129" y="87" type="line"/>
      <point x="155" y="194"/>
      <point x="212" y="244"/>
      <point x="265" y="244" type="curve" smooth="yes"/>
      <point x="319" y="244"/>
      <point x="336" y="203"/>
      <point x="336" y="166" type="curve" smooth="yes"/>
      <point x="336" y="114"/>
      <point x="306" y="61"/>
      <point x="232" y="61" type="curve" smooth="yes"/>
      <point x="153" y="61"/>
      <point x="112" y="132"/>
      <point x="112" y="217" type="curve" smooth="yes"/>
      <point x="112" y="387"/>
      <point x="304" y="507"/>
      <point x="532" y="507" type="curve" smooth="yes"/>
      <point x="731" y="507"/>
      <point x="863" y="406"/>
      <point x="863" y="260" type="curve" smooth="yes"/>
      <point x="863" y="148"/>
      <point x="815" y="61"/>
      <point x="727" y="61" type="curve" smooth="yes"/>
      <point x="685" y="61"/>
      <point x="666" y="90"/>
      <point x="666" y="130" type="curve" smooth="yes"/>
      <point x="666" y="174"/>
      <point x="688" y="231"/>
      <point x="726" y="276" type="curve"/>
      <point x="675" y="322" type="line"/>
      <point x="571" y="260"/>
      <point x="506" y="151"/>
      <point x="506" y="52" type="curve" smooth="yes"/>
      <point x="506" y="-13"/>
      <point x="533" y="-73"/>
      <point x="594" y="-115" type="curve"/>
      <point x="593" y="-120" type="line"/>
      <point x="452" y="-137"/>
      <point x="327" y="-345"/>
      <point x="184" y="-345" type="curve" smooth="yes"/>
      <point x="111" y="-345"/>
      <point x="83" y="-302"/>
      <point x="83" y="-252" type="curve" smooth="yes"/>
      <point x="83" y="-199"/>
      <point x="119" y="-158"/>
      <point x="168" y="-158" type="curve" smooth="yes"/>
      <point x="215" y="-158"/>
      <point x="256" y="-184"/>
      <point x="265" y="-246" type="curve"/>
      <point x="324" y="-223"/>
      <point x="358" y="-188"/>
      <point x="358" y="-139" type="curve" smooth="yes"/>
      <point x="358" y="-88"/>
      <point x="307" y="-63"/>
      <point x="242" y="-63" type="curve" smooth="yes"/>
      <point x="118" y="-63"/>
      <point x="25" y="-147"/>
      <point x="25" y="-258" type="curve" smooth="yes"/>
      <point x="25" y="-347"/>
      <point x="94" y="-410"/>
    </contour>
  </outline>
</glyph>
<glyph name="ja-tamil" format="2">
  <advance width="1091"/>
  <unicode hex="0B9C"/>
  <note>
uni0B9C
</note>
  <anchor x="485" y="0" name="bottom"/>
  <anchor x="416" y="-324" name="nukta"/>
  <anchor x="600" y="563" name="top"/>
  <anchor x="595" y="563" name="vedic"/>
  <outline>
    <contour>
      <point x="190" y="-324" type="curve" smooth="yes"/>
      <point x="435" y="-324"/>
      <point x="497" y="-21"/>
      <point x="694" y="-21" type="curve" smooth="yes"/>
      <point x="760" y="-21"/>
      <point x="796" y="-62"/>
      <point x="796" y="-123" type="curve" smooth="yes"/>
      <point x="796" y="-201"/>
      <point x="743" y="-258"/>
      <point x="660" y="-258" type="curve" smooth="yes"/>
      <point x="628" y="-258"/>
      <point x="591" y="-248"/>
      <point x="553" y="-221" type="curve"/>
      <point x="523" y="-261" type="line"/>
      <point x="582" y="-309"/>
      <point x="638" y="-324"/>
      <point x="708" y="-324" type="curve" smooth="yes"/>
      <point x="837" y="-324"/>
      <point x="954" y="-254"/>
      <point x="954" y="-123" type="curve" smooth="yes"/>
      <point x="954" y="-14"/>
      <point x="868" y="43"/>
      <point x="741" y="43" type="curve" smooth="yes"/>
      <point x="461" y="43"/>
      <point x="396" y="-263"/>
      <point x="231" y="-263" type="curve" smooth="yes"/>
      <point x="170" y="-263"/>
      <point x="138" y="-220"/>
      <point x="138" y="-141" type="curve" smooth="yes"/>
      <point x="138" y="39"/>
      <point x="291" y="57"/>
      <point x="552" y="85" type="curve" smooth="yes"/>
      <point x="841" y="116"/>
      <point x="1050" y="166"/>
      <point x="1050" y="391" type="curve" smooth="yes"/>
      <point x="1050" y="509"/>
      <point x="961" y="569"/>
      <point x="833" y="569" type="curve" smooth="yes"/>
      <point x="720" y="569"/>
      <point x="642" y="520"/>
      <point x="598" y="428" type="curve"/>
      <point x="574" y="520"/>
      <point x="486" y="569"/>
      <point x="358" y="569" type="curve" smooth="yes"/>
      <point x="206" y="569"/>
      <point x="73" y="481"/>
      <point x="73" y="327" type="curve" smooth="yes"/>
      <point x="73" y="229"/>
      <point x="140" y="159"/>
      <point x="242" y="159" type="curve" smooth="yes"/>
      <point x="331" y="159"/>
      <point x="419" y="203"/>
      <point x="419" y="298" type="curve" smooth="yes"/>
      <point x="419" y="369"/>
      <point x="368" y="410"/>
      <point x="294" y="410" type="curve" smooth="yes"/>
      <point x="216" y="410"/>
      <point x="144" y="370"/>
      <point x="106" y="240" type="curve"/>
      <point x="142" y="223" type="line"/>
      <point x="165" y="311"/>
      <point x="211" y="351"/>
      <point x="255" y="351" type="curve" smooth="yes"/>
      <point x="295" y="351"/>
      <point x="315" y="327"/>
      <point x="315" y="293" type="curve" smooth="yes"/>
      <point x="315" y="245"/>
      <point x="278" y="221"/>
      <point x="231" y="221" type="curve" smooth="yes"/>
      <point x="179" y="221"/>
      <point x="136" y="263"/>
      <point x="136" y="333" type="curve" smooth="yes"/>
      <point x="136" y="446"/>
      <point x="231" y="507"/>
      <point x="348" y="507" type="curve" smooth="yes"/>
      <point x="459" y="507"/>
      <point x="520" y="448"/>
      <point x="499" y="352" type="curve" smooth="yes"/>
      <point x="470" y="217" type="line"/>
      <point x="631" y="217" type="line"/>
      <point x="667" y="384" type="line" smooth="yes"/>
      <point x="685" y="468"/>
      <point x="731" y="507"/>
      <point x="794" y="507" type="curve" smooth="yes"/>
      <point x="853" y="507"/>
      <point x="891" y="473"/>
      <point x="891" y="404" type="curve" smooth="yes"/>
      <point x="891" y="194"/>
      <point x="748" y="153"/>
      <point x="444" y="120" type="curve" smooth="yes"/>
      <point x="194" y="93"/>
      <point x="-21" y="63"/>
      <point x="-21" y="-130" type="curve" smooth="yes"/>
      <point x="-21" y="-247"/>
      <point x="54" y="-324"/>
    </contour>
  </outline>
</glyph>
<glyph name="nya-tamil" format="2">
  <advance width="1398"/>
  <unicode hex="0B9E"/>
  <note>
uni0B9E
</note>
  <anchor x="676" y="0" name="bottom"/>
  <anchor x="1140" y="563" name="imatra"/>
  <anchor x="594" y="-381" name="nukta"/>
  <anchor x="813" y="563" name="top"/>
  <anchor x="765" y="563" name="vedic"/>
  <outline>
    <contour>
      <point x="594" y="-381" type="curve" smooth="yes"/>
      <point x="1012" y="-381"/>
      <point x="1315" y="-148"/>
      <point x="1315" y="158" type="curve" smooth="yes"/>
      <point x="1315" y="276"/>
      <point x="1259" y="341"/>
      <point x="1157" y="341" type="curve" smooth="yes"/>
      <point x="1063" y="341"/>
      <point x="995" y="266"/>
      <point x="977" y="187" type="curve" smooth="yes"/>
      <point x="969" y="152" type="line"/>
      <point x="998" y="152" type="line"/>
      <point x="1005" y="188" type="line" smooth="yes"/>
      <point x="1012" y="225"/>
      <point x="1041" y="252"/>
      <point x="1079" y="252" type="curve" smooth="yes"/>
      <point x="1123" y="252"/>
      <point x="1150" y="218"/>
      <point x="1150" y="147" type="curve" smooth="yes"/>
      <point x="1150" y="-100"/>
      <point x="945" y="-320"/>
      <point x="597" y="-320" type="curve" smooth="yes"/>
      <point x="287" y="-320"/>
      <point x="97" y="-124"/>
      <point x="97" y="134" type="curve" smooth="yes"/>
      <point x="97" y="337"/>
      <point x="183" y="485"/>
      <point x="367" y="641" type="curve"/>
      <point x="326" y="686" type="line"/>
      <point x="131" y="523"/>
      <point x="31" y="346"/>
      <point x="31" y="127" type="curve" smooth="yes"/>
      <point x="31" y="-157"/>
      <point x="251" y="-381"/>
    </contour>
    <component base="e-tamil" xOffset="220"/>
  </outline>
</glyph>
<glyph name="nna-tamil" format="2">
  <advance width="1870"/>
  <unicode hex="0BA3"/>
  <note>
uni0BA3
</note>
  <anchor x="951" y="0" name="bottom"/>
  <anchor x="1761" y="563" name="imatra"/>
  <anchor x="951" y="0" name="nukta"/>
  <anchor x="1060" y="563" name="top"/>
  <anchor x="1014" y="563" name="vedic"/>
  <outline>
    <contour>
      <point x="731" y="-5" type="curve" smooth="yes"/>
      <point x="847" y="-5"/>
      <point x="950" y="76"/>
      <point x="950" y="221" type="curve" smooth="yes"/>
      <point x="950" y="446"/>
      <point x="747" y="568"/>
      <point x="493" y="568" type="curve" smooth="yes"/>
      <point x="256" y="568"/>
      <point x="52" y="428"/>
      <point x="52" y="223" type="curve" smooth="yes"/>
      <point x="52" y="103"/>
      <point x="129" y="-5"/>
      <point x="270" y="-5" type="curve" smooth="yes"/>
      <point x="381" y="-5"/>
      <point x="476" y="60"/>
      <point x="476" y="182" type="curve" smooth="yes"/>
      <point x="476" y="271"/>
      <point x="409" y="323"/>
      <point x="325" y="323" type="curve" smooth="yes"/>
      <point x="221" y="323"/>
      <point x="145" y="253"/>
      <point x="102" y="106" type="curve"/>
      <point x="140" y="87" type="line"/>
      <point x="166" y="194"/>
      <point x="220" y="244"/>
      <point x="273" y="244" type="curve" smooth="yes"/>
      <point x="327" y="244"/>
      <point x="346" y="203"/>
      <point x="346" y="166" type="curve" smooth="yes"/>
      <point x="346" y="114"/>
      <point x="318" y="61"/>
      <point x="244" y="61" type="curve" smooth="yes"/>
      <point x="165" y="61"/>
      <point x="114" y="142"/>
      <point x="114" y="227" type="curve" smooth="yes"/>
      <point x="114" y="397"/>
      <point x="300" y="507"/>
      <point x="480" y="507" type="curve" smooth="yes"/>
      <point x="679" y="507"/>
      <point x="805" y="399"/>
      <point x="805" y="235" type="curve" smooth="yes"/>
      <point x="805" y="129"/>
      <point x="765" y="65"/>
      <point x="695" y="65" type="curve" smooth="yes"/>
      <point x="651" y="65"/>
      <point x="625" y="113"/>
      <point x="625" y="184" type="curve" smooth="yes"/>
      <point x="625" y="360"/>
      <point x="813" y="507"/>
      <point x="1001" y="507" type="curve" smooth="yes"/>
      <point x="1194" y="507"/>
      <point x="1277" y="397"/>
      <point x="1277" y="235" type="curve" smooth="yes"/>
      <point x="1277" y="129"/>
      <point x="1237" y="65"/>
      <point x="1167" y="65" type="curve" smooth="yes"/>
      <point x="1123" y="65"/>
      <point x="1097" y="109"/>
      <point x="1097" y="180" type="curve" smooth="yes"/>
      <point x="1097" y="386"/>
      <point x="1323" y="502"/>
      <point x="1516" y="502" type="curve" smooth="yes"/>
      <point x="1901" y="502" type="line"/>
      <point x="1914" y="563" type="line"/>
      <point x="1523" y="563" type="line" smooth="yes"/>
      <point x="1280" y="563"/>
      <point x="1034" y="422"/>
      <point x="1034" y="184" type="curve" smooth="yes"/>
      <point x="1034" y="85"/>
      <point x="1078" y="-5"/>
      <point x="1203" y="-5" type="curve" smooth="yes"/>
      <point x="1319" y="-5"/>
      <point x="1422" y="83"/>
      <point x="1422" y="228" type="curve" smooth="yes"/>
      <point x="1422" y="451"/>
      <point x="1262" y="568"/>
      <point x="1014" y="568" type="curve" smooth="yes"/>
      <point x="771" y="568"/>
      <point x="562" y="396"/>
      <point x="562" y="188" type="curve" smooth="yes"/>
      <point x="562" y="89"/>
      <point x="606" y="-5"/>
    </contour>
    <contour>
      <point x="1488" y="0" type="line"/>
      <point x="1646" y="0" type="line"/>
      <point x="1758" y="530" type="line"/>
      <point x="1601" y="530" type="line"/>
    </contour>
  </outline>
</glyph>
<glyph name="na-tamil" format="2">
  <advance width="835"/>
  <unicode hex="0BA8"/>
  <note>
uni0BA8
</note>
  <anchor x="325" y="0" name="bottom"/>
  <anchor x="575" y="563" name="imatra"/>
  <anchor x="286" y="-228" name="nukta"/>
  <anchor x="455" y="563" name="top"/>
  <anchor x="489" y="563" name="vedic"/>
  <outline>
    <contour>
      <point x="92" y="-273" type="curve"/>
      <point x="110" y="-187"/>
      <point x="146" y="-132"/>
      <point x="259" y="-132" type="curve" smooth="yes"/>
      <point x="320" y="-132" type="line" smooth="yes"/>
      <point x="542" y="-132"/>
      <point x="758" y="-48"/>
      <point x="758" y="173" type="curve" smooth="yes"/>
      <point x="758" y="281"/>
      <point x="695" y="341"/>
      <point x="606" y="341" type="curve" smooth="yes"/>
      <point x="540" y="341"/>
      <point x="502" y="310"/>
      <point x="474" y="279" type="curve"/>
      <point x="521" y="502" type="line"/>
      <point x="650" y="502" type="line"/>
      <point x="663" y="563" type="line"/>
      <point x="149" y="563" type="line"/>
      <point x="29" y="0" type="line"/>
      <point x="98" y="0" type="line"/>
      <point x="204" y="502" type="line"/>
      <point x="360" y="502" type="line"/>
      <point x="254" y="0" type="line"/>
      <point x="414" y="0" type="line"/>
      <point x="454" y="188" type="line" smooth="yes"/>
      <point x="462" y="225"/>
      <point x="487" y="252"/>
      <point x="525" y="252" type="curve" smooth="yes"/>
      <point x="569" y="252"/>
      <point x="593" y="222"/>
      <point x="593" y="162" type="curve" smooth="yes"/>
      <point x="593" y="11"/>
      <point x="479" y="-79"/>
      <point x="333" y="-79" type="curve" smooth="yes"/>
      <point x="207" y="-79" type="line" smooth="yes"/>
      <point x="76" y="-79"/>
      <point x="-21" y="-108"/>
      <point x="-21" y="-191" type="curve" smooth="yes"/>
      <point x="-21" y="-247"/>
      <point x="24" y="-273"/>
    </contour>
  </outline>
</glyph>
<glyph name="nnna-tamil" format="2">
  <advance width="1420"/>
  <unicode hex="0BA9"/>
  <note>
uni0BA9
</note>
  <anchor x="635" y="0" name="bottom"/>
  <anchor x="1311" y="563" name="imatra"/>
  <anchor x="635" y="0" name="nukta"/>
  <anchor x="794" y="563" name="top"/>
  <anchor x="793" y="563" name="vedic"/>
  <outline>
    <contour>
      <point x="270" y="-5" type="curve" smooth="yes"/>
      <point x="381" y="-5"/>
      <point x="476" y="60"/>
      <point x="476" y="182" type="curve" smooth="yes"/>
      <point x="476" y="271"/>
      <point x="409" y="323"/>
      <point x="325" y="323" type="curve" smooth="yes"/>
      <point x="221" y="323"/>
      <point x="145" y="253"/>
      <point x="102" y="106" type="curve"/>
      <point x="140" y="87" type="line"/>
      <point x="166" y="194"/>
      <point x="220" y="244"/>
      <point x="273" y="244" type="curve" smooth="yes"/>
      <point x="327" y="244"/>
      <point x="346" y="203"/>
      <point x="346" y="166" type="curve" smooth="yes"/>
      <point x="346" y="114"/>
      <point x="318" y="61"/>
      <point x="244" y="61" type="curve" smooth="yes"/>
      <point x="165" y="61"/>
      <point x="114" y="142"/>
      <point x="114" y="227" type="curve" smooth="yes"/>
      <point x="114" y="397"/>
      <point x="294" y="507"/>
      <point x="478" y="507" type="curve" smooth="yes"/>
      <point x="677" y="507"/>
      <point x="805" y="399"/>
      <point x="805" y="235" type="curve" smooth="yes"/>
      <point x="805" y="129"/>
      <point x="765" y="65"/>
      <point x="695" y="65" type="curve" smooth="yes"/>
      <point x="651" y="65"/>
      <point x="625" y="109"/>
      <point x="625" y="180" type="curve" smooth="yes"/>
      <point x="625" y="386"/>
      <point x="838" y="502"/>
      <point x="1061" y="502" type="curve" smooth="yes"/>
      <point x="1451" y="502" type="line"/>
      <point x="1464" y="563" type="line"/>
      <point x="1068" y="563" type="line" smooth="yes"/>
      <point x="795" y="563"/>
      <point x="562" y="422"/>
      <point x="562" y="184" type="curve" smooth="yes"/>
      <point x="562" y="85"/>
      <point x="606" y="-5"/>
      <point x="731" y="-5" type="curve" smooth="yes"/>
      <point x="847" y="-5"/>
      <point x="950" y="78"/>
      <point x="950" y="223" type="curve" smooth="yes"/>
      <point x="950" y="448"/>
      <point x="745" y="568"/>
      <point x="491" y="568" type="curve" smooth="yes"/>
      <point x="250" y="568"/>
      <point x="52" y="428"/>
      <point x="52" y="223" type="curve" smooth="yes"/>
      <point x="52" y="103"/>
      <point x="129" y="-5"/>
    </contour>
    <contour>
      <point x="1038" y="0" type="line"/>
      <point x="1196" y="0" type="line"/>
      <point x="1308" y="530" type="line"/>
      <point x="1151" y="530" type="line"/>
    </contour>
  </outline>
</glyph>
<glyph name="pa-tamil" format="2">
  <advance width="947"/>
  <unicode hex="0BAA"/>
  <note>
uni0BAA
</note>
  <anchor x="415" y="0" name="bottom"/>
  <anchor x="910" y="563" name="imatra"/>
  <anchor x="415" y="0" name="nukta"/>
  <anchor x="530" y="563" name="top"/>
  <anchor x="534" y="563" name="vedic"/>
  <outline>
    <contour>
      <point x="29" y="0" type="line"/>
      <point x="799" y="0" type="line"/>
      <point x="918" y="563" type="line"/>
      <point x="757" y="563" type="line"/>
      <point x="650" y="61" type="line"/>
      <point x="200" y="61" type="line"/>
      <point x="307" y="563" type="line"/>
      <point x="149" y="563" type="line"/>
    </contour>
  </outline>
</glyph>
<glyph name="ma-tamil" format="2">
  <advance width="956"/>
  <unicode hex="0BAE"/>
  <note>
uni0BAE
</note>
  <anchor x="418" y="0" name="bottom"/>
  <anchor x="949" y="563" name="imatra"/>
  <anchor x="418" y="0" name="nukta"/>
  <anchor x="575" y="563" name="top"/>
  <anchor x="554" y="563" name="vedic"/>
  <outline>
    <contour>
      <point x="29" y="0" type="line"/>
      <point x="675" y="0" type="line" smooth="yes"/>
      <point x="830" y="0"/>
      <point x="892" y="143"/>
      <point x="892" y="322" type="curve" smooth="yes"/>
      <point x="892" y="475"/>
      <point x="825" y="569"/>
      <point x="688" y="569" type="curve" smooth="yes"/>
      <point x="573" y="569"/>
      <point x="492" y="504"/>
      <point x="468" y="388" type="curve" smooth="yes"/>
      <point x="399" y="61" type="line"/>
      <point x="204" y="61" type="line"/>
      <point x="311" y="563" type="line"/>
      <point x="149" y="563" type="line"/>
    </contour>
    <contour>
      <point x="559" y="61" type="line"/>
      <point x="630" y="399" type="line" smooth="yes"/>
      <point x="645" y="470"/>
      <point x="674" y="499"/>
      <point x="722" y="499" type="curve" smooth="yes"/>
      <point x="787" y="499"/>
      <point x="824" y="434"/>
      <point x="824" y="313" type="curve" smooth="yes"/>
      <point x="824" y="186"/>
      <point x="784" y="61"/>
      <point x="683" y="61" type="curve" smooth="yes"/>
    </contour>
  </outline>
</glyph>
<glyph name="ya-tamil" format="2">
  <advance width="1045"/>
  <unicode hex="0BAF"/>
  <note>
uni0BAF
</note>
  <anchor x="544" y="0" name="bottom"/>
  <anchor x="1007" y="563" name="imatra"/>
  <anchor x="544" y="0" name="nukta"/>
  <anchor x="586" y="563" name="top"/>
  <anchor x="581" y="563" name="vedic"/>
  <outline>
    <contour>
      <point x="211" y="-10" type="curve" smooth="yes"/>
      <point x="304" y="-10"/>
      <point x="345" y="37"/>
      <point x="365" y="62" type="curve"/>
      <point x="352" y="0" type="line"/>
      <point x="897" y="0" type="line"/>
      <point x="1016" y="563" type="line"/>
      <point x="856" y="563" type="line"/>
      <point x="749" y="61" type="line"/>
      <point x="512" y="61" type="line"/>
      <point x="618" y="563" type="line"/>
      <point x="460" y="563" type="line"/>
      <point x="371" y="145" type="line" smooth="yes"/>
      <point x="361" y="97"/>
      <point x="326" y="62"/>
      <point x="279" y="62" type="curve" smooth="yes"/>
      <point x="235" y="62"/>
      <point x="209" y="100"/>
      <point x="223" y="164" type="curve" smooth="yes"/>
      <point x="308" y="563" type="line"/>
      <point x="147" y="563" type="line"/>
      <point x="67" y="182" type="line" smooth="yes"/>
      <point x="45" y="76"/>
      <point x="104" y="-10"/>
    </contour>
  </outline>
</glyph>
<glyph name="ra-tamil" format="2">
  <advance width="671"/>
  <unicode hex="0BB0"/>
  <note>
uni0BB0
</note>
  <anchor x="279" y="0" name="bottom"/>
  <anchor x="614" y="563" name="imatra"/>
  <anchor x="231" y="-228" name="nukta"/>
  <anchor x="410" y="563" name="top"/>
  <anchor x="435" y="563" name="vedic"/>
  <outline>
    <contour>
      <point x="37" y="-280" type="line"/>
      <point x="455" y="31" type="line"/>
      <point x="555" y="502" type="line"/>
      <point x="702" y="502" type="line"/>
      <point x="715" y="563" type="line"/>
      <point x="149" y="563" type="line"/>
      <point x="29" y="0" type="line"/>
      <point x="98" y="0" type="line"/>
      <point x="205" y="502" type="line"/>
      <point x="391" y="502" type="line"/>
      <point x="280" y="-17" type="line"/>
      <point x="0" y="-227" type="line"/>
    </contour>
  </outline>
</glyph>
<glyph name="rra-tamil" format="2">
  <advance width="907"/>
  <unicode hex="0BB1"/>
  <note>
uni0BB1
</note>
  <anchor x="379" y="0" name="bottom"/>
  <anchor x="344" y="-207" name="nukta"/>
  <anchor x="498" y="563" name="top"/>
  <anchor x="530" y="563" name="vedic"/>
  <outline>
    <contour>
      <point x="86" y="-268" type="curve"/>
      <point x="104" y="-182"/>
      <point x="140" y="-127"/>
      <point x="253" y="-127" type="curve" smooth="yes"/>
      <point x="374" y="-127" type="line" smooth="yes"/>
      <point x="694" y="-127"/>
      <point x="866" y="19"/>
      <point x="866" y="320" type="curve" smooth="yes"/>
      <point x="866" y="482"/>
      <point x="775" y="568"/>
      <point x="642" y="568" type="curve" smooth="yes"/>
      <point x="528" y="568"/>
      <point x="466" y="503"/>
      <point x="436" y="447" type="curve"/>
      <point x="426" y="511"/>
      <point x="383" y="567"/>
      <point x="293" y="567" type="curve" smooth="yes"/>
      <point x="193" y="567"/>
      <point x="129" y="501"/>
      <point x="105" y="386" type="curve" smooth="yes"/>
      <point x="23" y="0" type="line"/>
      <point x="92" y="0" type="line"/>
      <point x="172" y="377" type="line" smooth="yes"/>
      <point x="189" y="456"/>
      <point x="220" y="501"/>
      <point x="276" y="501" type="curve" smooth="yes"/>
      <point x="337" y="501"/>
      <point x="359" y="452"/>
      <point x="343" y="376" type="curve" smooth="yes"/>
      <point x="263" y="0" type="line"/>
      <point x="423" y="0" type="line"/>
      <point x="501" y="371" type="line" smooth="yes"/>
      <point x="520" y="463"/>
      <point x="565" y="502"/>
      <point x="616" y="502" type="curve" smooth="yes"/>
      <point x="681" y="502"/>
      <point x="708" y="444"/>
      <point x="708" y="348" type="curve" smooth="yes"/>
      <point x="708" y="101"/>
      <point x="611" y="-74"/>
      <point x="372" y="-74" type="curve" smooth="yes"/>
      <point x="202" y="-74" type="line" smooth="yes"/>
      <point x="70" y="-74"/>
      <point x="-27" y="-103"/>
      <point x="-27" y="-186" type="curve" smooth="yes"/>
      <point x="-27" y="-242"/>
      <point x="18" y="-268"/>
    </contour>
  </outline>
</glyph>
<glyph name="la-tamil" format="2">
  <advance width="1140"/>
  <unicode hex="0BB2"/>
  <note>
uni0BB2
</note>
  <anchor x="517" y="0" name="bottom"/>
  <anchor x="517" y="0" name="nukta"/>
  <anchor x="641" y="563" name="top"/>
  <anchor x="633" y="563" name="vedic"/>
  <outline>
    <contour>
      <point x="272" y="-5" type="curve" smooth="yes"/>
      <point x="383" y="-5"/>
      <point x="478" y="60"/>
      <point x="478" y="182" type="curve" smooth="yes"/>
      <point x="478" y="271"/>
      <point x="411" y="323"/>
      <point x="327" y="323" type="curve" smooth="yes"/>
      <point x="223" y="323"/>
      <point x="147" y="253"/>
      <point x="104" y="106" type="curve"/>
      <point x="142" y="87" type="line"/>
      <point x="168" y="194"/>
      <point x="222" y="244"/>
      <point x="275" y="244" type="curve" smooth="yes"/>
      <point x="329" y="244"/>
      <point x="348" y="203"/>
      <point x="348" y="166" type="curve" smooth="yes"/>
      <point x="348" y="114"/>
      <point x="320" y="61"/>
      <point x="246" y="61" type="curve" smooth="yes"/>
      <point x="167" y="61"/>
      <point x="116" y="142"/>
      <point x="116" y="227" type="curve" smooth="yes"/>
      <point x="116" y="402"/>
      <point x="250" y="507"/>
      <point x="430" y="507" type="curve" smooth="yes"/>
      <point x="574" y="507"/>
      <point x="637" y="422"/>
      <point x="606" y="269" type="curve" smooth="yes"/>
      <point x="592" y="200" type="line" smooth="yes"/>
      <point x="567" y="77"/>
      <point x="637" y="-5"/>
      <point x="780" y="-5" type="curve" smooth="yes"/>
      <point x="974" y="-5"/>
      <point x="1096" y="163"/>
      <point x="1096" y="357" type="curve" smooth="yes"/>
      <point x="1096" y="442"/>
      <point x="1071" y="506"/>
      <point x="1034" y="568" type="curve"/>
      <point x="979" y="536" type="line"/>
      <point x="1012" y="477"/>
      <point x="1032" y="422"/>
      <point x="1032" y="346" type="curve" smooth="yes"/>
      <point x="1032" y="194"/>
      <point x="932" y="56"/>
      <point x="813" y="56" type="curve" smooth="yes"/>
      <point x="742" y="56"/>
      <point x="730" y="115"/>
      <point x="746" y="185" type="curve" smooth="yes"/>
      <point x="767" y="279" type="line" smooth="yes"/>
      <point x="809" y="469"/>
      <point x="664" y="568"/>
      <point x="463" y="568" type="curve" smooth="yes"/>
      <point x="223" y="568"/>
      <point x="54" y="433"/>
      <point x="54" y="223" type="curve" smooth="yes"/>
      <point x="54" y="103"/>
      <point x="131" y="-5"/>
    </contour>
  </outline>
</glyph>
<glyph name="va-tamil" format="2">
  <advance width="1201"/>
  <unicode hex="0BB5"/>
  <note>
uni0BB5
</note>
  <anchor x="562" y="0" name="bottom"/>
  <anchor x="1040" y="563" name="imatra"/>
  <anchor x="562" y="0" name="nukta"/>
  <anchor x="661" y="563" name="top"/>
  <anchor x="645" y="563" name="vedic"/>
  <outline>
    <contour>
      <point x="271" y="-5" type="curve" smooth="yes"/>
      <point x="382" y="-5"/>
      <point x="477" y="60"/>
      <point x="477" y="182" type="curve" smooth="yes"/>
      <point x="477" y="271"/>
      <point x="410" y="323"/>
      <point x="326" y="323" type="curve" smooth="yes"/>
      <point x="222" y="323"/>
      <point x="146" y="253"/>
      <point x="103" y="106" type="curve"/>
      <point x="141" y="87" type="line"/>
      <point x="167" y="194"/>
      <point x="221" y="244"/>
      <point x="274" y="244" type="curve" smooth="yes"/>
      <point x="328" y="244"/>
      <point x="347" y="203"/>
      <point x="347" y="166" type="curve" smooth="yes"/>
      <point x="347" y="114"/>
      <point x="319" y="61"/>
      <point x="245" y="61" type="curve" smooth="yes"/>
      <point x="166" y="61"/>
      <point x="115" y="142"/>
      <point x="115" y="227" type="curve" smooth="yes"/>
      <point x="115" y="396"/>
      <point x="273" y="507"/>
      <point x="433" y="507" type="curve" smooth="yes"/>
      <point x="558" y="507"/>
      <point x="648" y="434"/>
      <point x="648" y="301" type="curve" smooth="yes"/>
      <point x="648" y="195"/>
      <point x="592" y="114"/>
      <point x="522" y="44" type="curve"/>
      <point x="533" y="0" type="line"/>
      <point x="1053" y="0" type="line"/>
      <point x="1172" y="563" type="line"/>
      <point x="1012" y="563" type="line"/>
      <point x="905" y="61" type="line"/>
      <point x="654" y="61" type="line"/>
      <point x="735" y="124"/>
      <point x="799" y="205"/>
      <point x="799" y="316" type="curve" smooth="yes"/>
      <point x="799" y="481"/>
      <point x="648" y="568"/>
      <point x="455" y="568" type="curve" smooth="yes"/>
      <point x="236" y="568"/>
      <point x="53" y="427"/>
      <point x="53" y="223" type="curve" smooth="yes"/>
      <point x="53" y="103"/>
      <point x="130" y="-5"/>
    </contour>
  </outline>
</glyph>
<glyph name="sa-tamil" format="2">
  <advance width="1476"/>
  <unicode hex="0BB8"/>
  <note>
uni0BB8
</note>
  <anchor x="679" y="0" name="bottom"/>
  <anchor x="679" y="0" name="nukta"/>
  <anchor x="790" y="563" name="top"/>
  <anchor x="799" y="563" name="vedic"/>
  <outline>
    <contour>
      <point x="546" y="0" type="line"/>
      <point x="704" y="0" type="line"/>
      <point x="788" y="396" type="line" smooth="yes"/>
      <point x="803" y="465"/>
      <point x="834" y="508"/>
      <point x="898" y="508" type="curve" smooth="yes"/>
      <point x="955" y="508"/>
      <point x="979" y="466"/>
      <point x="966" y="406" type="curve" smooth="yes"/>
      <point x="923" y="200" type="line" smooth="yes"/>
      <point x="898" y="78"/>
      <point x="968" y="-5"/>
      <point x="1111" y="-5" type="curve" smooth="yes"/>
      <point x="1305" y="-5"/>
      <point x="1432" y="163"/>
      <point x="1432" y="357" type="curve" smooth="yes"/>
      <point x="1432" y="442"/>
      <point x="1412" y="504"/>
      <point x="1378" y="567" type="curve"/>
      <point x="1321" y="537" type="line"/>
      <point x="1352" y="477"/>
      <point x="1368" y="422"/>
      <point x="1368" y="346" type="curve" smooth="yes"/>
      <point x="1368" y="194"/>
      <point x="1263" y="56"/>
      <point x="1144" y="56" type="curve" smooth="yes"/>
      <point x="1073" y="56"/>
      <point x="1061" y="115"/>
      <point x="1077" y="185" type="curve" smooth="yes"/>
      <point x="1117" y="365" type="line" smooth="yes"/>
      <point x="1146" y="496"/>
      <point x="1055" y="568"/>
      <point x="925" y="568" type="curve" smooth="yes"/>
      <point x="807" y="568"/>
      <point x="725" y="500"/>
      <point x="708" y="421" type="curve" smooth="yes"/>
      <point x="688" y="330" type="line"/>
      <point x="629" y="397" type="line"/>
    </contour>
    <contour>
      <point x="272" y="-5" type="curve" smooth="yes"/>
      <point x="383" y="-5"/>
      <point x="478" y="60"/>
      <point x="478" y="182" type="curve" smooth="yes"/>
      <point x="478" y="271"/>
      <point x="411" y="323"/>
      <point x="327" y="323" type="curve" smooth="yes"/>
      <point x="223" y="323"/>
      <point x="147" y="253"/>
      <point x="104" y="106" type="curve"/>
      <point x="142" y="87" type="line"/>
      <point x="168" y="194"/>
      <point x="222" y="244"/>
      <point x="275" y="244" type="curve" smooth="yes"/>
      <point x="329" y="244"/>
      <point x="348" y="203"/>
      <point x="348" y="166" type="curve" smooth="yes"/>
      <point x="348" y="114"/>
      <point x="320" y="61"/>
      <point x="246" y="61" type="curve" smooth="yes"/>
      <point x="167" y="61"/>
      <point x="116" y="142"/>
      <point x="116" y="227" type="curve" smooth="yes"/>
      <point x="116" y="395"/>
      <point x="256" y="507"/>
      <point x="425" y="507" type="curve" smooth="yes"/>
      <point x="564" y="507"/>
      <point x="644" y="432"/>
      <point x="610" y="309" type="curve"/>
      <point x="695" y="309" type="line"/>
      <point x="728" y="449"/>
      <point x="639" y="569"/>
      <point x="429" y="569" type="curve" smooth="yes"/>
      <point x="220" y="569"/>
      <point x="54" y="426"/>
      <point x="54" y="223" type="curve" smooth="yes"/>
      <point x="54" y="103"/>
      <point x="131" y="-5"/>
    </contour>
  </outline>
</glyph>
<glyph name="aaMatra-tamil" format="2">
  <advance width="673"/>
  <unicode hex="0BBE"/>
  <note>
uni0BBE
</note>
  <outline>
    <contour>
      <point x="29" y="0" type="line"/>
      <point x="98" y="0" type="line"/>
      <point x="205" y="502" type="line"/>
      <point x="392" y="502" type="line"/>
      <point x="285" y="0" type="line"/>
      <point x="443" y="0" type="line"/>
      <point x="550" y="502" type="line"/>
      <point x="704" y="502" type="line"/>
      <point x="716" y="563" type="line"/>
      <point x="149" y="563" type="line"/>
    </contour>
  </outline>
</glyph>
<glyph name="iMatra-tamil" format="2">
  <advance width="241"/>
  <unicode hex="0BBF"/>
  <note>
uni0BBF
</note>
  <anchor x="-74" y="868" name="top"/>
  <outline>
    <contour>
      <point x="25" y="0" type="line"/>
      <point x="93" y="0" type="line"/>
      <point x="207" y="536" type="line" smooth="yes"/>
      <point x="247" y="726"/>
      <point x="137" y="868"/>
      <point x="-74" y="868" type="curve" smooth="yes"/>
      <point x="-226" y="868"/>
      <point x="-336" y="772"/>
      <point x="-336" y="654" type="curve" smooth="yes"/>
      <point x="-336" y="567"/>
      <point x="-284" y="517"/>
      <point x="-197" y="517" type="curve" smooth="yes"/>
      <point x="-195" y="517" type="line"/>
      <point x="-185" y="563" type="line"/>
      <point x="-187" y="563" type="line" smooth="yes"/>
      <point x="-232" y="563"/>
      <point x="-264" y="582"/>
      <point x="-264" y="630" type="curve" smooth="yes"/>
      <point x="-264" y="702"/>
      <point x="-182" y="741"/>
      <point x="-84" y="741" type="curve" smooth="yes"/>
      <point x="64" y="741"/>
      <point x="164" y="653"/>
      <point x="134" y="512" type="curve" smooth="yes"/>
    </contour>
  </outline>
</glyph>
<glyph name="iiMatra-tamil" format="2">
  <unicode hex="0BC0"/>
  <note>
uni0BC0
</note>
  <anchor x="61" y="563" name="_imatra"/>
  <outline>
    <contour>
      <point x="27" y="502" type="curve" smooth="yes"/>
      <point x="48" y="502" type="line"/>
      <point x="61" y="563" type="line"/>
      <point x="37" y="563" type="line" smooth="yes"/>
      <point x="-27" y="563"/>
      <point x="-69" y="613"/>
      <point x="-69" y="671" type="curve" smooth="yes"/>
      <point x="-69" y="772"/>
      <point x="11" y="844"/>
      <point x="120" y="844" type="curve" smooth="yes"/>
      <point x="177" y="844"/>
      <point x="219" y="812"/>
      <point x="219" y="764" type="curve" smooth="yes"/>
      <point x="219" y="714"/>
      <point x="188" y="682"/>
      <point x="142" y="682" type="curve" smooth="yes"/>
      <point x="97" y="682"/>
      <point x="77" y="710"/>
      <point x="77" y="750" type="curve" smooth="yes"/>
      <point x="77" y="784"/>
      <point x="93" y="828"/>
      <point x="121" y="868" type="curve"/>
      <point x="68" y="872" type="line"/>
      <point x="29" y="823"/>
      <point x="10" y="772"/>
      <point x="10" y="728" type="curve" smooth="yes"/>
      <point x="10" y="658"/>
      <point x="58" y="604"/>
      <point x="151" y="604" type="curve" smooth="yes"/>
      <point x="244" y="604"/>
      <point x="323" y="663"/>
      <point x="323" y="758" type="curve" smooth="yes"/>
      <point x="323" y="852"/>
      <point x="241" y="904"/>
      <point x="128" y="904" type="curve" smooth="yes"/>
      <point x="-14" y="904"/>
      <point x="-135" y="804"/>
      <point x="-135" y="663" type="curve" smooth="yes"/>
      <point x="-135" y="569"/>
      <point x="-69" y="502"/>
    </contour>
  </outline>
</glyph>
<glyph name="uMatra-tamil" format="2">
  <advance width="583"/>
  <unicode hex="0BC1"/>
  <note>
uni0BC1
</note>
  <outline>
    <contour>
      <point x="365" y="224" type="curve" smooth="yes"/>
      <point x="457" y="224"/>
      <point x="557" y="261"/>
      <point x="585" y="388" type="curve" smooth="yes"/>
      <point x="623" y="563" type="line"/>
      <point x="-233" y="563" type="line"/>
      <point x="-194" y="502" type="line"/>
      <point x="453" y="502" type="line"/>
      <point x="428" y="386" type="line" smooth="yes"/>
      <point x="414" y="323"/>
      <point x="377" y="298"/>
      <point x="331" y="298" type="curve" smooth="yes"/>
      <point x="277" y="298"/>
      <point x="249" y="337"/>
      <point x="267" y="421" type="curve" smooth="yes"/>
      <point x="291" y="534" type="line"/>
      <point x="225" y="534" type="line"/>
      <point x="203" y="429" type="line" smooth="yes"/>
      <point x="175" y="295"/>
      <point x="242" y="224"/>
    </contour>
  </outline>
</glyph>
<glyph name="eMatra-tamil" format="2">
  <advance width="887"/>
  <unicode hex="0BC6"/>
  <note>
uni0BC6
</note>
  <outline>
    <contour>
      <point x="311" y="-5" type="curve" smooth="yes"/>
      <point x="422" y="-5"/>
      <point x="522" y="59"/>
      <point x="522" y="185" type="curve" smooth="yes"/>
      <point x="522" y="278"/>
      <point x="451" y="329"/>
      <point x="366" y="329" type="curve" smooth="yes"/>
      <point x="262" y="329"/>
      <point x="185" y="259"/>
      <point x="142" y="112" type="curve"/>
      <point x="180" y="93" type="line"/>
      <point x="206" y="200"/>
      <point x="261" y="250"/>
      <point x="314" y="250" type="curve" smooth="yes"/>
      <point x="368" y="250"/>
      <point x="392" y="211"/>
      <point x="392" y="169" type="curve" smooth="yes"/>
      <point x="392" y="110"/>
      <point x="359" y="61"/>
      <point x="285" y="61" type="curve" smooth="yes"/>
      <point x="206" y="61"/>
      <point x="144" y="150"/>
      <point x="144" y="301" type="curve" smooth="yes"/>
      <point x="144" y="551"/>
      <point x="321" y="741"/>
      <point x="538" y="741" type="curve" smooth="yes"/>
      <point x="685" y="741"/>
      <point x="771" y="665"/>
      <point x="771" y="522" type="curve" smooth="yes"/>
      <point x="771" y="492"/>
      <point x="767" y="460"/>
      <point x="760" y="425" type="curve" smooth="yes"/>
      <point x="670" y="0" type="line"/>
      <point x="739" y="0" type="line"/>
      <point x="838" y="464" type="line" smooth="yes"/>
      <point x="847" y="504"/>
      <point x="851" y="541"/>
      <point x="851" y="576" type="curve" smooth="yes"/>
      <point x="851" y="751"/>
      <point x="747" y="863"/>
      <point x="555" y="863" type="curve" smooth="yes"/>
      <point x="261" y="863"/>
      <point x="82" y="599"/>
      <point x="82" y="297" type="curve" smooth="yes"/>
      <point x="82" y="111"/>
      <point x="170" y="-5"/>
    </contour>
  </outline>
</glyph>
<glyph name="eeMatra-tamil" format="2">
  <advance width="688"/>
  <unicode hex="0BC7"/>
  <note>
uni0BC7
</note>
  <outline>
    <contour>
      <point x="387" y="-5" type="curve" smooth="yes"/>
      <point x="519" y="-5"/>
      <point x="618" y="65"/>
      <point x="618" y="186" type="curve" smooth="yes"/>
      <point x="618" y="274"/>
      <point x="555" y="330"/>
      <point x="466" y="330" type="curve" smooth="yes"/>
      <point x="355" y="330"/>
      <point x="266" y="249"/>
      <point x="225" y="88" type="curve"/>
      <point x="263" y="69" type="line"/>
      <point x="296" y="195"/>
      <point x="347" y="251"/>
      <point x="410" y="251" type="curve" smooth="yes"/>
      <point x="456" y="251"/>
      <point x="489" y="219"/>
      <point x="489" y="171" type="curve" smooth="yes"/>
      <point x="489" y="96"/>
      <point x="437" y="61"/>
      <point x="371" y="61" type="curve" smooth="yes"/>
      <point x="263" y="61"/>
      <point x="142" y="179"/>
      <point x="142" y="360" type="curve" smooth="yes"/>
      <point x="142" y="559"/>
      <point x="305" y="796"/>
      <point x="500" y="796" type="curve" smooth="yes"/>
      <point x="567" y="796"/>
      <point x="604" y="757"/>
      <point x="604" y="705" type="curve" smooth="yes"/>
      <point x="604" y="648"/>
      <point x="570" y="606"/>
      <point x="510" y="606" type="curve" smooth="yes"/>
      <point x="428" y="606"/>
      <point x="404" y="694"/>
      <point x="418" y="795" type="curve"/>
      <point x="374" y="776" type="line"/>
      <point x="355" y="632"/>
      <point x="402" y="527"/>
      <point x="538" y="527" type="curve" smooth="yes"/>
      <point x="647" y="527"/>
      <point x="731" y="591"/>
      <point x="731" y="702" type="curve" smooth="yes"/>
      <point x="731" y="813"/>
      <point x="637" y="862"/>
      <point x="538" y="862" type="curve" smooth="yes"/>
      <point x="278" y="862"/>
      <point x="79" y="603"/>
      <point x="79" y="350" type="curve" smooth="yes"/>
      <point x="79" y="134"/>
      <point x="233" y="-5"/>
    </contour>
  </outline>
</glyph>
<glyph name="aiMatra-tamil" format="2">
  <advance width="1376"/>
  <unicode hex="0BC8"/>
  <note>
uni0BC8
</note>
  <outline>
    <contour>
      <point x="1050" y="-19" type="line"/>
      <point x="1207" y="36"/>
      <point x="1325" y="125"/>
      <point x="1325" y="295" type="curve" smooth="yes"/>
      <point x="1325" y="483"/>
      <point x="1157" y="568"/>
      <point x="965" y="568" type="curve" smooth="yes"/>
      <point x="756" y="568"/>
      <point x="549" y="404"/>
      <point x="549" y="196" type="curve" smooth="yes"/>
      <point x="549" y="97"/>
      <point x="586" y="-5"/>
      <point x="708" y="-5" type="curve" smooth="yes"/>
      <point x="834" y="-5"/>
      <point x="937" y="86"/>
      <point x="937" y="231" type="curve" smooth="yes"/>
      <point x="937" y="440"/>
      <point x="777" y="568"/>
      <point x="507" y="568" type="curve" smooth="yes"/>
      <point x="267" y="568"/>
      <point x="50" y="426"/>
      <point x="50" y="212" type="curve" smooth="yes"/>
      <point x="50" y="92"/>
      <point x="116" y="-5"/>
      <point x="257" y="-5" type="curve" smooth="yes"/>
      <point x="368" y="-5"/>
      <point x="468" y="60"/>
      <point x="468" y="182" type="curve" smooth="yes"/>
      <point x="468" y="271"/>
      <point x="401" y="323"/>
      <point x="317" y="323" type="curve" smooth="yes"/>
      <point x="213" y="323"/>
      <point x="137" y="253"/>
      <point x="94" y="106" type="curve"/>
      <point x="132" y="87" type="line"/>
      <point x="158" y="194"/>
      <point x="212" y="244"/>
      <point x="265" y="244" type="curve" smooth="yes"/>
      <point x="319" y="244"/>
      <point x="338" y="203"/>
      <point x="338" y="166" type="curve" smooth="yes"/>
      <point x="338" y="114"/>
      <point x="305" y="61"/>
      <point x="231" y="61" type="curve" smooth="yes"/>
      <point x="152" y="61"/>
      <point x="112" y="131"/>
      <point x="112" y="216" type="curve" smooth="yes"/>
      <point x="112" y="398"/>
      <point x="306" y="507"/>
      <point x="494" y="507" type="curve" smooth="yes"/>
      <point x="709" y="507"/>
      <point x="792" y="406"/>
      <point x="792" y="242" type="curve" smooth="yes"/>
      <point x="792" y="131"/>
      <point x="746" y="65"/>
      <point x="683" y="65" type="curve" smooth="yes"/>
      <point x="636" y="65"/>
      <point x="612" y="121"/>
      <point x="612" y="196" type="curve" smooth="yes"/>
      <point x="612" y="372"/>
      <point x="785" y="507"/>
      <point x="953" y="507" type="curve" smooth="yes"/>
      <point x="1086" y="507"/>
      <point x="1182" y="441"/>
      <point x="1182" y="305" type="curve" smooth="yes"/>
      <point x="1182" y="173"/>
      <point x="1135" y="102"/>
      <point x="1028" y="21" type="curve"/>
    </contour>
  </outline>
</glyph>
<glyph name="halant-tamil" format="2">
  <unicode hex="0BCD"/>
  <note>
uni0BCD
</note>
  <anchor x="61" y="563" name="_top"/>
  <anchor x="104" y="766" name="top"/>
  <outline>
    <contour>
      <point x="95" y="639" type="curve" smooth="yes"/>
      <point x="145" y="639"/>
      <point x="185" y="679"/>
      <point x="185" y="727" type="curve" smooth="yes"/>
      <point x="185" y="774"/>
      <point x="145" y="814"/>
      <point x="95" y="814" type="curve" smooth="yes"/>
      <point x="45" y="814"/>
      <point x="5" y="774"/>
      <point x="5" y="727" type="curve" smooth="yes"/>
      <point x="5" y="679"/>
      <point x="45" y="639"/>
    </contour>
  </outline>
</glyph>
<glyph name="om-tamil" format="2">
  <advance width="1072"/>
  <unicode hex="0BD0"/>
  <note>
uni0BD0
</note>
  <outline>
    <contour>
      <point x="268" y="-400" type="curve" smooth="yes"/>
      <point x="606" y="-400"/>
      <point x="617" y="-162"/>
      <point x="771" y="-162" type="curve" smooth="yes"/>
      <point x="834" y="-162" type="line"/>
      <point x="848" y="-96" type="line"/>
      <point x="756" y="-96" type="line" smooth="yes"/>
      <point x="636" y="-96"/>
      <point x="563" y="-15"/>
      <point x="563" y="76" type="curve" smooth="yes"/>
      <point x="563" y="128"/>
      <point x="587" y="183"/>
      <point x="638" y="229" type="curve"/>
      <point x="643" y="226" type="line"/>
      <point x="620" y="187"/>
      <point x="609" y="149"/>
      <point x="609" y="116" type="curve" smooth="yes"/>
      <point x="609" y="45"/>
      <point x="660" y="-5"/>
      <point x="759" y="-5" type="curve" smooth="yes"/>
      <point x="905" y="-5"/>
      <point x="1011" y="94"/>
      <point x="1011" y="245" type="curve" smooth="yes"/>
      <point x="1011" y="458"/>
      <point x="797" y="568"/>
      <point x="539" y="568" type="curve" smooth="yes"/>
      <point x="276" y="568"/>
      <point x="53" y="416"/>
      <point x="53" y="236" type="curve" smooth="yes"/>
      <point x="53" y="116"/>
      <point x="120" y="18"/>
      <point x="261" y="18" type="curve" smooth="yes"/>
      <point x="367" y="18"/>
      <point x="469" y="79"/>
      <point x="469" y="201" type="curve" smooth="yes"/>
      <point x="469" y="290"/>
      <point x="405" y="339"/>
      <point x="320" y="339" type="curve" smooth="yes"/>
      <point x="216" y="339"/>
      <point x="137" y="276"/>
      <point x="94" y="129" type="curve"/>
      <point x="132" y="110" type="line"/>
      <point x="158" y="217"/>
      <point x="215" y="260"/>
      <point x="268" y="260" type="curve" smooth="yes"/>
      <point x="322" y="260"/>
      <point x="339" y="222"/>
      <point x="339" y="185" type="curve" smooth="yes"/>
      <point x="339" y="133"/>
      <point x="309" y="84"/>
      <point x="235" y="84" type="curve" smooth="yes"/>
      <point x="156" y="84"/>
      <point x="115" y="155"/>
      <point x="115" y="240" type="curve" smooth="yes"/>
      <point x="115" y="391"/>
      <point x="328" y="513"/>
      <point x="526" y="513" type="curve" smooth="yes"/>
      <point x="715" y="513"/>
      <point x="866" y="416"/>
      <point x="866" y="260" type="curve" smooth="yes"/>
      <point x="866" y="148"/>
      <point x="818" y="61"/>
      <point x="730" y="61" type="curve" smooth="yes"/>
      <point x="688" y="61"/>
      <point x="669" y="90"/>
      <point x="669" y="130" type="curve" smooth="yes"/>
      <point x="669" y="174"/>
      <point x="691" y="231"/>
      <point x="729" y="276" type="curve"/>
      <point x="678" y="322" type="line"/>
      <point x="577" y="262"/>
      <point x="513" y="158"/>
      <point x="513" y="61" type="curve" smooth="yes"/>
      <point x="513" y="-7"/>
      <point x="544" y="-71"/>
      <point x="615" y="-115" type="curve"/>
      <point x="614" y="-120" type="line"/>
      <point x="473" y="-167"/>
      <point x="452" y="-332"/>
      <point x="229" y="-332" type="curve" smooth="yes"/>
      <point x="126" y="-332"/>
      <point x="68" y="-289"/>
      <point x="68" y="-213" type="curve" smooth="yes"/>
      <point x="68" y="-190"/>
      <point x="73" y="-165"/>
      <point x="83" y="-137" type="curve"/>
      <point x="31" y="-126" type="line"/>
      <point x="18" y="-160"/>
      <point x="12" y="-192"/>
      <point x="12" y="-220" type="curve" smooth="yes"/>
      <point x="12" y="-334"/>
      <point x="109" y="-400"/>
    </contour>
    <contour>
      <point x="116" y="-262" type="line"/>
      <point x="166" y="-262" type="line"/>
      <point x="199" y="-105" type="line"/>
      <point x="149" y="-105" type="line"/>
    </contour>
    <contour>
      <point x="135" y="-262" type="line"/>
      <point x="353" y="-262" type="line"/>
      <point x="363" y="-217" type="line"/>
      <point x="144" y="-217" type="line"/>
    </contour>
    <contour>
      <point x="221" y="-262" type="line"/>
      <point x="269" y="-262" type="line"/>
      <point x="288" y="-174" type="line" smooth="yes"/>
      <point x="291" y="-160"/>
      <point x="300" y="-146"/>
      <point x="319" y="-146" type="curve" smooth="yes"/>
      <point x="340" y="-146"/>
      <point x="347" y="-161"/>
      <point x="343" y="-182" type="curve" smooth="yes"/>
      <point x="326" y="-262" type="line"/>
      <point x="377" y="-262" type="line"/>
      <point x="392" y="-190" type="line" smooth="yes"/>
      <point x="402" y="-141"/>
      <point x="379" y="-103"/>
      <point x="325" y="-103" type="curve" smooth="yes"/>
      <point x="275" y="-103"/>
      <point x="248" y="-135"/>
      <point x="240" y="-174" type="curve" smooth="yes"/>
    </contour>
    <contour>
      <point x="287" y="-81" type="curve" smooth="yes"/>
      <point x="306" y="-81"/>
      <point x="322" y="-65"/>
      <point x="322" y="-48" type="curve" smooth="yes"/>
      <point x="322" y="-30"/>
      <point x="306" y="-15"/>
      <point x="287" y="-15" type="curve" smooth="yes"/>
      <point x="267" y="-15"/>
      <point x="252" y="-30"/>
      <point x="252" y="-48" type="curve" smooth="yes"/>
      <point x="252" y="-65"/>
      <point x="267" y="-81"/>
    </contour>
  </outline>
</glyph>
<glyph name="aulengthmark-tamil" format="2">
  <advance width="1310"/>
  <unicode hex="0BD7"/>
  <note>
uni0BD7
</note>
  <outline>
    <contour>
      <point x="272" y="-5" type="curve" smooth="yes"/>
      <point x="383" y="-5"/>
      <point x="478" y="60"/>
      <point x="478" y="182" type="curve" smooth="yes"/>
      <point x="478" y="271"/>
      <point x="411" y="323"/>
      <point x="327" y="323" type="curve" smooth="yes"/>
      <point x="223" y="323"/>
      <point x="147" y="253"/>
      <point x="104" y="106" type="curve"/>
      <point x="142" y="87" type="line"/>
      <point x="168" y="194"/>
      <point x="222" y="244"/>
      <point x="275" y="244" type="curve" smooth="yes"/>
      <point x="329" y="244"/>
      <point x="348" y="203"/>
      <point x="348" y="166" type="curve" smooth="yes"/>
      <point x="348" y="114"/>
      <point x="320" y="61"/>
      <point x="246" y="61" type="curve" smooth="yes"/>
      <point x="167" y="61"/>
      <point x="116" y="142"/>
      <point x="116" y="227" type="curve" smooth="yes"/>
      <point x="116" y="395"/>
      <point x="250" y="507"/>
      <point x="419" y="507" type="curve" smooth="yes"/>
      <point x="560" y="507"/>
      <point x="676" y="426"/>
      <point x="650" y="291" type="curve"/>
      <point x="713" y="304" type="line"/>
      <point x="728" y="460"/>
      <point x="605" y="568"/>
      <point x="417" y="568" type="curve" smooth="yes"/>
      <point x="208" y="568"/>
      <point x="54" y="426"/>
      <point x="54" y="223" type="curve" smooth="yes"/>
      <point x="54" y="103"/>
      <point x="131" y="-5"/>
    </contour>
    <contour>
      <point x="588" y="0" type="line"/>
      <point x="746" y="0" type="line"/>
      <point x="853" y="502" type="line"/>
      <point x="1035" y="502" type="line"/>
      <point x="928" y="0" type="line"/>
      <point x="1086" y="0" type="line"/>
      <point x="1193" y="502" type="line"/>
      <point x="1341" y="502" type="line"/>
      <point x="1354" y="563" type="line"/>
      <point x="742" y="563" type="line"/>
      <point x="694" y="333" type="line"/>
      <point x="663" y="348" type="line"/>
    </contour>
  </outline>
</glyph>
<glyph name="one-tamil" format="2">
  <advance width="906"/>
  <unicode hex="0BE7"/>
  <note>
uni0BE7
</note>
  <outline>
    <contour>
      <point x="248" y="-4" type="curve" smooth="yes"/>
      <point x="422" y="-4"/>
      <point x="498" y="77"/>
      <point x="527" y="217" type="curve" smooth="yes"/>
      <point x="538" y="270" type="line"/>
      <point x="591" y="270" type="line" smooth="yes"/>
      <point x="649" y="270"/>
      <point x="678" y="234"/>
      <point x="678" y="183" type="curve" smooth="yes"/>
      <point x="678" y="108"/>
      <point x="634" y="61"/>
      <point x="566" y="61" type="curve" smooth="yes"/>
      <point x="518" y="61"/>
      <point x="490" y="87"/>
      <point x="470" y="124" type="curve"/>
      <point x="422" y="90" type="line"/>
      <point x="454" y="32"/>
      <point x="499" y="-5"/>
      <point x="596" y="-5" type="curve" smooth="yes"/>
      <point x="719" y="-5"/>
      <point x="830" y="53"/>
      <point x="830" y="185" type="curve" smooth="yes"/>
      <point x="830" y="282"/>
      <point x="750" y="331"/>
      <point x="605" y="331" type="curve" smooth="yes"/>
      <point x="551" y="331" type="line"/>
      <point x="587" y="502" type="line"/>
      <point x="741" y="502" type="line"/>
      <point x="754" y="563" type="line"/>
      <point x="233" y="563" type="line"/>
      <point x="177" y="299" type="line"/>
      <point x="243" y="299" type="line"/>
      <point x="286" y="502" type="line"/>
      <point x="428" y="502" type="line"/>
      <point x="391" y="331" type="line"/>
      <point x="253" y="331" type="line" smooth="yes"/>
      <point x="130" y="331"/>
      <point x="34" y="264"/>
      <point x="34" y="154" type="curve" smooth="yes"/>
      <point x="34" y="70"/>
      <point x="100" y="-4"/>
    </contour>
    <contour>
      <point x="217" y="61" type="curve" smooth="yes"/>
      <point x="142" y="61"/>
      <point x="106" y="101"/>
      <point x="106" y="163" type="curve" smooth="yes"/>
      <point x="106" y="231"/>
      <point x="151" y="270"/>
      <point x="252" y="270" type="curve" smooth="yes"/>
      <point x="378" y="270" type="line"/>
      <point x="367" y="217" type="line" smooth="yes"/>
      <point x="346" y="118"/>
      <point x="306" y="61"/>
    </contour>
  </outline>
</glyph>
<glyph name="two-tamil" format="2">
  <advance width="983"/>
  <unicode hex="0BE8"/>
  <note>
uni0BE8
</note>
  <outline>
    <contour>
      <point x="110" y="0" type="curve" smooth="yes"/>
      <point x="907" y="0" type="line"/>
      <point x="920" y="61" type="line"/>
      <point x="121" y="61" type="line" smooth="yes"/>
      <point x="104" y="61"/>
      <point x="86" y="71"/>
      <point x="86" y="95" type="curve" smooth="yes"/>
      <point x="86" y="116"/>
      <point x="103" y="134"/>
      <point x="128" y="134" type="curve" smooth="yes"/>
      <point x="376" y="134" type="line" smooth="yes"/>
      <point x="550" y="134"/>
      <point x="725" y="196"/>
      <point x="725" y="369" type="curve" smooth="yes"/>
      <point x="725" y="509"/>
      <point x="591" y="568"/>
      <point x="422" y="568" type="curve" smooth="yes"/>
      <point x="233" y="568"/>
      <point x="112" y="458"/>
      <point x="112" y="336" type="curve" smooth="yes"/>
      <point x="112" y="217"/>
      <point x="200" y="159"/>
      <point x="336" y="159" type="curve"/>
      <point x="343" y="193" type="line"/>
      <point x="242" y="193"/>
      <point x="173" y="249"/>
      <point x="173" y="335" type="curve" smooth="yes"/>
      <point x="173" y="437"/>
      <point x="260" y="507"/>
      <point x="384" y="507" type="curve" smooth="yes"/>
      <point x="496" y="507"/>
      <point x="570" y="461"/>
      <point x="570" y="369" type="curve" smooth="yes"/>
      <point x="570" y="253"/>
      <point x="473" y="193"/>
      <point x="343" y="193" type="curve" smooth="yes"/>
      <point x="142" y="193" type="line" smooth="yes"/>
      <point x="67" y="193"/>
      <point x="21" y="151"/>
      <point x="21" y="90" type="curve" smooth="yes"/>
      <point x="21" y="36"/>
      <point x="54" y="0"/>
    </contour>
  </outline>
</glyph>
<glyph name="five-tamil" format="2">
  <advance width="1184"/>
  <unicode hex="0BEB"/>
  <note>
uni0BEB
</note>
  <outline>
    <contour>
      <point x="489" y="-324" type="curve" smooth="yes"/>
      <point x="792" y="-324"/>
      <point x="1032" y="-134"/>
      <point x="1032" y="154" type="curve" smooth="yes"/>
      <point x="1032" y="272"/>
      <point x="976" y="341"/>
      <point x="872" y="341" type="curve" smooth="yes"/>
      <point x="778" y="341"/>
      <point x="712" y="267"/>
      <point x="694" y="187" type="curve" smooth="yes"/>
      <point x="686" y="152" type="line"/>
      <point x="715" y="152" type="line"/>
      <point x="722" y="188" type="line" smooth="yes"/>
      <point x="729" y="226"/>
      <point x="761" y="252"/>
      <point x="799" y="252" type="curve" smooth="yes"/>
      <point x="852" y="252"/>
      <point x="873" y="214"/>
      <point x="873" y="143" type="curve" smooth="yes"/>
      <point x="873" y="-91"/>
      <point x="719" y="-263"/>
      <point x="476" y="-263" type="curve" smooth="yes"/>
      <point x="254" y="-263"/>
      <point x="110" y="-82"/>
      <point x="110" y="155" type="curve" smooth="yes"/>
      <point x="110" y="506"/>
      <point x="313" y="741"/>
      <point x="654" y="741" type="curve" smooth="yes"/>
      <point x="897" y="741"/>
      <point x="1081" y="624"/>
      <point x="1073" y="385" type="curve"/>
      <point x="1139" y="385" type="line"/>
      <point x="1159" y="673"/>
      <point x="980" y="863"/>
      <point x="669" y="863" type="curve" smooth="yes"/>
      <point x="284" y="863"/>
      <point x="42" y="555"/>
      <point x="42" y="149" type="curve" smooth="yes"/>
      <point x="42" y="-117"/>
      <point x="213" y="-324"/>
    </contour>
    <contour>
      <point x="297" y="0" type="line"/>
      <point x="364" y="0" type="line"/>
      <point x="471" y="502" type="line"/>
      <point x="628" y="502" type="line"/>
      <point x="521" y="0" type="line"/>
      <point x="682" y="0" type="line"/>
      <point x="789" y="502" type="line"/>
      <point x="930" y="502" type="line"/>
      <point x="942" y="563" type="line"/>
      <point x="416" y="563" type="line"/>
    </contour>
  </outline>
</glyph>
<glyph name="six-tamil" format="2">
  <advance width="1239"/>
  <unicode hex="0BEC"/>
  <note>
uni0BEC
</note>
  <outline>
    <contour>
      <point x="248" y="-4" type="curve" smooth="yes"/>
      <point x="422" y="-4"/>
      <point x="498" y="77"/>
      <point x="527" y="217" type="curve" smooth="yes"/>
      <point x="538" y="270" type="line"/>
      <point x="633" y="270" type="line" smooth="yes"/>
      <point x="671" y="270"/>
      <point x="687" y="247"/>
      <point x="679" y="208" type="curve" smooth="yes"/>
      <point x="635" y="0" type="line"/>
      <point x="778" y="0" type="line"/>
      <point x="822" y="208" type="line" smooth="yes"/>
      <point x="830" y="247"/>
      <point x="855" y="270"/>
      <point x="895" y="270" type="curve" smooth="yes"/>
      <point x="1197" y="270" type="line"/>
      <point x="1210" y="331" type="line"/>
      <point x="883" y="331" type="line" smooth="yes"/>
      <point x="826" y="331"/>
      <point x="777" y="300"/>
      <point x="757" y="252" type="curve"/>
      <point x="753" y="303"/>
      <point x="720" y="331"/>
      <point x="658" y="331" type="curve" smooth="yes"/>
      <point x="551" y="331" type="line"/>
      <point x="587" y="502" type="line"/>
      <point x="741" y="502" type="line"/>
      <point x="754" y="563" type="line"/>
      <point x="233" y="563" type="line"/>
      <point x="177" y="299" type="line"/>
      <point x="243" y="299" type="line"/>
      <point x="286" y="502" type="line"/>
      <point x="428" y="502" type="line"/>
      <point x="391" y="331" type="line"/>
      <point x="253" y="331" type="line" smooth="yes"/>
      <point x="130" y="331"/>
      <point x="34" y="264"/>
      <point x="34" y="154" type="curve" smooth="yes"/>
      <point x="34" y="70"/>
      <point x="100" y="-4"/>
    </contour>
    <contour>
      <point x="217" y="61" type="curve" smooth="yes"/>
      <point x="142" y="61"/>
      <point x="106" y="101"/>
      <point x="106" y="163" type="curve" smooth="yes"/>
      <point x="106" y="231"/>
      <point x="151" y="270"/>
      <point x="252" y="270" type="curve" smooth="yes"/>
      <point x="378" y="270" type="line"/>
      <point x="367" y="217" type="line" smooth="yes"/>
      <point x="346" y="118"/>
      <point x="306" y="61"/>
    </contour>
    <contour>
      <point x="912" y="0" type="line"/>
      <point x="1056" y="0" type="line"/>
      <point x="1119" y="297" type="line"/>
      <point x="975" y="297" type="line"/>
    </contour>
  </outline>
</glyph>
<glyph name="eight-tamil" format="2">
  <advance width="1325"/>
  <unicode hex="0BEE"/>
  <note>
uni0BEE
</note>
  <outline>
    <contour>
      <point x="975" y="-212" type="line"/>
      <point x="1132" y="-212" type="line"/>
      <point x="1297" y="563" type="line"/>
      <point x="1140" y="563" type="line"/>
      <point x="1056" y="165" type="line"/>
      <point x="94" y="165" type="line" smooth="yes"/>
      <point x="21" y="165"/>
      <point x="-17" y="119"/>
      <point x="-17" y="58" type="curve" smooth="yes"/>
      <point x="-17" y="-44"/>
      <point x="123" y="-151"/>
      <point x="382" y="-151" type="curve" smooth="yes"/>
      <point x="706" y="-151"/>
      <point x="987" y="1"/>
      <point x="987" y="289" type="curve" smooth="yes"/>
      <point x="987" y="487"/>
      <point x="852" y="568"/>
      <point x="683" y="568" type="curve" smooth="yes"/>
      <point x="514" y="568"/>
      <point x="384" y="445"/>
      <point x="384" y="292" type="curve" smooth="yes"/>
      <point x="384" y="231"/>
      <point x="401" y="181"/>
      <point x="429" y="137" type="curve"/>
      <point x="501" y="137" type="line"/>
      <point x="466" y="179"/>
      <point x="448" y="236"/>
      <point x="448" y="287" type="curve" smooth="yes"/>
      <point x="448" y="407"/>
      <point x="533" y="506"/>
      <point x="658" y="506" type="curve" smooth="yes"/>
      <point x="755" y="506"/>
      <point x="836" y="453"/>
      <point x="836" y="321" type="curve" smooth="yes"/>
      <point x="836" y="68"/>
      <point x="629" y="-89"/>
      <point x="376" y="-89" type="curve" smooth="yes"/>
      <point x="173" y="-89"/>
      <point x="51" y="-13"/>
      <point x="51" y="61" type="curve" smooth="yes"/>
      <point x="51" y="87"/>
      <point x="60" y="104"/>
      <point x="94" y="104" type="curve" smooth="yes"/>
      <point x="1043" y="104" type="line"/>
    </contour>
  </outline>
</glyph>
<glyph name="nine-tamil" format="2">
  <advance width="1273"/>
  <unicode hex="0BEF"/>
  <note>
uni0BEF
</note>
  <outline>
    <contour>
      <point x="1021" y="-19" type="line"/>
      <point x="1139" y="34"/>
      <point x="1221" y="103"/>
      <point x="1221" y="226" type="curve" smooth="yes"/>
      <point x="1221" y="359"/>
      <point x="1092" y="427"/>
      <point x="930" y="427" type="curve" smooth="yes"/>
      <point x="747" y="427"/>
      <point x="595" y="311"/>
      <point x="595" y="148" type="curve" smooth="yes"/>
      <point x="595" y="57"/>
      <point x="658" y="-5"/>
      <point x="758" y="-5" type="curve" smooth="yes"/>
      <point x="879" y="-5"/>
      <point x="966" y="66"/>
      <point x="966" y="182" type="curve" smooth="yes"/>
      <point x="966" y="276"/>
      <point x="895" y="331"/>
      <point x="748" y="331" type="curve" smooth="yes"/>
      <point x="551" y="331" type="line"/>
      <point x="587" y="502" type="line"/>
      <point x="741" y="502" type="line"/>
      <point x="754" y="563" type="line"/>
      <point x="233" y="563" type="line"/>
      <point x="177" y="299" type="line"/>
      <point x="243" y="299" type="line"/>
      <point x="286" y="502" type="line"/>
      <point x="428" y="502" type="line"/>
      <point x="391" y="331" type="line"/>
      <point x="253" y="331" type="line" smooth="yes"/>
      <point x="130" y="331"/>
      <point x="34" y="264"/>
      <point x="34" y="154" type="curve" smooth="yes"/>
      <point x="34" y="70"/>
      <point x="100" y="-4"/>
      <point x="248" y="-4" type="curve" smooth="yes"/>
      <point x="422" y="-4"/>
      <point x="498" y="77"/>
      <point x="527" y="217" type="curve" smooth="yes"/>
      <point x="538" y="270" type="line"/>
      <point x="728" y="270" type="line" smooth="yes"/>
      <point x="806" y="270"/>
      <point x="845" y="233"/>
      <point x="845" y="173" type="curve" smooth="yes"/>
      <point x="845" y="103"/>
      <point x="801" y="61"/>
      <point x="740" y="61" type="curve" smooth="yes"/>
      <point x="691" y="61"/>
      <point x="662" y="94"/>
      <point x="662" y="152" type="curve" smooth="yes"/>
      <point x="662" y="281"/>
      <point x="768" y="366"/>
      <point x="910" y="366" type="curve" smooth="yes"/>
      <point x="1023" y="366"/>
      <point x="1100" y="317"/>
      <point x="1100" y="221" type="curve" smooth="yes"/>
      <point x="1100" y="135"/>
      <point x="1060" y="76"/>
      <point x="995" y="29" type="curve"/>
    </contour>
    <contour>
      <point x="217" y="61" type="curve" smooth="yes"/>
      <point x="142" y="61"/>
      <point x="106" y="101"/>
      <point x="106" y="163" type="curve" smooth="yes"/>
      <point x="106" y="231"/>
      <point x="151" y="270"/>
      <point x="252" y="270" type="curve" smooth="yes"/>
      <point x="378" y="270" type="line"/>
      <point x="367" y="217" type="line" smooth="yes"/>
      <point x="346" y="118"/>
      <point x="306" y="61"/>
    </contour>
  </outline>
</glyph>
<glyph name="ten-tamil" format="2">
  <advance width="937"/>
  <unicode hex="0BF0"/>
  <note>
uni0BF0
</note>
  <outline>
    <contour>
      <point x="535" y="-5" type="curve" smooth="yes"/>
      <point x="750" y="-5"/>
      <point x="897" y="180"/>
      <point x="897" y="425" type="curve" smooth="yes"/>
      <point x="897" y="649"/>
      <point x="778" y="771"/>
      <point x="523" y="823" type="curve"/>
      <point x="500" y="763" type="line"/>
      <point x="728" y="715"/>
      <point x="830" y="615"/>
      <point x="830" y="419" type="curve" smooth="yes"/>
      <point x="830" y="234"/>
      <point x="721" y="66"/>
      <point x="581" y="66" type="curve" smooth="yes"/>
      <point x="531" y="66"/>
      <point x="520" y="105"/>
      <point x="529" y="149" type="curve" smooth="yes"/>
      <point x="618" y="563" type="line"/>
      <point x="459" y="563" type="line"/>
      <point x="381" y="200" type="line" smooth="yes"/>
      <point x="354" y="73"/>
      <point x="411" y="-5"/>
    </contour>
    <contour>
      <point x="211" y="-10" type="curve" smooth="yes"/>
      <point x="300" y="-10"/>
      <point x="378" y="29"/>
      <point x="405" y="144" type="curve" smooth="yes"/>
      <point x="426" y="235" type="line"/>
      <point x="390" y="235" type="line"/>
      <point x="371" y="151" type="line" smooth="yes"/>
      <point x="360" y="102"/>
      <point x="326" y="62"/>
      <point x="279" y="62" type="curve" smooth="yes"/>
      <point x="235" y="62"/>
      <point x="209" y="100"/>
      <point x="223" y="164" type="curve" smooth="yes"/>
      <point x="308" y="563" type="line"/>
      <point x="147" y="563" type="line"/>
      <point x="67" y="182" type="line" smooth="yes"/>
      <point x="45" y="76"/>
      <point x="104" y="-10"/>
    </contour>
  </outline>
</glyph>
<glyph name="onehundred-tamil" format="2">
  <advance width="963"/>
  <unicode hex="0BF1"/>
  <note>
uni0BF1
</note>
  <outline>
    <contour>
      <point x="275" y="0" type="line"/>
      <point x="343" y="0" type="line"/>
      <point x="450" y="502" type="line"/>
      <point x="635" y="502" type="line"/>
      <point x="528" y="0" type="line"/>
      <point x="686" y="0" type="line"/>
      <point x="793" y="502" type="line"/>
      <point x="946" y="502" type="line"/>
      <point x="959" y="563" type="line"/>
      <point x="395" y="563" type="line"/>
    </contour>
    <contour>
      <point x="27" y="0" type="line"/>
      <point x="96" y="0" type="line"/>
      <point x="180" y="399" type="line" smooth="yes"/>
      <point x="193" y="461"/>
      <point x="222" y="505"/>
      <point x="283" y="505" type="curve" smooth="yes"/>
      <point x="340" y="505"/>
      <point x="374" y="463"/>
      <point x="355" y="371" type="curve"/>
      <point x="388" y="371" type="line"/>
      <point x="414" y="499"/>
      <point x="359" y="568"/>
      <point x="272" y="568" type="curve" smooth="yes"/>
      <point x="184" y="568"/>
      <point x="134" y="501"/>
      <point x="114" y="408" type="curve" smooth="yes"/>
    </contour>
  </outline>
</glyph>
<glyph name="day-tamil" format="2">
  <advance width="881"/>
  <unicode hex="0BF3"/>
  <note>
uni0BF3
</note>
  <outline>
    <contour>
      <point x="211" y="-5" type="curve" smooth="yes"/>
      <point x="317" y="-5"/>
      <point x="407" y="67"/>
      <point x="407" y="189" type="curve" smooth="yes"/>
      <point x="407" y="289"/>
      <point x="337" y="343"/>
      <point x="253" y="343" type="curve" smooth="yes"/>
      <point x="155" y="343"/>
      <point x="103" y="278"/>
      <point x="58" y="197" type="curve"/>
      <point x="66" y="156" type="line"/>
      <point x="109" y="222"/>
      <point x="148" y="264"/>
      <point x="201" y="264" type="curve" smooth="yes"/>
      <point x="255" y="264"/>
      <point x="277" y="220"/>
      <point x="277" y="173" type="curve" smooth="yes"/>
      <point x="277" y="121"/>
      <point x="253" y="61"/>
      <point x="184" y="61" type="curve" smooth="yes"/>
      <point x="124" y="61"/>
      <point x="95" y="136"/>
      <point x="95" y="211" type="curve" smooth="yes"/>
      <point x="95" y="386"/>
      <point x="225" y="507"/>
      <point x="365" y="507" type="curve" smooth="yes"/>
      <point x="483" y="507"/>
      <point x="558" y="439"/>
      <point x="558" y="306" type="curve" smooth="yes"/>
      <point x="558" y="200"/>
      <point x="506" y="114"/>
      <point x="441" y="44" type="curve"/>
      <point x="452" y="0" type="line"/>
      <point x="806" y="0" type="line"/>
      <point x="819" y="61" type="line"/>
      <point x="567" y="61" type="line"/>
      <point x="642" y="123"/>
      <point x="709" y="210"/>
      <point x="709" y="321" type="curve" smooth="yes"/>
      <point x="709" y="484"/>
      <point x="573" y="568"/>
      <point x="390" y="568" type="curve" smooth="yes"/>
      <point x="191" y="568"/>
      <point x="33" y="416"/>
      <point x="33" y="207" type="curve" smooth="yes"/>
      <point x="33" y="104"/>
      <point x="90" y="-5"/>
    </contour>
  </outline>
</glyph>
<glyph name="month-tamil" format="2">
  <advance width="1240"/>
  <unicode hex="0BF4"/>
  <note>
uni0BF4
</note>
  <anchor x="418" y="0" name="bottom"/>
  <anchor x="949" y="563" name="imatra"/>
  <anchor x="418" y="0" name="nukta"/>
  <anchor x="575" y="563" name="top"/>
  <anchor x="554" y="563" name="vedic"/>
  <outline>
    <contour>
      <point x="812" y="467" type="curve"/>
      <point x="849" y="489" type="line"/>
      <point x="821" y="530"/>
      <point x="796" y="569"/>
      <point x="796" y="631" type="curve" smooth="yes"/>
      <point x="796" y="733"/>
      <point x="873" y="810"/>
      <point x="976" y="810" type="curve" smooth="yes"/>
      <point x="1039" y="810"/>
      <point x="1077" y="777"/>
      <point x="1077" y="725" type="curve" smooth="yes"/>
      <point x="1077" y="681"/>
      <point x="1047" y="642"/>
      <point x="997" y="642" type="curve" smooth="yes"/>
      <point x="959" y="642"/>
      <point x="942" y="675"/>
      <point x="942" y="722" type="curve" smooth="yes"/>
      <point x="942" y="825"/>
      <point x="1022" y="909"/>
      <point x="1138" y="909" type="curve" smooth="yes"/>
      <point x="1221" y="909"/>
      <point x="1273" y="869"/>
      <point x="1256" y="787" type="curve" smooth="yes"/>
      <point x="1213" y="581" type="line"/>
      <point x="1332" y="581" type="line"/>
      <point x="1378" y="800" type="line" smooth="yes"/>
      <point x="1392" y="868"/>
      <point x="1429" y="905"/>
      <point x="1491" y="896" type="curve"/>
      <point x="1514" y="961" type="line"/>
      <point x="1427" y="975"/>
      <point x="1366" y="932"/>
      <point x="1331" y="850" type="curve"/>
      <point x="1326" y="850" type="line"/>
      <point x="1315" y="930"/>
      <point x="1236" y="970"/>
      <point x="1147" y="970" type="curve" smooth="yes"/>
      <point x="1006" y="970"/>
      <point x="878" y="852"/>
      <point x="878" y="719" type="curve" smooth="yes"/>
      <point x="878" y="633"/>
      <point x="926" y="576"/>
      <point x="1009" y="576" type="curve" smooth="yes"/>
      <point x="1095" y="576"/>
      <point x="1174" y="633"/>
      <point x="1174" y="730" type="curve" smooth="yes"/>
      <point x="1174" y="818"/>
      <point x="1108" y="871"/>
      <point x="988" y="871" type="curve" smooth="yes"/>
      <point x="856" y="871"/>
      <point x="730" y="767"/>
      <point x="730" y="634" type="curve" smooth="yes"/>
      <point x="730" y="569"/>
      <point x="757" y="521"/>
    </contour>
    <component base="ma-tamil"/>
  </outline>
</glyph>
<glyph name="year-tamil" format="2">
  <advance width="2303"/>
  <unicode hex="0BF5"/>
  <note>
uni0BF5
</note>
  <anchor x="889" y="0" name="bottom"/>
  <anchor x="1431" y="563" name="imatra"/>
  <anchor x="889" y="0" name="nukta"/>
  <anchor x="1008" y="563" name="top"/>
  <anchor x="961" y="563" name="vedic"/>
  <outline>
    <contour>
      <point x="780" y="-322" type="curve" smooth="yes"/>
      <point x="1224" y="-322"/>
      <point x="1639" y="-169"/>
      <point x="1639" y="163" type="curve" smooth="yes"/>
      <point x="1639" y="277"/>
      <point x="1580" y="341"/>
      <point x="1481" y="341" type="curve" smooth="yes"/>
      <point x="1387" y="341"/>
      <point x="1319" y="266"/>
      <point x="1301" y="187" type="curve" smooth="yes"/>
      <point x="1293" y="152" type="line"/>
      <point x="1322" y="152" type="line"/>
      <point x="1329" y="188" type="line" smooth="yes"/>
      <point x="1336" y="225"/>
      <point x="1365" y="252"/>
      <point x="1403" y="252" type="curve" smooth="yes"/>
      <point x="1452" y="252"/>
      <point x="1474" y="218"/>
      <point x="1474" y="147" type="curve" smooth="yes"/>
      <point x="1474" y="-131"/>
      <point x="1150" y="-261"/>
      <point x="778" y="-261" type="curve" smooth="yes"/>
      <point x="386" y="-261"/>
      <point x="132" y="-108"/>
      <point x="132" y="181" type="curve" smooth="yes"/>
      <point x="132" y="568"/>
      <point x="558" y="802"/>
      <point x="1056" y="802" type="curve" smooth="yes"/>
      <point x="1460" y="802"/>
      <point x="1860" y="634"/>
      <point x="1781" y="284" type="curve" smooth="yes"/>
      <point x="1762" y="200" type="line" smooth="yes"/>
      <point x="1734" y="78"/>
      <point x="1807" y="-5"/>
      <point x="1950" y="-5" type="curve" smooth="yes"/>
      <point x="2144" y="-5"/>
      <point x="2271" y="163"/>
      <point x="2271" y="357" type="curve" smooth="yes"/>
      <point x="2271" y="442"/>
      <point x="2251" y="504"/>
      <point x="2217" y="567" type="curve"/>
      <point x="2160" y="537" type="line"/>
      <point x="2191" y="477"/>
      <point x="2207" y="422"/>
      <point x="2207" y="346" type="curve" smooth="yes"/>
      <point x="2207" y="194"/>
      <point x="2102" y="56"/>
      <point x="1983" y="56" type="curve" smooth="yes"/>
      <point x="1912" y="56"/>
      <point x="1899" y="115"/>
      <point x="1916" y="185" type="curve" smooth="yes"/>
      <point x="1938" y="274" type="line" smooth="yes"/>
      <point x="2040" y="688"/>
      <point x="1561" y="863"/>
      <point x="1064" y="863" type="curve" smooth="yes"/>
      <point x="496" y="863"/>
      <point x="66" y="592"/>
      <point x="66" y="176" type="curve" smooth="yes"/>
      <point x="66" y="-138"/>
      <point x="345" y="-322"/>
    </contour>
    <component base="lla-tamil" xOffset="221"/>
  </outline>
</glyph>
<glyph name="credit-tamil" format="2">
  <advance width="1625"/>
  <unicode hex="0BF7"/>
  <note>
uni0BF7
</note>
  <anchor x="463" y="0" name="bottom"/>
  <anchor x="464" y="0" name="nukta"/>
  <anchor x="584" y="563" name="top"/>
  <anchor x="585" y="563" name="vedic"/>
  <outline>
    <contour>
      <point x="1013" y="-5" type="curve" smooth="yes"/>
      <point x="1118" y="-5"/>
      <point x="1208" y="58"/>
      <point x="1208" y="174" type="curve" smooth="yes"/>
      <point x="1208" y="268"/>
      <point x="1140" y="326"/>
      <point x="1011" y="326" type="curve" smooth="yes"/>
      <point x="916" y="326"/>
      <point x="810" y="278"/>
      <point x="716" y="208" type="curve"/>
      <point x="700" y="133" type="line"/>
      <point x="789" y="211"/>
      <point x="890" y="263"/>
      <point x="979" y="263" type="curve" smooth="yes"/>
      <point x="1049" y="263"/>
      <point x="1087" y="229"/>
      <point x="1087" y="169" type="curve" smooth="yes"/>
      <point x="1087" y="99"/>
      <point x="1048" y="61"/>
      <point x="995" y="61" type="curve" smooth="yes"/>
      <point x="946" y="61"/>
      <point x="918" y="98"/>
      <point x="918" y="156" type="curve" smooth="yes"/>
      <point x="918" y="272"/>
      <point x="1050" y="366"/>
      <point x="1192" y="366" type="curve" smooth="yes"/>
      <point x="1295" y="366"/>
      <point x="1362" y="319"/>
      <point x="1362" y="225" type="curve" smooth="yes"/>
      <point x="1362" y="150"/>
      <point x="1323" y="97"/>
      <point x="1259" y="44" type="curve"/>
      <point x="1270" y="0" type="line"/>
      <point x="1545" y="0" type="line"/>
      <point x="1558" y="61" type="line"/>
      <point x="1322" y="61" type="line"/>
      <point x="1336" y="38" type="line"/>
      <point x="1421" y="82"/>
      <point x="1483" y="145"/>
      <point x="1483" y="235" type="curve" smooth="yes"/>
      <point x="1483" y="362"/>
      <point x="1356" y="427"/>
      <point x="1212" y="427" type="curve" smooth="yes"/>
      <point x="1029" y="427"/>
      <point x="857" y="302"/>
      <point x="857" y="153" type="curve" smooth="yes"/>
      <point x="857" y="61"/>
      <point x="915" y="-5"/>
    </contour>
    <component base="e-tamil"/>
  </outline>
</glyph>
<glyph name="asabove-tamil" format="2">
  <advance width="2059"/>
  <unicode hex="0BF8"/>
  <note>
uni0BF8
</note>
  <outline>
    <contour>
      <point x="749" y="-5" type="curve" smooth="yes"/>
      <point x="891" y="-5"/>
      <point x="1004" y="104"/>
      <point x="1004" y="278" type="curve" smooth="yes"/>
      <point x="1004" y="523"/>
      <point x="802" y="648"/>
      <point x="552" y="648" type="curve" smooth="yes"/>
      <point x="277" y="648"/>
      <point x="53" y="453"/>
      <point x="53" y="223" type="curve" smooth="yes"/>
      <point x="53" y="103"/>
      <point x="130" y="-5"/>
      <point x="271" y="-5" type="curve" smooth="yes"/>
      <point x="382" y="-5"/>
      <point x="477" y="60"/>
      <point x="477" y="182" type="curve" smooth="yes"/>
      <point x="477" y="271"/>
      <point x="410" y="323"/>
      <point x="326" y="323" type="curve" smooth="yes"/>
      <point x="222" y="323"/>
      <point x="146" y="253"/>
      <point x="103" y="106" type="curve"/>
      <point x="141" y="87" type="line"/>
      <point x="167" y="194"/>
      <point x="221" y="244"/>
      <point x="274" y="244" type="curve" smooth="yes"/>
      <point x="328" y="244"/>
      <point x="347" y="203"/>
      <point x="347" y="166" type="curve" smooth="yes"/>
      <point x="347" y="114"/>
      <point x="319" y="61"/>
      <point x="245" y="61" type="curve" smooth="yes"/>
      <point x="166" y="61"/>
      <point x="115" y="142"/>
      <point x="115" y="227" type="curve" smooth="yes"/>
      <point x="115" y="422"/>
      <point x="307" y="587"/>
      <point x="543" y="587" type="curve" smooth="yes"/>
      <point x="738" y="587"/>
      <point x="862" y="476"/>
      <point x="862" y="292" type="curve" smooth="yes"/>
      <point x="862" y="147"/>
      <point x="804" y="63"/>
      <point x="718" y="63" type="curve" smooth="yes"/>
      <point x="662" y="63"/>
      <point x="633" y="115"/>
      <point x="633" y="194" type="curve" smooth="yes"/>
      <point x="633" y="360"/>
      <point x="803" y="507"/>
      <point x="981" y="507" type="curve" smooth="yes"/>
      <point x="1116" y="507"/>
      <point x="1205" y="430"/>
      <point x="1205" y="297" type="curve" smooth="yes"/>
      <point x="1205" y="191"/>
      <point x="1154" y="114"/>
      <point x="1080" y="44" type="curve"/>
      <point x="1091" y="0" type="line"/>
      <point x="1980" y="0" type="line"/>
      <point x="1993" y="61" type="line"/>
      <point x="1204" y="61" type="line"/>
      <point x="1292" y="126"/>
      <point x="1351" y="201"/>
      <point x="1351" y="312" type="curve" smooth="yes"/>
      <point x="1351" y="473"/>
      <point x="1201" y="568"/>
      <point x="997" y="568" type="curve" smooth="yes"/>
      <point x="764" y="568"/>
      <point x="570" y="376"/>
      <point x="570" y="194" type="curve" smooth="yes"/>
      <point x="570" y="83"/>
      <point x="620" y="-5"/>
    </contour>
    <contour>
      <point x="1602" y="-324" type="line"/>
      <point x="1758" y="-324" type="line"/>
      <point x="1904" y="360" type="line" smooth="yes"/>
      <point x="1932" y="489"/>
      <point x="1874" y="568"/>
      <point x="1745" y="568" type="curve" smooth="yes"/>
      <point x="1570" y="568"/>
      <point x="1462" y="404"/>
      <point x="1462" y="245" type="curve" smooth="yes"/>
      <point x="1462" y="115"/>
      <point x="1534" y="12"/>
      <point x="1667" y="12" type="curve"/>
      <point x="1678" y="61" type="line"/>
      <point x="1576" y="61"/>
      <point x="1523" y="148"/>
      <point x="1523" y="251" type="curve" smooth="yes"/>
      <point x="1523" y="359"/>
      <point x="1583" y="474"/>
      <point x="1689" y="474" type="curve" smooth="yes"/>
      <point x="1740" y="474"/>
      <point x="1764" y="442"/>
      <point x="1752" y="384" type="curve" smooth="yes"/>
    </contour>
  </outline>
</glyph>
<glyph name="number-tamil" format="2">
  <advance width="962"/>
  <unicode hex="0BFA"/>
  <note>
uni0BFA
</note>
  <anchor x="325" y="0" name="bottom"/>
  <anchor x="575" y="563" name="imatra"/>
  <anchor x="286" y="-228" name="nukta"/>
  <anchor x="455" y="563" name="top"/>
  <anchor x="489" y="563" name="vedic"/>
  <outline>
    <contour>
      <point x="795" y="502" type="line"/>
      <point x="1018" y="502" type="line"/>
      <point x="1031" y="561" type="line"/>
      <point x="857" y="561" type="line"/>
      <point x="862" y="535" type="line"/>
      <point x="953" y="585"/>
      <point x="1059" y="657"/>
      <point x="1059" y="786" type="curve" smooth="yes"/>
      <point x="1059" y="892"/>
      <point x="971" y="954"/>
      <point x="854" y="954" type="curve" smooth="yes"/>
      <point x="726" y="954"/>
      <point x="606" y="852"/>
      <point x="606" y="726" type="curve" smooth="yes"/>
      <point x="606" y="661"/>
      <point x="644" y="607"/>
      <point x="726" y="607" type="curve" smooth="yes"/>
      <point x="807" y="607"/>
      <point x="877" y="662"/>
      <point x="877" y="747" type="curve" smooth="yes"/>
      <point x="877" y="839"/>
      <point x="793" y="880"/>
      <point x="693" y="880" type="curve" smooth="yes"/>
      <point x="569" y="880"/>
      <point x="457" y="796"/>
      <point x="457" y="680" type="curve" smooth="yes"/>
      <point x="457" y="590"/>
      <point x="515" y="533"/>
      <point x="601" y="526" type="curve"/>
      <point x="627" y="563" type="line"/>
      <point x="563" y="563"/>
      <point x="523" y="611"/>
      <point x="523" y="674" type="curve" smooth="yes"/>
      <point x="523" y="758"/>
      <point x="588" y="819"/>
      <point x="680" y="819" type="curve" smooth="yes"/>
      <point x="749" y="819"/>
      <point x="781" y="788"/>
      <point x="781" y="742" type="curve" smooth="yes"/>
      <point x="781" y="698"/>
      <point x="751" y="671"/>
      <point x="716" y="671" type="curve" smooth="yes"/>
      <point x="682" y="671"/>
      <point x="668" y="697"/>
      <point x="668" y="735" type="curve" smooth="yes"/>
      <point x="668" y="817"/>
      <point x="742" y="886"/>
      <point x="838" y="886" type="curve" smooth="yes"/>
      <point x="915" y="886"/>
      <point x="959" y="845"/>
      <point x="959" y="772" type="curve" smooth="yes"/>
      <point x="959" y="661"/>
      <point x="881" y="599"/>
      <point x="791" y="551" type="curve"/>
    </contour>
    <component base="na-tamil"/>
  </outline>
</glyph>
<glyph name="doubleSvarita-vedic" format="2">
  <unicode hex="1CDA"/>
  <note>
uni1CDA
</note>
  <anchor x="61" y="563" name="_vedic"/>
  <outline>
    <contour>
      <point x="33" y="930" type="line"/>
      <point x="111" y="930" type="line"/>
      <point x="155" y="1135" type="line"/>
      <point x="77" y="1135" type="line"/>
    </contour>
    <contour>
      <point x="166" y="930" type="line"/>
      <point x="245" y="930" type="line"/>
      <point x="288" y="1135" type="line"/>
      <point x="210" y="1135" type="line"/>
    </contour>
  </outline>
</glyph>
<glyph name="quoteright" format="2">
  <advance width="280"/>
  <unicode hex="2019"/>
  <outline>
    <contour>
      <point x="87" y="411" type="line"/>
      <point x="233" y="439"/>
      <point x="307" y="522"/>
      <point x="307" y="624" type="curve" smooth="yes"/>
      <point x="307" y="682"/>
      <point x="268" y="715"/>
      <point x="220" y="715" type="curve" smooth="yes"/>
      <point x="180" y="715"/>
      <point x="145" y="689"/>
      <point x="145" y="646" type="curve" smooth="yes"/>
      <point x="145" y="588"/>
      <point x="201" y="589"/>
      <point x="201" y="547" type="curve" smooth="yes"/>
      <point x="201" y="508"/>
      <point x="166" y="480"/>
      <point x="98" y="464" type="curve"/>
    </contour>
  </outline>
</glyph>
<glyph name="quotedblleft" format="2">
  <advance width="489"/>
  <unicode hex="201C"/>
  <outline>
    <contour>
      <point x="409" y="411" type="curve" smooth="yes"/>
      <point x="449" y="411"/>
      <point x="484" y="437"/>
      <point x="484" y="480" type="curve" smooth="yes"/>
      <point x="484" y="538"/>
      <point x="428" y="537"/>
      <point x="428" y="579" type="curve" smooth="yes"/>
      <point x="428" y="618"/>
      <point x="463" y="646"/>
      <point x="531" y="662" type="curve"/>
      <point x="542" y="715" type="line"/>
      <point x="396" y="687"/>
      <point x="322" y="604"/>
      <point x="322" y="502" type="curve" smooth="yes"/>
      <point x="322" y="444"/>
      <point x="361" y="411"/>
    </contour>
    <contour>
      <point x="200" y="411" type="curve" smooth="yes"/>
      <point x="240" y="411"/>
      <point x="275" y="437"/>
      <point x="275" y="480" type="curve" smooth="yes"/>
      <point x="275" y="538"/>
      <point x="219" y="537"/>
      <point x="219" y="579" type="curve" smooth="yes"/>
      <point x="219" y="618"/>
      <point x="254" y="646"/>
      <point x="322" y="662" type="curve"/>
      <point x="333" y="715" type="line"/>
      <point x="187" y="687"/>
      <point x="113" y="604"/>
      <point x="113" y="502" type="curve" smooth="yes"/>
      <point x="113" y="444"/>
      <point x="152" y="411"/>
    </contour>
  </outline>
</glyph>
<glyph name="ellipsis" format="2">
  <advance width="915"/>
  <unicode hex="2026"/>
  <outline>
    <contour>
      <point x="732" y="-8" type="curve" smooth="yes"/>
      <point x="770" y="-8"/>
      <point x="811" y="15"/>
      <point x="811" y="81" type="curve" smooth="yes"/>
      <point x="811" y="127"/>
      <point x="778" y="150"/>
      <point x="736" y="150" type="curve" smooth="yes"/>
      <point x="688" y="150"/>
      <point x="657" y="115"/>
      <point x="657" y="61" type="curve" smooth="yes"/>
      <point x="657" y="15"/>
      <point x="687" y="-8"/>
    </contour>
    <contour>
      <point x="123" y="-9" type="curve" smooth="yes"/>
      <point x="161" y="-9"/>
      <point x="202" y="14"/>
      <point x="202" y="80" type="curve" smooth="yes"/>
      <point x="202" y="126"/>
      <point x="169" y="149"/>
      <point x="127" y="149" type="curve" smooth="yes"/>
      <point x="79" y="149"/>
      <point x="48" y="114"/>
      <point x="48" y="60" type="curve" smooth="yes"/>
      <point x="48" y="14"/>
      <point x="78" y="-9"/>
    </contour>
    <contour>
      <point x="428" y="-9" type="curve" smooth="yes"/>
      <point x="466" y="-9"/>
      <point x="507" y="14"/>
      <point x="507" y="80" type="curve" smooth="yes"/>
      <point x="507" y="126"/>
      <point x="474" y="149"/>
      <point x="432" y="149" type="curve" smooth="yes"/>
      <point x="384" y="149"/>
      <point x="353" y="114"/>
      <point x="353" y="60" type="curve" smooth="yes"/>
      <point x="353" y="14"/>
      <point x="383" y="-9"/>
    </contour>
  </outline>
</glyph>
<glyph name="rupeeIndian" format="2">
  <advance width="548"/>
  <unicode hex="20B9"/>
  <outline>
    <contour>
      <point x="331" y="0" type="curve" smooth="yes"/>
      <point x="383" y="0" type="line"/>
      <point x="394" y="53" type="line"/>
      <point x="391" y="53" type="line" smooth="yes"/>
      <point x="353" y="53"/>
      <point x="327" y="82"/>
      <point x="305" y="135" type="curve" smooth="yes"/>
      <point x="227" y="325" type="line"/>
      <point x="336" y="344"/>
      <point x="407" y="392"/>
      <point x="440" y="491" type="curve"/>
      <point x="550" y="491" type="line"/>
      <point x="563" y="550" type="line"/>
      <point x="453" y="550" type="line"/>
      <point x="460" y="598"/>
      <point x="450" y="624"/>
      <point x="425" y="655" type="curve"/>
      <point x="585" y="655" type="line"/>
      <point x="598" y="714" type="line"/>
      <point x="137" y="714" type="line"/>
      <point x="125" y="655" type="line"/>
      <point x="204" y="655" type="line" smooth="yes"/>
      <point x="274" y="655"/>
      <point x="297" y="626"/>
      <point x="287" y="550" type="curve"/>
      <point x="102" y="550" type="line"/>
      <point x="90" y="491" type="line"/>
      <point x="275" y="491" type="line"/>
      <point x="247" y="407"/>
      <point x="165" y="368"/>
      <point x="82" y="368" type="curve" smooth="yes"/>
      <point x="64" y="368" type="line"/>
      <point x="53" y="320" type="line"/>
      <point x="141" y="90" type="line" smooth="yes"/>
      <point x="169" y="16"/>
      <point x="214" y="0"/>
    </contour>
  </outline>
</glyph>
<glyph name="dottedCircle" format="2">
  <advance width="594"/>
  <unicode hex="25CC"/>
  <anchor x="299" y="300" name="bottom"/>
  <anchor x="350" y="554" name="imatra"/>
  <anchor x="233" y="0" name="nukta"/>
  <anchor x="340" y="554" name="top"/>
  <anchor x="289" y="304" name="vedic"/>
  <outline>
    <contour>
      <point x="385" y="470" type="curve" smooth="yes"/>
      <point x="402" y="470"/>
      <point x="410" y="479"/>
      <point x="410" y="496" type="curve" smooth="yes"/>
      <point x="410" y="514"/>
      <point x="402" y="523"/>
      <point x="385" y="523" type="curve" smooth="yes"/>
      <point x="366" y="523"/>
      <point x="357" y="514"/>
      <point x="357" y="496" type="curve" smooth="yes"/>
      <point x="357" y="479"/>
      <point x="366" y="470"/>
    </contour>
    <contour>
      <point x="142" y="107" type="curve" smooth="yes"/>
      <point x="160" y="107"/>
      <point x="169" y="116"/>
      <point x="169" y="133" type="curve" smooth="yes"/>
      <point x="169" y="151"/>
      <point x="160" y="160"/>
      <point x="142" y="160" type="curve" smooth="yes"/>
      <point x="125" y="160"/>
      <point x="116" y="151"/>
      <point x="116" y="133" type="curve" smooth="yes"/>
      <point x="116" y="116"/>
      <point x="125" y="107"/>
    </contour>
    <contour>
      <point x="94" y="180" type="curve" smooth="yes"/>
      <point x="111" y="180"/>
      <point x="120" y="189"/>
      <point x="120" y="206" type="curve" smooth="yes"/>
      <point x="120" y="224"/>
      <point x="111" y="233"/>
      <point x="94" y="233" type="curve" smooth="yes"/>
      <point x="76" y="233"/>
      <point x="67" y="224"/>
      <point x="67" y="206" type="curve" smooth="yes"/>
      <point x="67" y="189"/>
      <point x="76" y="180"/>
    </contour>
    <contour>
      <point x="214" y="60" type="curve" smooth="yes"/>
      <point x="232" y="60"/>
      <point x="241" y="69"/>
      <point x="241" y="87" type="curve" smooth="yes"/>
      <point x="241" y="104"/>
      <point x="232" y="112"/>
      <point x="214" y="112" type="curve" smooth="yes"/>
      <point x="197" y="112"/>
      <point x="188" y="103"/>
      <point x="188" y="85" type="curve" smooth="yes"/>
      <point x="188" y="68"/>
      <point x="197" y="60"/>
    </contour>
    <contour>
      <point x="77" y="265" type="curve" smooth="yes"/>
      <point x="94" y="265"/>
      <point x="103" y="274"/>
      <point x="103" y="291" type="curve" smooth="yes"/>
      <point x="103" y="308"/>
      <point x="94" y="317"/>
      <point x="77" y="317" type="curve" smooth="yes"/>
      <point x="59" y="317"/>
      <point x="50" y="308"/>
      <point x="50" y="291" type="curve" smooth="yes"/>
      <point x="50" y="274"/>
      <point x="59" y="265"/>
    </contour>
    <contour>
      <point x="299" y="42" type="curve" smooth="yes"/>
      <point x="316" y="42"/>
      <point x="325" y="51"/>
      <point x="325" y="69" type="curve" smooth="yes"/>
      <point x="325" y="86"/>
      <point x="316" y="95"/>
      <point x="299" y="95" type="curve" smooth="yes"/>
      <point x="282" y="95"/>
      <point x="273" y="86"/>
      <point x="273" y="69" type="curve" smooth="yes"/>
      <point x="273" y="51"/>
      <point x="282" y="42"/>
    </contour>
    <contour>
      <point x="95" y="349" type="curve" smooth="yes"/>
      <point x="112" y="349"/>
      <point x="120" y="358"/>
      <point x="120" y="376" type="curve" smooth="yes"/>
      <point x="120" y="393"/>
      <point x="111" y="402"/>
      <point x="94" y="402" type="curve" smooth="yes"/>
      <point x="76" y="402"/>
      <point x="67" y="393"/>
      <point x="67" y="376" type="curve" smooth="yes"/>
      <point x="67" y="358"/>
      <point x="76" y="349"/>
    </contour>
    <contour>
      <point x="385" y="60" type="curve" smooth="yes"/>
      <point x="402" y="60"/>
      <point x="410" y="68"/>
      <point x="410" y="85" type="curve" smooth="yes"/>
      <point x="410" y="103"/>
      <point x="402" y="112"/>
      <point x="385" y="112" type="curve" smooth="yes"/>
      <point x="366" y="112"/>
      <point x="357" y="103"/>
      <point x="357" y="85" type="curve" smooth="yes"/>
      <point x="357" y="68"/>
      <point x="366" y="60"/>
    </contour>
    <contour>
      <point x="457" y="107" type="curve" smooth="yes"/>
      <point x="474" y="107"/>
      <point x="482" y="116"/>
      <point x="482" y="133" type="curve" smooth="yes"/>
      <point x="482" y="151"/>
      <point x="474" y="160"/>
      <point x="457" y="160" type="curve" smooth="yes"/>
      <point x="439" y="160"/>
      <point x="430" y="151"/>
      <point x="430" y="133" type="curve" smooth="yes"/>
      <point x="430" y="116"/>
      <point x="439" y="107"/>
    </contour>
    <contour>
      <point x="142" y="422" type="curve" smooth="yes"/>
      <point x="160" y="422"/>
      <point x="169" y="431"/>
      <point x="169" y="448" type="curve" smooth="yes"/>
      <point x="169" y="466"/>
      <point x="160" y="475"/>
      <point x="142" y="475" type="curve" smooth="yes"/>
      <point x="125" y="475"/>
      <point x="116" y="466"/>
      <point x="116" y="447" type="curve" smooth="yes"/>
      <point x="116" y="430"/>
      <point x="125" y="422"/>
    </contour>
    <contour>
      <point x="214" y="470" type="curve" smooth="yes"/>
      <point x="232" y="470"/>
      <point x="241" y="479"/>
      <point x="241" y="496" type="curve" smooth="yes"/>
      <point x="241" y="514"/>
      <point x="232" y="523"/>
      <point x="214" y="523" type="curve" smooth="yes"/>
      <point x="197" y="523"/>
      <point x="188" y="514"/>
      <point x="188" y="496" type="curve" smooth="yes"/>
      <point x="188" y="479"/>
      <point x="197" y="470"/>
    </contour>
    <contour>
      <point x="504" y="180" type="curve" smooth="yes"/>
      <point x="522" y="180"/>
      <point x="531" y="189"/>
      <point x="531" y="206" type="curve" smooth="yes"/>
      <point x="531" y="224"/>
      <point x="522" y="233"/>
      <point x="504" y="233" type="curve" smooth="yes"/>
      <point x="487" y="233"/>
      <point x="478" y="224"/>
      <point x="478" y="206" type="curve" smooth="yes"/>
      <point x="478" y="189"/>
      <point x="487" y="180"/>
    </contour>
    <contour>
      <point x="299" y="487" type="curve" smooth="yes"/>
      <point x="316" y="487"/>
      <point x="325" y="496"/>
      <point x="325" y="514" type="curve" smooth="yes"/>
      <point x="325" y="531"/>
      <point x="316" y="540"/>
      <point x="299" y="540" type="curve" smooth="yes"/>
      <point x="282" y="540"/>
      <point x="273" y="531"/>
      <point x="273" y="514" type="curve" smooth="yes"/>
      <point x="273" y="496"/>
      <point x="282" y="487"/>
    </contour>
    <contour>
      <point x="523" y="265" type="curve" smooth="yes"/>
      <point x="540" y="265"/>
      <point x="548" y="274"/>
      <point x="548" y="291" type="curve" smooth="yes"/>
      <point x="548" y="308"/>
      <point x="540" y="317"/>
      <point x="523" y="317" type="curve" smooth="yes"/>
      <point x="505" y="317"/>
      <point x="496" y="308"/>
      <point x="496" y="291" type="curve" smooth="yes"/>
      <point x="496" y="274"/>
      <point x="505" y="265"/>
    </contour>
    <contour>
      <point x="504" y="349" type="curve" smooth="yes"/>
      <point x="522" y="349"/>
      <point x="531" y="358"/>
      <point x="531" y="376" type="curve" smooth="yes"/>
      <point x="531" y="393"/>
      <point x="522" y="402"/>
      <point x="505" y="402" type="curve" smooth="yes"/>
      <point x="487" y="402"/>
      <point x="478" y="393"/>
      <point x="478" y="376" type="curve" smooth="yes"/>
      <point x="478" y="358"/>
      <point x="487" y="349"/>
    </contour>
    <contour>
      <point x="457" y="422" type="curve" smooth="yes"/>
      <point x="474" y="422"/>
      <point x="482" y="431"/>
      <point x="482" y="448" type="curve" smooth="yes"/>
      <point x="482" y="466"/>
      <point x="474" y="475"/>
      <point x="457" y="475" type="curve" smooth="yes"/>
      <point x="439" y="475"/>
      <point x="430" y="466"/>
      <point x="430" y="448" type="curve" smooth="yes"/>
      <point x="430" y="431"/>
      <point x="439" y="422"/>
    </contour>
  </outline>
</glyph>
<glyph name="candrabinduhalant-deva" format="2">
  <advance width="480"/>
  <unicode hex="A8F3"/>
  <note>
uniA8F3
</note>
  <outline>
    <contour>
      <point x="253" y="307" type="curve" smooth="yes"/>
      <point x="372" y="307"/>
      <point x="456" y="391"/>
      <point x="495" y="508" type="curve"/>
      <point x="400" y="533" type="line"/>
      <point x="376" y="449"/>
      <point x="326" y="396"/>
      <point x="251" y="396" type="curve" smooth="yes"/>
      <point x="194" y="396"/>
      <point x="155" y="429"/>
      <point x="152" y="527" type="curve"/>
      <point x="95" y="515" type="line"/>
      <point x="96" y="386"/>
      <point x="145" y="307"/>
    </contour>
    <contour>
      <point x="266" y="462" type="curve" smooth="yes"/>
      <point x="308" y="462"/>
      <point x="331" y="488"/>
      <point x="331" y="528" type="curve" smooth="yes"/>
      <point x="331" y="557"/>
      <point x="309" y="571"/>
      <point x="283" y="571" type="curve" smooth="yes"/>
      <point x="239" y="571"/>
      <point x="216" y="546"/>
      <point x="216" y="505" type="curve" smooth="yes"/>
      <point x="216" y="477"/>
      <point x="238" y="462"/>
    </contour>
    <contour>
      <point x="327" y="37" type="curve"/>
      <point x="380" y="66" type="line"/>
      <point x="299" y="212"/>
      <point x="289" y="261"/>
      <point x="189" y="261" type="curve" smooth="yes"/>
      <point x="157" y="261"/>
      <point x="129" y="252"/>
      <point x="108" y="246" type="curve"/>
      <point x="129" y="151" type="line"/>
      <point x="156" y="160"/>
      <point x="174" y="166"/>
      <point x="202" y="166" type="curve" smooth="yes"/>
      <point x="254" y="166"/>
      <point x="275" y="129"/>
    </contour>
  </outline>
</glyph>
<glyph name="u11301" format="2">
  <unicode hex="11301"/>
  <anchor x="61" y="563" name="_vedic"/>
  <outline>
    <contour>
      <point x="157" y="930" type="curve" smooth="yes"/>
      <point x="274" y="930"/>
      <point x="366" y="983"/>
      <point x="366" y="1074" type="curve" smooth="yes"/>
      <point x="366" y="1107"/>
      <point x="355" y="1132"/>
      <point x="320" y="1132" type="curve" smooth="yes"/>
      <point x="314" y="1132"/>
      <point x="302" y="1131"/>
      <point x="295" y="1128" type="curve"/>
      <point x="297" y="1121"/>
      <point x="298" y="1113"/>
      <point x="298" y="1098" type="curve" smooth="yes"/>
      <point x="298" y="1030"/>
      <point x="251" y="997"/>
      <point x="162" y="997" type="curve" smooth="yes"/>
      <point x="104" y="997"/>
      <point x="70" y="1016"/>
      <point x="70" y="1064" type="curve" smooth="yes"/>
      <point x="70" y="1086"/>
      <point x="79" y="1108"/>
      <point x="91" y="1129" type="curve"/>
      <point x="83" y="1132"/>
      <point x="71" y="1134"/>
      <point x="60" y="1134" type="curve" smooth="yes"/>
      <point x="5" y="1134"/>
      <point x="-39" y="1088"/>
      <point x="-39" y="1036" type="curve" smooth="yes"/>
      <point x="-39" y="979"/>
      <point x="6" y="930"/>
    </contour>
    <contour>
      <point x="182" y="1032" type="curve" smooth="yes"/>
      <point x="224" y="1032"/>
      <point x="243" y="1052"/>
      <point x="243" y="1083" type="curve" smooth="yes"/>
      <point x="243" y="1113"/>
      <point x="225" y="1135"/>
      <point x="182" y="1135" type="curve" smooth="yes"/>
      <point x="140" y="1135"/>
      <point x="122" y="1113"/>
      <point x="122" y="1084" type="curve" smooth="yes"/>
      <point x="122" y="1052"/>
      <point x="142" y="1032"/>
    </contour>
  </outline>
</glyph>
<glyph name="visarga-grantha" format="2">
  <advance width="294"/>
  <unicode hex="11303"/>
  <outline>
    <contour>
      <point x="121" y="-4" type="curve" smooth="yes"/>
      <point x="198" y="-4"/>
      <point x="261" y="53"/>
      <point x="261" y="130" type="curve" smooth="yes"/>
      <point x="261" y="207"/>
      <point x="198" y="264"/>
      <point x="121" y="264" type="curve" smooth="yes"/>
      <point x="43" y="264"/>
      <point x="-19" y="207"/>
      <point x="-19" y="130" type="curve" smooth="yes"/>
      <point x="-19" y="53"/>
      <point x="43" y="-4"/>
    </contour>
    <contour>
      <point x="121" y="74" type="curve" smooth="yes"/>
      <point x="86" y="74"/>
      <point x="61" y="97"/>
      <point x="61" y="130" type="curve" smooth="yes"/>
      <point x="61" y="163"/>
      <point x="86" y="186"/>
      <point x="121" y="186" type="curve" smooth="yes"/>
      <point x="155" y="186"/>
      <point x="180" y="163"/>
      <point x="180" y="130" type="curve" smooth="yes"/>
      <point x="180" y="97"/>
      <point x="155" y="74"/>
    </contour>
    <contour>
      <point x="185" y="299" type="curve" smooth="yes"/>
      <point x="262" y="299"/>
      <point x="325" y="357"/>
      <point x="325" y="434" type="curve" smooth="yes"/>
      <point x="325" y="511"/>
      <point x="262" y="568"/>
      <point x="185" y="568" type="curve" smooth="yes"/>
      <point x="107" y="568"/>
      <point x="45" y="511"/>
      <point x="45" y="434" type="curve" smooth="yes"/>
      <point x="45" y="357"/>
      <point x="107" y="299"/>
    </contour>
    <contour>
      <point x="185" y="377" type="curve" smooth="yes"/>
      <point x="150" y="377"/>
      <point x="125" y="401"/>
      <point x="125" y="434" type="curve" smooth="yes"/>
      <point x="125" y="466"/>
      <point x="150" y="490"/>
      <point x="185" y="490" type="curve" smooth="yes"/>
      <point x="219" y="490"/>
      <point x="244" y="466"/>
      <point x="244" y="434" type="curve" smooth="yes"/>
      <point x="244" y="401"/>
      <point x="219" y="377"/>
    </contour>
  </outline>
</glyph>
<glyph name="u1133B" format="2">
  <unicode hex="1133B"/>
  <anchor x="-59" y="0" name="_nukta"/>
  <outline>
    <contour>
      <point x="-92" y="-243" type="curve" smooth="yes"/>
      <point x="-42" y="-243"/>
      <point x="-2" y="-203"/>
      <point x="-2" y="-155" type="curve" smooth="yes"/>
      <point x="-2" y="-108"/>
      <point x="-42" y="-68"/>
      <point x="-92" y="-68" type="curve" smooth="yes"/>
      <point x="-142" y="-68"/>
      <point x="-182" y="-108"/>
      <point x="-182" y="-155" type="curve" smooth="yes"/>
      <point x="-182" y="-203"/>
      <point x="-142" y="-243"/>
    </contour>
  </outline>
</glyph>
<glyph name="nukta-grantha" format="2">
  <unicode hex="1133C"/>
  <anchor x="-59" y="0" name="_nukta"/>
  <outline>
    <contour>
      <point x="-245" y="-243" type="curve" smooth="yes"/>
      <point x="-195" y="-243"/>
      <point x="-155" y="-203"/>
      <point x="-155" y="-155" type="curve" smooth="yes"/>
      <point x="-155" y="-108"/>
      <point x="-195" y="-68"/>
      <point x="-245" y="-68" type="curve" smooth="yes"/>
      <point x="-295" y="-68"/>
      <point x="-335" y="-108"/>
      <point x="-335" y="-155" type="curve" smooth="yes"/>
      <point x="-335" y="-203"/>
      <point x="-295" y="-243"/>
    </contour>
    <contour>
      <point x="58" y="-243" type="curve" smooth="yes"/>
      <point x="108" y="-243"/>
      <point x="148" y="-203"/>
      <point x="148" y="-155" type="curve" smooth="yes"/>
      <point x="148" y="-108"/>
      <point x="108" y="-68"/>
      <point x="58" y="-68" type="curve" smooth="yes"/>
      <point x="8" y="-68"/>
      <point x="-32" y="-108"/>
      <point x="-32" y="-155" type="curve" smooth="yes"/>
      <point x="-32" y="-203"/>
      <point x="8" y="-243"/>
    </contour>
  </outline>
</glyph>
<glyph name="anusvara-tamil.alt" format="2">
  <note>
uni0B82
</note>
  <anchor x="33" y="433" name="_top"/>
  <outline>
    <contour>
      <point x="103" y="620" type="curve" smooth="yes"/>
      <point x="182" y="620"/>
      <point x="246" y="681"/>
      <point x="246" y="763" type="curve" smooth="yes"/>
      <point x="246" y="845"/>
      <point x="182" y="906"/>
      <point x="103" y="906" type="curve" smooth="yes"/>
      <point x="24" y="906"/>
      <point x="-40" y="845"/>
      <point x="-40" y="763" type="curve" smooth="yes"/>
      <point x="-40" y="681"/>
      <point x="24" y="620"/>
    </contour>
    <contour>
      <point x="103" y="697" type="curve" smooth="yes"/>
      <point x="69" y="697"/>
      <point x="40" y="726"/>
      <point x="40" y="763" type="curve" smooth="yes"/>
      <point x="40" y="799"/>
      <point x="69" y="828"/>
      <point x="103" y="828" type="curve" smooth="yes"/>
      <point x="137" y="828"/>
      <point x="166" y="799"/>
      <point x="166" y="763" type="curve" smooth="yes"/>
      <point x="166" y="726"/>
      <point x="137" y="697"/>
    </contour>
  </outline>
</glyph>
<glyph name="cu-tamil" format="2">
  <advance width="971"/>
  <note>
g106
</note>
  <anchor x="426" y="0" name="bottom"/>
  <anchor x="426" y="0" name="nukta"/>
  <anchor x="546" y="563" name="top"/>
  <anchor x="567" y="563" name="vedic"/>
  <outline>
    <contour>
      <point x="248" y="-4" type="curve" smooth="yes"/>
      <point x="422" y="-4"/>
      <point x="498" y="77"/>
      <point x="527" y="217" type="curve" smooth="yes"/>
      <point x="538" y="270" type="line"/>
      <point x="669" y="270" type="line"/>
      <point x="612" y="0" type="line"/>
      <point x="756" y="0" type="line"/>
      <point x="814" y="270" type="line"/>
      <point x="923" y="270" type="line"/>
      <point x="937" y="331" type="line"/>
      <point x="551" y="331" type="line"/>
      <point x="587" y="502" type="line"/>
      <point x="741" y="502" type="line"/>
      <point x="754" y="563" type="line"/>
      <point x="233" y="563" type="line"/>
      <point x="177" y="299" type="line"/>
      <point x="243" y="299" type="line"/>
      <point x="286" y="502" type="line"/>
      <point x="428" y="502" type="line"/>
      <point x="391" y="331" type="line"/>
      <point x="253" y="331" type="line" smooth="yes"/>
      <point x="130" y="331"/>
      <point x="34" y="264"/>
      <point x="34" y="154" type="curve" smooth="yes"/>
      <point x="34" y="70"/>
      <point x="100" y="-4"/>
    </contour>
    <contour>
      <point x="217" y="61" type="curve" smooth="yes"/>
      <point x="142" y="61"/>
      <point x="106" y="101"/>
      <point x="106" y="163" type="curve" smooth="yes"/>
      <point x="106" y="231"/>
      <point x="151" y="270"/>
      <point x="252" y="270" type="curve" smooth="yes"/>
      <point x="378" y="270" type="line"/>
      <point x="367" y="217" type="line" smooth="yes"/>
      <point x="346" y="118"/>
      <point x="306" y="61"/>
    </contour>
  </outline>
</glyph>
<glyph name="cuu-tamil" format="2">
  <advance width="1315"/>
  <note>
g107
</note>
  <anchor x="620" y="0" name="bottom"/>
  <anchor x="590" y="-324" name="nukta"/>
  <anchor x="722" y="563" name="top"/>
  <anchor x="713" y="563" name="vedic"/>
  <outline>
    <contour>
      <point x="447" y="-4" type="curve" smooth="yes"/>
      <point x="621" y="-4"/>
      <point x="697" y="77"/>
      <point x="726" y="217" type="curve" smooth="yes"/>
      <point x="737" y="270" type="line"/>
      <point x="1097" y="270" type="line"/>
      <point x="1110" y="331" type="line"/>
      <point x="750" y="331" type="line"/>
      <point x="786" y="502" type="line"/>
      <point x="940" y="502" type="line"/>
      <point x="953" y="563" type="line"/>
      <point x="432" y="563" type="line"/>
      <point x="376" y="299" type="line"/>
      <point x="442" y="299" type="line"/>
      <point x="485" y="502" type="line"/>
      <point x="627" y="502" type="line"/>
      <point x="590" y="331" type="line"/>
      <point x="452" y="331" type="line" smooth="yes"/>
      <point x="329" y="331"/>
      <point x="233" y="264"/>
      <point x="233" y="154" type="curve" smooth="yes"/>
      <point x="233" y="70"/>
      <point x="299" y="-4"/>
    </contour>
    <contour>
      <point x="416" y="61" type="curve" smooth="yes"/>
      <point x="341" y="61"/>
      <point x="305" y="101"/>
      <point x="305" y="163" type="curve" smooth="yes"/>
      <point x="305" y="231"/>
      <point x="350" y="270"/>
      <point x="451" y="270" type="curve" smooth="yes"/>
      <point x="577" y="270" type="line"/>
      <point x="566" y="217" type="line" smooth="yes"/>
      <point x="545" y="118"/>
      <point x="505" y="61"/>
    </contour>
    <contour>
      <point x="806" y="0" type="line"/>
      <point x="950" y="0" type="line"/>
      <point x="1013" y="297" type="line"/>
      <point x="869" y="297" type="line"/>
    </contour>
    <contour>
      <point x="590" y="-324" type="curve" smooth="yes"/>
      <point x="885" y="-324"/>
      <point x="1214" y="-196"/>
      <point x="1214" y="54" type="curve" smooth="yes"/>
      <point x="1214" y="141"/>
      <point x="1165" y="193"/>
      <point x="1086" y="193" type="curve" smooth="yes"/>
      <point x="1006" y="193"/>
      <point x="945" y="135"/>
      <point x="928" y="54" type="curve" smooth="yes"/>
      <point x="923" y="30" type="line"/>
      <point x="956" y="30" type="line"/>
      <point x="962" y="58" type="line" smooth="yes"/>
      <point x="969" y="91"/>
      <point x="991" y="111"/>
      <point x="1025" y="111" type="curve" smooth="yes"/>
      <point x="1057" y="111"/>
      <point x="1074" y="88"/>
      <point x="1074" y="51" type="curve" smooth="yes"/>
      <point x="1074" y="-165"/>
      <point x="827" y="-263"/>
      <point x="573" y="-263" type="curve" smooth="yes"/>
      <point x="272" y="-263"/>
      <point x="92" y="-90"/>
      <point x="92" y="119" type="curve" smooth="yes"/>
      <point x="92" y="260"/>
      <point x="147" y="347"/>
      <point x="266" y="482" type="curve"/>
      <point x="219" y="520" type="line"/>
      <point x="90" y="379"/>
      <point x="25" y="277"/>
      <point x="25" y="113" type="curve" smooth="yes"/>
      <point x="25" y="-121"/>
      <point x="217" y="-324"/>
    </contour>
  </outline>
</glyph>
<glyph name="hii-tamil" format="2">
  <advance width="1724"/>
  <note>
uni0BB9
</note>
  <anchor x="876" y="0" name="bottom"/>
  <anchor x="844" y="-149" name="nukta"/>
  <anchor x="1714" y="904" name="top"/>
  <anchor x="931" y="563" name="vedic"/>
  <outline>
    <contour>
      <point x="134" y="-290" type="curve"/>
      <point x="152" y="-204"/>
      <point x="188" y="-149"/>
      <point x="301" y="-149" type="curve" smooth="yes"/>
      <point x="1142" y="-149" type="line" smooth="yes"/>
      <point x="1484" y="-149"/>
      <point x="1684" y="9"/>
      <point x="1684" y="320" type="curve" smooth="yes"/>
      <point x="1684" y="482"/>
      <point x="1593" y="568"/>
      <point x="1460" y="568" type="curve" smooth="yes"/>
      <point x="1346" y="568"/>
      <point x="1284" y="503"/>
      <point x="1254" y="447" type="curve"/>
      <point x="1244" y="511"/>
      <point x="1201" y="567"/>
      <point x="1111" y="567" type="curve" smooth="yes"/>
      <point x="1011" y="567"/>
      <point x="947" y="501"/>
      <point x="923" y="386" type="curve" smooth="yes"/>
      <point x="855" y="61" type="line"/>
      <point x="654" y="61" type="line"/>
      <point x="735" y="124"/>
      <point x="799" y="205"/>
      <point x="799" y="316" type="curve" smooth="yes"/>
      <point x="799" y="481"/>
      <point x="648" y="568"/>
      <point x="455" y="568" type="curve" smooth="yes"/>
      <point x="236" y="568"/>
      <point x="53" y="427"/>
      <point x="53" y="223" type="curve" smooth="yes"/>
      <point x="53" y="103"/>
      <point x="130" y="-5"/>
      <point x="271" y="-5" type="curve" smooth="yes"/>
      <point x="382" y="-5"/>
      <point x="477" y="60"/>
      <point x="477" y="182" type="curve" smooth="yes"/>
      <point x="477" y="271"/>
      <point x="410" y="323"/>
      <point x="326" y="323" type="curve" smooth="yes"/>
      <point x="222" y="323"/>
      <point x="146" y="253"/>
      <point x="103" y="106" type="curve"/>
      <point x="141" y="87" type="line"/>
      <point x="167" y="194"/>
      <point x="221" y="244"/>
      <point x="274" y="244" type="curve" smooth="yes"/>
      <point x="328" y="244"/>
      <point x="347" y="203"/>
      <point x="347" y="166" type="curve" smooth="yes"/>
      <point x="347" y="114"/>
      <point x="319" y="61"/>
      <point x="245" y="61" type="curve" smooth="yes"/>
      <point x="166" y="61"/>
      <point x="115" y="142"/>
      <point x="115" y="227" type="curve" smooth="yes"/>
      <point x="115" y="396"/>
      <point x="273" y="507"/>
      <point x="433" y="507" type="curve" smooth="yes"/>
      <point x="558" y="507"/>
      <point x="648" y="434"/>
      <point x="648" y="301" type="curve" smooth="yes"/>
      <point x="648" y="195"/>
      <point x="592" y="114"/>
      <point x="522" y="44" type="curve"/>
      <point x="533" y="0" type="line"/>
      <point x="910" y="0" type="line"/>
      <point x="990" y="377" type="line" smooth="yes"/>
      <point x="1007" y="456"/>
      <point x="1038" y="501"/>
      <point x="1094" y="501" type="curve" smooth="yes"/>
      <point x="1155" y="501"/>
      <point x="1177" y="452"/>
      <point x="1161" y="376" type="curve" smooth="yes"/>
      <point x="1081" y="0" type="line"/>
      <point x="1241" y="0" type="line"/>
      <point x="1319" y="371" type="line" smooth="yes"/>
      <point x="1338" y="463"/>
      <point x="1383" y="502"/>
      <point x="1434" y="502" type="curve" smooth="yes"/>
      <point x="1499" y="502"/>
      <point x="1526" y="444"/>
      <point x="1526" y="348" type="curve" smooth="yes"/>
      <point x="1526" y="84"/>
      <point x="1396" y="-91"/>
      <point x="1135" y="-91" type="curve" smooth="yes"/>
      <point x="250" y="-91" type="line" smooth="yes"/>
      <point x="118" y="-91"/>
      <point x="21" y="-125"/>
      <point x="21" y="-208" type="curve" smooth="yes"/>
      <point x="21" y="-264"/>
      <point x="66" y="-290"/>
    </contour>
    <component base="iiMatra-tamil.alt01" xOffset="1725"/>
  </outline>
</glyph>
<glyph name="iMatra-tamil.alt01" format="2">
  <advance width="242"/>
  <note>
uni0BBF
</note>
  <outline>
    <contour>
      <point x="25" y="0" type="line"/>
      <point x="93" y="0" type="line"/>
      <point x="215" y="568" type="line" smooth="yes"/>
      <point x="220" y="590"/>
      <point x="222" y="612"/>
      <point x="222" y="633" type="curve" smooth="yes"/>
      <point x="222" y="767"/>
      <point x="128" y="868"/>
      <point x="-33" y="868" type="curve" smooth="yes"/>
      <point x="-193" y="868"/>
      <point x="-275" y="758"/>
      <point x="-275" y="653" type="curve" smooth="yes"/>
      <point x="-275" y="589"/>
      <point x="-247" y="546"/>
      <point x="-203" y="518" type="curve"/>
      <point x="-167" y="546" type="line"/>
      <point x="-189" y="564"/>
      <point x="-205" y="590"/>
      <point x="-205" y="619" type="curve" smooth="yes"/>
      <point x="-205" y="667"/>
      <point x="-167" y="741"/>
      <point x="-40" y="741" type="curve" smooth="yes"/>
      <point x="72" y="741"/>
      <point x="142" y="673"/>
      <point x="142" y="572" type="curve" smooth="yes"/>
      <point x="142" y="556"/>
      <point x="140" y="538"/>
      <point x="136" y="520" type="curve" smooth="yes"/>
    </contour>
  </outline>
</glyph>
<glyph name="iMatra-tamil.alt02" format="2">
  <advance width="223"/>
  <note>
uni0BBF
</note>
  <anchor x="-145" y="868" name="top"/>
  <outline>
    <contour>
      <point x="7" y="0" type="line"/>
      <point x="75" y="0" type="line"/>
      <point x="184" y="511" type="line" smooth="yes"/>
      <point x="229" y="723"/>
      <point x="86" y="868"/>
      <point x="-145" y="868" type="curve" smooth="yes"/>
      <point x="-335" y="868"/>
      <point x="-453" y="765"/>
      <point x="-453" y="629" type="curve" smooth="yes"/>
      <point x="-453" y="568"/>
      <point x="-430" y="532"/>
      <point x="-381" y="504" type="curve"/>
      <point x="-353" y="542" type="line"/>
      <point x="-375" y="556"/>
      <point x="-383" y="575"/>
      <point x="-383" y="605" type="curve" smooth="yes"/>
      <point x="-383" y="677"/>
      <point x="-306" y="741"/>
      <point x="-164" y="741" type="curve" smooth="yes"/>
      <point x="7" y="741"/>
      <point x="150" y="669"/>
      <point x="110" y="483" type="curve" smooth="yes"/>
    </contour>
  </outline>
</glyph>
<glyph name="iiMatra-tamil.alt01" format="2">
  <note>
uni0BC0
</note>
  <outline>
    <contour>
      <point x="-197" y="508" type="curve"/>
      <point x="-162" y="546" type="line"/>
      <point x="-196" y="577"/>
      <point x="-214" y="616"/>
      <point x="-214" y="666" type="curve" smooth="yes"/>
      <point x="-214" y="768"/>
      <point x="-129" y="844"/>
      <point x="-16" y="844" type="curve" smooth="yes"/>
      <point x="39" y="844"/>
      <point x="76" y="811"/>
      <point x="76" y="761" type="curve" smooth="yes"/>
      <point x="76" y="714"/>
      <point x="44" y="682"/>
      <point x="-3" y="682" type="curve" smooth="yes"/>
      <point x="-48" y="682"/>
      <point x="-67" y="711"/>
      <point x="-67" y="750" type="curve" smooth="yes"/>
      <point x="-67" y="786"/>
      <point x="-51" y="831"/>
      <point x="-23" y="868" type="curve"/>
      <point x="-73" y="872" type="line"/>
      <point x="-113" y="824"/>
      <point x="-133" y="773"/>
      <point x="-133" y="728" type="curve" smooth="yes"/>
      <point x="-133" y="658"/>
      <point x="-85" y="604"/>
      <point x="5" y="604" type="curve" smooth="yes"/>
      <point x="103" y="604"/>
      <point x="179" y="661"/>
      <point x="179" y="755" type="curve" smooth="yes"/>
      <point x="179" y="844"/>
      <point x="104" y="904"/>
      <point x="-11" y="904" type="curve" smooth="yes"/>
      <point x="-163" y="904"/>
      <point x="-281" y="807"/>
      <point x="-281" y="660" type="curve" smooth="yes"/>
      <point x="-281" y="597"/>
      <point x="-250" y="548"/>
    </contour>
  </outline>
</glyph>
<glyph name="iiMatra-tamil.alt02" format="2">
  <note>
uni0BC0
</note>
  <outline>
    <contour>
      <point x="-417" y="508" type="curve"/>
      <point x="-382" y="546" type="line"/>
      <point x="-416" y="577"/>
      <point x="-434" y="616"/>
      <point x="-434" y="666" type="curve" smooth="yes"/>
      <point x="-434" y="768"/>
      <point x="-359" y="844"/>
      <point x="-246" y="844" type="curve" smooth="yes"/>
      <point x="-191" y="844"/>
      <point x="-144" y="811"/>
      <point x="-144" y="761" type="curve" smooth="yes"/>
      <point x="-144" y="714"/>
      <point x="-176" y="682"/>
      <point x="-223" y="682" type="curve" smooth="yes"/>
      <point x="-268" y="682"/>
      <point x="-287" y="711"/>
      <point x="-287" y="750" type="curve" smooth="yes"/>
      <point x="-287" y="786"/>
      <point x="-271" y="831"/>
      <point x="-243" y="868" type="curve"/>
      <point x="-293" y="872" type="line"/>
      <point x="-333" y="824"/>
      <point x="-353" y="773"/>
      <point x="-353" y="728" type="curve" smooth="yes"/>
      <point x="-353" y="658"/>
      <point x="-305" y="604"/>
      <point x="-215" y="604" type="curve" smooth="yes"/>
      <point x="-117" y="604"/>
      <point x="-41" y="661"/>
      <point x="-41" y="755" type="curve" smooth="yes"/>
      <point x="-41" y="844"/>
      <point x="-120" y="904"/>
      <point x="-245" y="904" type="curve" smooth="yes"/>
      <point x="-388" y="904"/>
      <point x="-501" y="806"/>
      <point x="-501" y="676" type="curve" smooth="yes"/>
      <point x="-501" y="610"/>
      <point x="-470" y="548"/>
    </contour>
  </outline>
</glyph>
<glyph name="jii-tamil" format="2">
  <advance width="1092"/>
  <note>
uni0B9C
</note>
  <anchor x="488" y="0" name="bottom"/>
  <anchor x="419" y="-324" name="nukta"/>
  <anchor x="1104" y="904" name="top"/>
  <anchor x="624" y="563" name="vedic"/>
  <outline>
    <contour>
      <point x="187" y="-324" type="curve" smooth="yes"/>
      <point x="432" y="-324"/>
      <point x="494" y="-21"/>
      <point x="691" y="-21" type="curve" smooth="yes"/>
      <point x="757" y="-21"/>
      <point x="793" y="-62"/>
      <point x="793" y="-123" type="curve" smooth="yes"/>
      <point x="793" y="-201"/>
      <point x="740" y="-258"/>
      <point x="657" y="-258" type="curve" smooth="yes"/>
      <point x="625" y="-258"/>
      <point x="588" y="-248"/>
      <point x="550" y="-221" type="curve"/>
      <point x="520" y="-261" type="line"/>
      <point x="579" y="-309"/>
      <point x="635" y="-324"/>
      <point x="705" y="-324" type="curve" smooth="yes"/>
      <point x="834" y="-324"/>
      <point x="951" y="-254"/>
      <point x="951" y="-123" type="curve" smooth="yes"/>
      <point x="951" y="-14"/>
      <point x="871" y="43"/>
      <point x="744" y="43" type="curve" smooth="yes"/>
      <point x="464" y="43"/>
      <point x="393" y="-263"/>
      <point x="228" y="-263" type="curve" smooth="yes"/>
      <point x="167" y="-263"/>
      <point x="135" y="-220"/>
      <point x="135" y="-141" type="curve" smooth="yes"/>
      <point x="135" y="39"/>
      <point x="294" y="57"/>
      <point x="555" y="85" type="curve" smooth="yes"/>
      <point x="844" y="116"/>
      <point x="1053" y="166"/>
      <point x="1053" y="391" type="curve" smooth="yes"/>
      <point x="1053" y="509"/>
      <point x="964" y="569"/>
      <point x="836" y="569" type="curve" smooth="yes"/>
      <point x="723" y="569"/>
      <point x="645" y="520"/>
      <point x="601" y="428" type="curve"/>
      <point x="577" y="520"/>
      <point x="489" y="569"/>
      <point x="361" y="569" type="curve" smooth="yes"/>
      <point x="209" y="569"/>
      <point x="76" y="481"/>
      <point x="76" y="327" type="curve" smooth="yes"/>
      <point x="76" y="229"/>
      <point x="143" y="159"/>
      <point x="245" y="159" type="curve" smooth="yes"/>
      <point x="334" y="159"/>
      <point x="422" y="203"/>
      <point x="422" y="298" type="curve" smooth="yes"/>
      <point x="422" y="369"/>
      <point x="371" y="410"/>
      <point x="297" y="410" type="curve" smooth="yes"/>
      <point x="219" y="410"/>
      <point x="147" y="370"/>
      <point x="109" y="240" type="curve"/>
      <point x="145" y="223" type="line"/>
      <point x="168" y="311"/>
      <point x="214" y="351"/>
      <point x="258" y="351" type="curve" smooth="yes"/>
      <point x="298" y="351"/>
      <point x="318" y="327"/>
      <point x="318" y="293" type="curve" smooth="yes"/>
      <point x="318" y="245"/>
      <point x="281" y="221"/>
      <point x="234" y="221" type="curve" smooth="yes"/>
      <point x="182" y="221"/>
      <point x="139" y="263"/>
      <point x="139" y="333" type="curve" smooth="yes"/>
      <point x="139" y="446"/>
      <point x="234" y="507"/>
      <point x="351" y="507" type="curve" smooth="yes"/>
      <point x="462" y="507"/>
      <point x="523" y="448"/>
      <point x="502" y="352" type="curve" smooth="yes"/>
      <point x="473" y="217" type="line"/>
      <point x="634" y="217" type="line"/>
      <point x="670" y="384" type="line" smooth="yes"/>
      <point x="688" y="468"/>
      <point x="734" y="507"/>
      <point x="797" y="507" type="curve" smooth="yes"/>
      <point x="856" y="507"/>
      <point x="894" y="473"/>
      <point x="894" y="404" type="curve" smooth="yes"/>
      <point x="894" y="194"/>
      <point x="751" y="153"/>
      <point x="447" y="120" type="curve" smooth="yes"/>
      <point x="197" y="93"/>
      <point x="-24" y="63"/>
      <point x="-24" y="-130" type="curve" smooth="yes"/>
      <point x="-24" y="-247"/>
      <point x="51" y="-324"/>
    </contour>
    <component base="iiMatra-tamil.alt01" xOffset="1115"/>
  </outline>
</glyph>
<glyph name="kssii-tamil" format="2">
  <advance width="1968"/>
  <note>
g76
</note>
  <anchor x="906" y="0" name="bottom"/>
  <anchor x="788" y="0" name="nukta"/>
  <anchor x="1760" y="904" name="top"/>
  <anchor x="1049" y="563" name="vedic"/>
  <outline>
    <contour>
      <point x="776" y="-5" type="curve" smooth="yes"/>
      <point x="897" y="-5"/>
      <point x="984" y="66"/>
      <point x="984" y="182" type="curve" smooth="yes"/>
      <point x="984" y="276"/>
      <point x="909" y="331"/>
      <point x="762" y="331" type="curve" smooth="yes"/>
      <point x="551" y="331" type="line"/>
      <point x="587" y="502" type="line"/>
      <point x="741" y="502" type="line"/>
      <point x="754" y="563" type="line"/>
      <point x="233" y="563" type="line"/>
      <point x="177" y="299" type="line"/>
      <point x="243" y="299" type="line"/>
      <point x="286" y="502" type="line"/>
      <point x="428" y="502" type="line"/>
      <point x="391" y="331" type="line"/>
      <point x="253" y="331" type="line" smooth="yes"/>
      <point x="130" y="331"/>
      <point x="34" y="264"/>
      <point x="34" y="154" type="curve" smooth="yes"/>
      <point x="34" y="70"/>
      <point x="100" y="-4"/>
      <point x="248" y="-4" type="curve" smooth="yes"/>
      <point x="422" y="-4"/>
      <point x="498" y="77"/>
      <point x="527" y="217" type="curve" smooth="yes"/>
      <point x="538" y="270" type="line"/>
      <point x="742" y="270" type="line" smooth="yes"/>
      <point x="820" y="270"/>
      <point x="863" y="233"/>
      <point x="863" y="173" type="curve" smooth="yes"/>
      <point x="863" y="103"/>
      <point x="819" y="61"/>
      <point x="758" y="61" type="curve" smooth="yes"/>
      <point x="709" y="61"/>
      <point x="680" y="94"/>
      <point x="680" y="152" type="curve" smooth="yes"/>
      <point x="680" y="281"/>
      <point x="796" y="366"/>
      <point x="938" y="366" type="curve" smooth="yes"/>
      <point x="1034" y="366"/>
      <point x="1118" y="322"/>
      <point x="1118" y="223" type="curve" smooth="yes"/>
      <point x="1118" y="148"/>
      <point x="1088" y="99"/>
      <point x="1030" y="44" type="curve"/>
      <point x="1041" y="0" type="line"/>
      <point x="1852" y="0" type="line"/>
      <point x="1923" y="335" type="line"/>
      <point x="1750" y="273" type="line"/>
      <point x="1705" y="61" type="line"/>
      <point x="1096" y="61" type="line"/>
      <point x="1105" y="38" type="line"/>
      <point x="1179" y="78"/>
      <point x="1239" y="139"/>
      <point x="1239" y="233" type="curve" smooth="yes"/>
      <point x="1239" y="365"/>
      <point x="1102" y="427"/>
      <point x="958" y="427" type="curve" smooth="yes"/>
      <point x="775" y="427"/>
      <point x="613" y="311"/>
      <point x="613" y="148" type="curve" smooth="yes"/>
      <point x="613" y="57"/>
      <point x="676" y="-5"/>
    </contour>
    <contour>
      <point x="217" y="61" type="curve" smooth="yes"/>
      <point x="142" y="61"/>
      <point x="106" y="101"/>
      <point x="106" y="163" type="curve" smooth="yes"/>
      <point x="106" y="231"/>
      <point x="151" y="270"/>
      <point x="252" y="270" type="curve" smooth="yes"/>
      <point x="378" y="270" type="line"/>
      <point x="367" y="217" type="line" smooth="yes"/>
      <point x="346" y="118"/>
      <point x="306" y="61"/>
    </contour>
    <contour>
      <point x="1351" y="-324" type="line"/>
      <point x="1508" y="-324" type="line"/>
      <point x="1662" y="399" type="line" smooth="yes"/>
      <point x="1686" y="510"/>
      <point x="1619" y="569"/>
      <point x="1512" y="569" type="curve" smooth="yes"/>
      <point x="1386" y="569"/>
      <point x="1309" y="476"/>
      <point x="1309" y="370" type="curve" smooth="yes"/>
      <point x="1309" y="275"/>
      <point x="1384" y="197"/>
      <point x="1539" y="197" type="curve" smooth="yes"/>
      <point x="1666" y="197"/>
      <point x="1773" y="230"/>
      <point x="1921" y="325" type="curve"/>
      <point x="1924" y="339" type="line"/>
      <point x="1896" y="369" type="line"/>
      <point x="1773" y="294"/>
      <point x="1669" y="249"/>
      <point x="1549" y="249" type="curve" smooth="yes"/>
      <point x="1419" y="249"/>
      <point x="1369" y="297"/>
      <point x="1369" y="375" type="curve" smooth="yes"/>
      <point x="1369" y="435"/>
      <point x="1401" y="478"/>
      <point x="1455" y="478" type="curve" smooth="yes"/>
      <point x="1496" y="478"/>
      <point x="1515" y="450"/>
      <point x="1507" y="411" type="curve" smooth="yes"/>
    </contour>
    <component base="iiMatra-tamil.alt02" xOffset="1990"/>
  </outline>
</glyph>
<glyph name="ku-tamil" format="2">
  <advance width="1143"/>
  <note>
g101
</note>
  <anchor x="508" y="0" name="bottom"/>
  <anchor x="480" y="-324" name="nukta"/>
  <anchor x="735" y="563" name="top"/>
  <anchor x="712" y="563" name="vedic"/>
  <outline>
    <contour>
      <point x="480" y="-324" type="curve" smooth="yes"/>
      <point x="771" y="-324"/>
      <point x="1041" y="-191"/>
      <point x="1041" y="92" type="curve" smooth="yes"/>
      <point x="1041" y="250"/>
      <point x="931" y="331"/>
      <point x="759" y="331" type="curve" smooth="yes"/>
      <point x="483" y="331" type="line" smooth="yes"/>
      <point x="360" y="331"/>
      <point x="264" y="264"/>
      <point x="264" y="154" type="curve" smooth="yes"/>
      <point x="264" y="70"/>
      <point x="330" y="-4"/>
      <point x="478" y="-4" type="curve" smooth="yes"/>
      <point x="652" y="-4"/>
      <point x="728" y="77"/>
      <point x="757" y="217" type="curve" smooth="yes"/>
      <point x="817" y="502" type="line"/>
      <point x="971" y="502" type="line"/>
      <point x="984" y="563" type="line"/>
      <point x="463" y="563" type="line"/>
      <point x="407" y="299" type="line"/>
      <point x="473" y="299" type="line"/>
      <point x="516" y="502" type="line"/>
      <point x="658" y="502" type="line"/>
      <point x="597" y="217" type="line" smooth="yes"/>
      <point x="576" y="118"/>
      <point x="536" y="61"/>
      <point x="447" y="61" type="curve" smooth="yes"/>
      <point x="372" y="61"/>
      <point x="336" y="101"/>
      <point x="336" y="163" type="curve" smooth="yes"/>
      <point x="336" y="231"/>
      <point x="381" y="270"/>
      <point x="482" y="270" type="curve" smooth="yes"/>
      <point x="746" y="270" type="line" smooth="yes"/>
      <point x="844" y="270"/>
      <point x="889" y="198"/>
      <point x="889" y="95" type="curve" smooth="yes"/>
      <point x="889" y="-157"/>
      <point x="707" y="-263"/>
      <point x="483" y="-263" type="curve" smooth="yes"/>
      <point x="256" y="-263"/>
      <point x="85" y="-131"/>
      <point x="85" y="83" type="curve" smooth="yes"/>
      <point x="85" y="235"/>
      <point x="150" y="347"/>
      <point x="277" y="463" type="curve"/>
      <point x="233" y="509" type="line"/>
      <point x="96" y="385"/>
      <point x="18" y="252"/>
      <point x="18" y="76" type="curve" smooth="yes"/>
      <point x="18" y="-167"/>
      <point x="226" y="-324"/>
    </contour>
  </outline>
</glyph>
<glyph name="kuu-tamil" format="2">
  <advance width="1371"/>
  <note>
g102
</note>
  <anchor x="614" y="0" name="bottom"/>
  <anchor x="614" y="0" name="nukta"/>
  <anchor x="523" y="563" name="top"/>
  <anchor x="753" y="563" name="vedic"/>
  <outline>
    <contour>
      <point x="770" y="-5" type="curve" smooth="yes"/>
      <point x="891" y="-5"/>
      <point x="978" y="66"/>
      <point x="978" y="182" type="curve" smooth="yes"/>
      <point x="978" y="276"/>
      <point x="903" y="331"/>
      <point x="756" y="331" type="curve" smooth="yes"/>
      <point x="551" y="331" type="line"/>
      <point x="587" y="502" type="line"/>
      <point x="741" y="502" type="line"/>
      <point x="754" y="563" type="line"/>
      <point x="233" y="563" type="line"/>
      <point x="177" y="299" type="line"/>
      <point x="243" y="299" type="line"/>
      <point x="286" y="502" type="line"/>
      <point x="428" y="502" type="line"/>
      <point x="391" y="331" type="line"/>
      <point x="253" y="331" type="line" smooth="yes"/>
      <point x="130" y="331"/>
      <point x="34" y="264"/>
      <point x="34" y="154" type="curve" smooth="yes"/>
      <point x="34" y="70"/>
      <point x="100" y="-4"/>
      <point x="248" y="-4" type="curve" smooth="yes"/>
      <point x="422" y="-4"/>
      <point x="498" y="77"/>
      <point x="527" y="217" type="curve" smooth="yes"/>
      <point x="538" y="270" type="line"/>
      <point x="736" y="270" type="line" smooth="yes"/>
      <point x="814" y="270"/>
      <point x="857" y="233"/>
      <point x="857" y="173" type="curve" smooth="yes"/>
      <point x="857" y="103"/>
      <point x="813" y="61"/>
      <point x="752" y="61" type="curve" smooth="yes"/>
      <point x="703" y="61"/>
      <point x="674" y="94"/>
      <point x="674" y="152" type="curve" smooth="yes"/>
      <point x="674" y="281"/>
      <point x="792" y="366"/>
      <point x="922" y="366" type="curve" smooth="yes"/>
      <point x="1035" y="366"/>
      <point x="1112" y="320"/>
      <point x="1112" y="221" type="curve" smooth="yes"/>
      <point x="1112" y="146"/>
      <point x="1078" y="94"/>
      <point x="1024" y="44" type="curve"/>
      <point x="1035" y="0" type="line"/>
      <point x="1295" y="0" type="line"/>
      <point x="1308" y="61" type="line"/>
      <point x="1090" y="61" type="line"/>
      <point x="1099" y="38" type="line"/>
      <point x="1171" y="78"/>
      <point x="1233" y="137"/>
      <point x="1233" y="231" type="curve" smooth="yes"/>
      <point x="1233" y="363"/>
      <point x="1103" y="427"/>
      <point x="942" y="427" type="curve" smooth="yes"/>
      <point x="775" y="427"/>
      <point x="607" y="311"/>
      <point x="607" y="148" type="curve" smooth="yes"/>
      <point x="607" y="57"/>
      <point x="670" y="-5"/>
    </contour>
    <contour>
      <point x="217" y="61" type="curve" smooth="yes"/>
      <point x="142" y="61"/>
      <point x="106" y="101"/>
      <point x="106" y="163" type="curve" smooth="yes"/>
      <point x="106" y="231"/>
      <point x="151" y="270"/>
      <point x="252" y="270" type="curve" smooth="yes"/>
      <point x="378" y="270" type="line"/>
      <point x="367" y="217" type="line" smooth="yes"/>
      <point x="346" y="118"/>
      <point x="306" y="61"/>
    </contour>
  </outline>
</glyph>
